G04 #@! TF.FileFunction,Legend,Top*
%FSLAX46Y46*%
G04 Gerber Fmt 4.6, Leading zero omitted, Abs format (unit mm)*
G04 Created by KiCad (PCBNEW 4.0.4+e1-6308~48~ubuntu16.04.1-stable) date Wed Dec 14 21:01:21 2016*
%MOMM*%
%LPD*%
G01*
G04 APERTURE LIST*
%ADD10C,0.100000*%
%ADD11C,0.150000*%
G04 APERTURE END LIST*
D10*
D11*
X96460000Y-150480000D02*
X96460000Y-149780000D01*
X97660000Y-149780000D02*
X97660000Y-150480000D01*
X98365000Y-150480000D02*
X98365000Y-149780000D01*
X99565000Y-149780000D02*
X99565000Y-150480000D01*
X101540000Y-150480000D02*
X101540000Y-149780000D01*
X102740000Y-149780000D02*
X102740000Y-150480000D01*
X100870000Y-124730000D02*
X98330000Y-124730000D01*
X103690000Y-125010000D02*
X102140000Y-125010000D01*
X100870000Y-124730000D02*
X100870000Y-122190000D01*
X102140000Y-121910000D02*
X103690000Y-121910000D01*
X103690000Y-121910000D02*
X103690000Y-125010000D01*
X100870000Y-122190000D02*
X98330000Y-122190000D01*
X98330000Y-122190000D02*
X98330000Y-124730000D01*
X95020000Y-141280000D02*
X94020000Y-141280000D01*
X94020000Y-139930000D02*
X95020000Y-139930000D01*
X95020000Y-139375000D02*
X94020000Y-139375000D01*
X94020000Y-138025000D02*
X95020000Y-138025000D01*
X116110000Y-132350000D02*
X116110000Y-150130000D01*
X116110000Y-150130000D02*
X113570000Y-150130000D01*
X113570000Y-150130000D02*
X113570000Y-132350000D01*
X116390000Y-129530000D02*
X116390000Y-131080000D01*
X116110000Y-132350000D02*
X113570000Y-132350000D01*
X113290000Y-131080000D02*
X113290000Y-129530000D01*
X113290000Y-129530000D02*
X116390000Y-129530000D01*
X85630000Y-147590000D02*
X85630000Y-129810000D01*
X85630000Y-129810000D02*
X88170000Y-129810000D01*
X88170000Y-129810000D02*
X88170000Y-147590000D01*
X85350000Y-150410000D02*
X85350000Y-148860000D01*
X85630000Y-147590000D02*
X88170000Y-147590000D01*
X88450000Y-148860000D02*
X88450000Y-150410000D01*
X88450000Y-150410000D02*
X85350000Y-150410000D01*
X108870000Y-135320000D02*
X92870000Y-135320000D01*
X92870000Y-135320000D02*
X92870000Y-157320000D01*
X92870000Y-157320000D02*
X108870000Y-157320000D01*
X108870000Y-157320000D02*
X108870000Y-135320000D01*
X100669340Y-143150080D02*
X100969060Y-143399000D01*
X100969060Y-143399000D02*
X101118920Y-143500600D01*
X101118920Y-143500600D02*
X100270560Y-143500600D01*
X102170480Y-142799560D02*
X100369620Y-142799560D01*
X102170480Y-142799560D02*
X102170480Y-143449800D01*
X102170480Y-147300440D02*
X100369620Y-147300440D01*
X102170480Y-147300440D02*
X102170480Y-146650200D01*
X116390000Y-149850000D02*
X116390000Y-151400000D01*
X113290000Y-151400000D02*
X113290000Y-149850000D01*
X113290000Y-149850000D02*
X116390000Y-149850000D01*
X113570000Y-152670000D02*
X116110000Y-152670000D01*
X88170000Y-155210000D02*
X88170000Y-157750000D01*
X88450000Y-152390000D02*
X88450000Y-153940000D01*
X88170000Y-155210000D02*
X85630000Y-155210000D01*
X85350000Y-153940000D02*
X85350000Y-152390000D01*
X85350000Y-152390000D02*
X88450000Y-152390000D01*
X85630000Y-155210000D02*
X85630000Y-157750000D01*
X85630000Y-157750000D02*
X88170000Y-157750000D01*
X88450000Y-149850000D02*
X88450000Y-151400000D01*
X85350000Y-151400000D02*
X85350000Y-149850000D01*
X85350000Y-149850000D02*
X88450000Y-149850000D01*
X85630000Y-152670000D02*
X88170000Y-152670000D01*
X116110000Y-155210000D02*
X116110000Y-157750000D01*
X116390000Y-152390000D02*
X116390000Y-153940000D01*
X116110000Y-155210000D02*
X113570000Y-155210000D01*
X113290000Y-153940000D02*
X113290000Y-152390000D01*
X113290000Y-152390000D02*
X116390000Y-152390000D01*
X113570000Y-155210000D02*
X113570000Y-157750000D01*
X113570000Y-157750000D02*
X116110000Y-157750000D01*
X108704381Y-142001905D02*
X109513905Y-142001905D01*
X109609143Y-141954286D01*
X109656762Y-141906667D01*
X109704381Y-141811429D01*
X109704381Y-141620952D01*
X109656762Y-141525714D01*
X109609143Y-141478095D01*
X109513905Y-141430476D01*
X108704381Y-141430476D01*
X109704381Y-140430476D02*
X109704381Y-141001905D01*
X109704381Y-140716191D02*
X108704381Y-140716191D01*
X108847238Y-140811429D01*
X108942476Y-140906667D01*
X108990095Y-141001905D01*
D10*
X110248190Y-148955237D02*
X110248190Y-149193332D01*
X110486286Y-149217142D01*
X110462476Y-149193332D01*
X110438667Y-149145713D01*
X110438667Y-149026666D01*
X110462476Y-148979047D01*
X110486286Y-148955237D01*
X110533905Y-148931428D01*
X110652952Y-148931428D01*
X110700571Y-148955237D01*
X110724381Y-148979047D01*
X110748190Y-149026666D01*
X110748190Y-149145713D01*
X110724381Y-149193332D01*
X110700571Y-149217142D01*
X110248190Y-148788571D02*
X110748190Y-148621904D01*
X110248190Y-148455238D01*
X110272000Y-146700953D02*
X110248190Y-146748572D01*
X110248190Y-146820000D01*
X110272000Y-146891429D01*
X110319619Y-146939048D01*
X110367238Y-146962857D01*
X110462476Y-146986667D01*
X110533905Y-146986667D01*
X110629143Y-146962857D01*
X110676762Y-146939048D01*
X110724381Y-146891429D01*
X110748190Y-146820000D01*
X110748190Y-146772381D01*
X110724381Y-146700953D01*
X110700571Y-146677143D01*
X110533905Y-146677143D01*
X110533905Y-146772381D01*
X110748190Y-146462857D02*
X110248190Y-146462857D01*
X110748190Y-146177143D01*
X110248190Y-146177143D01*
X110748190Y-145939047D02*
X110248190Y-145939047D01*
X110248190Y-145820000D01*
X110272000Y-145748571D01*
X110319619Y-145700952D01*
X110367238Y-145677143D01*
X110462476Y-145653333D01*
X110533905Y-145653333D01*
X110629143Y-145677143D01*
X110676762Y-145700952D01*
X110724381Y-145748571D01*
X110748190Y-145820000D01*
X110748190Y-145939047D01*
X110748190Y-144149047D02*
X110248190Y-144149047D01*
X110248190Y-144030000D01*
X110272000Y-143958571D01*
X110319619Y-143910952D01*
X110367238Y-143887143D01*
X110462476Y-143863333D01*
X110533905Y-143863333D01*
X110629143Y-143887143D01*
X110676762Y-143910952D01*
X110724381Y-143958571D01*
X110748190Y-144030000D01*
X110748190Y-144149047D01*
X110414857Y-143434762D02*
X110748190Y-143434762D01*
X110224381Y-143553809D02*
X110581524Y-143672857D01*
X110581524Y-143363333D01*
X110748190Y-141609047D02*
X110248190Y-141609047D01*
X110248190Y-141490000D01*
X110272000Y-141418571D01*
X110319619Y-141370952D01*
X110367238Y-141347143D01*
X110462476Y-141323333D01*
X110533905Y-141323333D01*
X110629143Y-141347143D01*
X110676762Y-141370952D01*
X110724381Y-141418571D01*
X110748190Y-141490000D01*
X110748190Y-141609047D01*
X110248190Y-141156666D02*
X110248190Y-140847143D01*
X110438667Y-141013809D01*
X110438667Y-140942381D01*
X110462476Y-140894762D01*
X110486286Y-140870952D01*
X110533905Y-140847143D01*
X110652952Y-140847143D01*
X110700571Y-140870952D01*
X110724381Y-140894762D01*
X110748190Y-140942381D01*
X110748190Y-141085238D01*
X110724381Y-141132857D01*
X110700571Y-141156666D01*
X110748190Y-139069047D02*
X110248190Y-139069047D01*
X110248190Y-138950000D01*
X110272000Y-138878571D01*
X110319619Y-138830952D01*
X110367238Y-138807143D01*
X110462476Y-138783333D01*
X110533905Y-138783333D01*
X110629143Y-138807143D01*
X110676762Y-138830952D01*
X110724381Y-138878571D01*
X110748190Y-138950000D01*
X110748190Y-139069047D01*
X110295810Y-138592857D02*
X110272000Y-138569047D01*
X110248190Y-138521428D01*
X110248190Y-138402381D01*
X110272000Y-138354762D01*
X110295810Y-138330952D01*
X110343429Y-138307143D01*
X110391048Y-138307143D01*
X110462476Y-138330952D01*
X110748190Y-138616666D01*
X110748190Y-138307143D01*
X110748190Y-136529047D02*
X110248190Y-136529047D01*
X110248190Y-136410000D01*
X110272000Y-136338571D01*
X110319619Y-136290952D01*
X110367238Y-136267143D01*
X110462476Y-136243333D01*
X110533905Y-136243333D01*
X110629143Y-136267143D01*
X110676762Y-136290952D01*
X110724381Y-136338571D01*
X110748190Y-136410000D01*
X110748190Y-136529047D01*
X110748190Y-135767143D02*
X110748190Y-136052857D01*
X110748190Y-135910000D02*
X110248190Y-135910000D01*
X110319619Y-135957619D01*
X110367238Y-136005238D01*
X110391048Y-136052857D01*
X110748190Y-133703333D02*
X110510095Y-133870000D01*
X110748190Y-133989047D02*
X110248190Y-133989047D01*
X110248190Y-133798571D01*
X110272000Y-133750952D01*
X110295810Y-133727143D01*
X110343429Y-133703333D01*
X110414857Y-133703333D01*
X110462476Y-133727143D01*
X110486286Y-133750952D01*
X110510095Y-133798571D01*
X110510095Y-133989047D01*
X110248190Y-133536666D02*
X110748190Y-133203333D01*
X110248190Y-133203333D02*
X110748190Y-133536666D01*
X110248190Y-131460952D02*
X110248190Y-131175238D01*
X110748190Y-131318095D02*
X110248190Y-131318095D01*
X110248190Y-131056190D02*
X110748190Y-130722857D01*
X110248190Y-130722857D02*
X110748190Y-131056190D01*
X90944190Y-149479046D02*
X90944190Y-149169523D01*
X91134667Y-149336189D01*
X91134667Y-149264761D01*
X91158476Y-149217142D01*
X91182286Y-149193332D01*
X91229905Y-149169523D01*
X91348952Y-149169523D01*
X91396571Y-149193332D01*
X91420381Y-149217142D01*
X91444190Y-149264761D01*
X91444190Y-149407618D01*
X91420381Y-149455237D01*
X91396571Y-149479046D01*
X90944190Y-149026666D02*
X91444190Y-148859999D01*
X90944190Y-148693333D01*
X90944190Y-148574285D02*
X90944190Y-148264762D01*
X91134667Y-148431428D01*
X91134667Y-148360000D01*
X91158476Y-148312381D01*
X91182286Y-148288571D01*
X91229905Y-148264762D01*
X91348952Y-148264762D01*
X91396571Y-148288571D01*
X91420381Y-148312381D01*
X91444190Y-148360000D01*
X91444190Y-148502857D01*
X91420381Y-148550476D01*
X91396571Y-148574285D01*
X91444190Y-146450952D02*
X90944190Y-146450952D01*
X91420381Y-146450952D02*
X91444190Y-146498571D01*
X91444190Y-146593809D01*
X91420381Y-146641428D01*
X91396571Y-146665237D01*
X91348952Y-146689047D01*
X91206095Y-146689047D01*
X91158476Y-146665237D01*
X91134667Y-146641428D01*
X91110857Y-146593809D01*
X91110857Y-146498571D01*
X91134667Y-146450952D01*
X91158476Y-146141428D02*
X91134667Y-146189047D01*
X91110857Y-146212856D01*
X91063238Y-146236666D01*
X91039429Y-146236666D01*
X90991810Y-146212856D01*
X90968000Y-146189047D01*
X90944190Y-146141428D01*
X90944190Y-146046190D01*
X90968000Y-145998571D01*
X90991810Y-145974761D01*
X91039429Y-145950952D01*
X91063238Y-145950952D01*
X91110857Y-145974761D01*
X91134667Y-145998571D01*
X91158476Y-146046190D01*
X91158476Y-146141428D01*
X91182286Y-146189047D01*
X91206095Y-146212856D01*
X91253714Y-146236666D01*
X91348952Y-146236666D01*
X91396571Y-146212856D01*
X91420381Y-146189047D01*
X91444190Y-146141428D01*
X91444190Y-146046190D01*
X91420381Y-145998571D01*
X91396571Y-145974761D01*
X91348952Y-145950952D01*
X91253714Y-145950952D01*
X91206095Y-145974761D01*
X91182286Y-145998571D01*
X91158476Y-146046190D01*
X91444190Y-144149047D02*
X90944190Y-144149047D01*
X90944190Y-144030000D01*
X90968000Y-143958571D01*
X91015619Y-143910952D01*
X91063238Y-143887143D01*
X91158476Y-143863333D01*
X91229905Y-143863333D01*
X91325143Y-143887143D01*
X91372762Y-143910952D01*
X91420381Y-143958571D01*
X91444190Y-144030000D01*
X91444190Y-144149047D01*
X90944190Y-143696666D02*
X90944190Y-143363333D01*
X91444190Y-143577619D01*
X91444190Y-141609047D02*
X90944190Y-141609047D01*
X90944190Y-141490000D01*
X90968000Y-141418571D01*
X91015619Y-141370952D01*
X91063238Y-141347143D01*
X91158476Y-141323333D01*
X91229905Y-141323333D01*
X91325143Y-141347143D01*
X91372762Y-141370952D01*
X91420381Y-141418571D01*
X91444190Y-141490000D01*
X91444190Y-141609047D01*
X90944190Y-140894762D02*
X90944190Y-140990000D01*
X90968000Y-141037619D01*
X90991810Y-141061428D01*
X91063238Y-141109047D01*
X91158476Y-141132857D01*
X91348952Y-141132857D01*
X91396571Y-141109047D01*
X91420381Y-141085238D01*
X91444190Y-141037619D01*
X91444190Y-140942381D01*
X91420381Y-140894762D01*
X91396571Y-140870952D01*
X91348952Y-140847143D01*
X91229905Y-140847143D01*
X91182286Y-140870952D01*
X91158476Y-140894762D01*
X91134667Y-140942381D01*
X91134667Y-141037619D01*
X91158476Y-141085238D01*
X91182286Y-141109047D01*
X91229905Y-141132857D01*
X91444190Y-139069047D02*
X90944190Y-139069047D01*
X90944190Y-138950000D01*
X90968000Y-138878571D01*
X91015619Y-138830952D01*
X91063238Y-138807143D01*
X91158476Y-138783333D01*
X91229905Y-138783333D01*
X91325143Y-138807143D01*
X91372762Y-138830952D01*
X91420381Y-138878571D01*
X91444190Y-138950000D01*
X91444190Y-139069047D01*
X90944190Y-138330952D02*
X90944190Y-138569047D01*
X91182286Y-138592857D01*
X91158476Y-138569047D01*
X91134667Y-138521428D01*
X91134667Y-138402381D01*
X91158476Y-138354762D01*
X91182286Y-138330952D01*
X91229905Y-138307143D01*
X91348952Y-138307143D01*
X91396571Y-138330952D01*
X91420381Y-138354762D01*
X91444190Y-138402381D01*
X91444190Y-138521428D01*
X91420381Y-138569047D01*
X91396571Y-138592857D01*
X91444190Y-136529047D02*
X90944190Y-136529047D01*
X90944190Y-136410000D01*
X90968000Y-136338571D01*
X91015619Y-136290952D01*
X91063238Y-136267143D01*
X91158476Y-136243333D01*
X91229905Y-136243333D01*
X91325143Y-136267143D01*
X91372762Y-136290952D01*
X91420381Y-136338571D01*
X91444190Y-136410000D01*
X91444190Y-136529047D01*
X90944190Y-135933809D02*
X90944190Y-135886190D01*
X90968000Y-135838571D01*
X90991810Y-135814762D01*
X91039429Y-135790952D01*
X91134667Y-135767143D01*
X91253714Y-135767143D01*
X91348952Y-135790952D01*
X91396571Y-135814762D01*
X91420381Y-135838571D01*
X91444190Y-135886190D01*
X91444190Y-135933809D01*
X91420381Y-135981428D01*
X91396571Y-136005238D01*
X91348952Y-136029047D01*
X91253714Y-136052857D01*
X91134667Y-136052857D01*
X91039429Y-136029047D01*
X90991810Y-136005238D01*
X90968000Y-135981428D01*
X90944190Y-135933809D01*
X91301333Y-133977142D02*
X91301333Y-133739047D01*
X91444190Y-134024761D02*
X90944190Y-133858094D01*
X91444190Y-133691428D01*
X90944190Y-133429523D02*
X90944190Y-133381904D01*
X90968000Y-133334285D01*
X90991810Y-133310476D01*
X91039429Y-133286666D01*
X91134667Y-133262857D01*
X91253714Y-133262857D01*
X91348952Y-133286666D01*
X91396571Y-133310476D01*
X91420381Y-133334285D01*
X91444190Y-133381904D01*
X91444190Y-133429523D01*
X91420381Y-133477142D01*
X91396571Y-133500952D01*
X91348952Y-133524761D01*
X91253714Y-133548571D01*
X91134667Y-133548571D01*
X91039429Y-133524761D01*
X90991810Y-133500952D01*
X90968000Y-133477142D01*
X90944190Y-133429523D01*
X91444190Y-131353809D02*
X91206095Y-131520476D01*
X91444190Y-131639523D02*
X90944190Y-131639523D01*
X90944190Y-131449047D01*
X90968000Y-131401428D01*
X90991810Y-131377619D01*
X91039429Y-131353809D01*
X91110857Y-131353809D01*
X91158476Y-131377619D01*
X91182286Y-131401428D01*
X91206095Y-131449047D01*
X91206095Y-131639523D01*
X91420381Y-131163333D02*
X91444190Y-131091904D01*
X91444190Y-130972857D01*
X91420381Y-130925238D01*
X91396571Y-130901428D01*
X91348952Y-130877619D01*
X91301333Y-130877619D01*
X91253714Y-130901428D01*
X91229905Y-130925238D01*
X91206095Y-130972857D01*
X91182286Y-131068095D01*
X91158476Y-131115714D01*
X91134667Y-131139523D01*
X91087048Y-131163333D01*
X91039429Y-131163333D01*
X90991810Y-131139523D01*
X90968000Y-131115714D01*
X90944190Y-131068095D01*
X90944190Y-130949047D01*
X90968000Y-130877619D01*
X90944190Y-130734762D02*
X90944190Y-130449048D01*
X91444190Y-130591905D02*
X90944190Y-130591905D01*
D11*
X97417143Y-147121666D02*
X97464762Y-147169285D01*
X97512381Y-147312142D01*
X97512381Y-147407380D01*
X97464762Y-147550238D01*
X97369524Y-147645476D01*
X97274286Y-147693095D01*
X97083810Y-147740714D01*
X96940952Y-147740714D01*
X96750476Y-147693095D01*
X96655238Y-147645476D01*
X96560000Y-147550238D01*
X96512381Y-147407380D01*
X96512381Y-147312142D01*
X96560000Y-147169285D01*
X96607619Y-147121666D01*
X97512381Y-146169285D02*
X97512381Y-146740714D01*
X97512381Y-146455000D02*
X96512381Y-146455000D01*
X96655238Y-146550238D01*
X96750476Y-146645476D01*
X96798095Y-146740714D01*
X99322143Y-153471666D02*
X99369762Y-153519285D01*
X99417381Y-153662142D01*
X99417381Y-153757380D01*
X99369762Y-153900238D01*
X99274524Y-153995476D01*
X99179286Y-154043095D01*
X98988810Y-154090714D01*
X98845952Y-154090714D01*
X98655476Y-154043095D01*
X98560238Y-153995476D01*
X98465000Y-153900238D01*
X98417381Y-153757380D01*
X98417381Y-153662142D01*
X98465000Y-153519285D01*
X98512619Y-153471666D01*
X98512619Y-153090714D02*
X98465000Y-153043095D01*
X98417381Y-152947857D01*
X98417381Y-152709761D01*
X98465000Y-152614523D01*
X98512619Y-152566904D01*
X98607857Y-152519285D01*
X98703095Y-152519285D01*
X98845952Y-152566904D01*
X99417381Y-153138333D01*
X99417381Y-152519285D01*
X102497143Y-153471666D02*
X102544762Y-153519285D01*
X102592381Y-153662142D01*
X102592381Y-153757380D01*
X102544762Y-153900238D01*
X102449524Y-153995476D01*
X102354286Y-154043095D01*
X102163810Y-154090714D01*
X102020952Y-154090714D01*
X101830476Y-154043095D01*
X101735238Y-153995476D01*
X101640000Y-153900238D01*
X101592381Y-153757380D01*
X101592381Y-153662142D01*
X101640000Y-153519285D01*
X101687619Y-153471666D01*
X101592381Y-153138333D02*
X101592381Y-152519285D01*
X101973333Y-152852619D01*
X101973333Y-152709761D01*
X102020952Y-152614523D01*
X102068571Y-152566904D01*
X102163810Y-152519285D01*
X102401905Y-152519285D01*
X102497143Y-152566904D01*
X102544762Y-152614523D01*
X102592381Y-152709761D01*
X102592381Y-152995476D01*
X102544762Y-153090714D01*
X102497143Y-153138333D01*
X106656381Y-124198095D02*
X105656381Y-124198095D01*
X105656381Y-123817142D01*
X105704000Y-123721904D01*
X105751619Y-123674285D01*
X105846857Y-123626666D01*
X105989714Y-123626666D01*
X106084952Y-123674285D01*
X106132571Y-123721904D01*
X106180190Y-123817142D01*
X106180190Y-124198095D01*
X106656381Y-122674285D02*
X106656381Y-123245714D01*
X106656381Y-122960000D02*
X105656381Y-122960000D01*
X105799238Y-123055238D01*
X105894476Y-123150476D01*
X105942095Y-123245714D01*
X91559334Y-140930381D02*
X91226000Y-140454190D01*
X90987905Y-140930381D02*
X90987905Y-139930381D01*
X91368858Y-139930381D01*
X91464096Y-139978000D01*
X91511715Y-140025619D01*
X91559334Y-140120857D01*
X91559334Y-140263714D01*
X91511715Y-140358952D01*
X91464096Y-140406571D01*
X91368858Y-140454190D01*
X90987905Y-140454190D01*
X92511715Y-140930381D02*
X91940286Y-140930381D01*
X92226000Y-140930381D02*
X92226000Y-139930381D01*
X92130762Y-140073238D01*
X92035524Y-140168476D01*
X91940286Y-140216095D01*
X97528334Y-139152381D02*
X97195000Y-138676190D01*
X96956905Y-139152381D02*
X96956905Y-138152381D01*
X97337858Y-138152381D01*
X97433096Y-138200000D01*
X97480715Y-138247619D01*
X97528334Y-138342857D01*
X97528334Y-138485714D01*
X97480715Y-138580952D01*
X97433096Y-138628571D01*
X97337858Y-138676190D01*
X96956905Y-138676190D01*
X97909286Y-138247619D02*
X97956905Y-138200000D01*
X98052143Y-138152381D01*
X98290239Y-138152381D01*
X98385477Y-138200000D01*
X98433096Y-138247619D01*
X98480715Y-138342857D01*
X98480715Y-138438095D01*
X98433096Y-138580952D01*
X97861667Y-139152381D01*
X98480715Y-139152381D01*
X114101905Y-128992381D02*
X114101905Y-127992381D01*
X114482858Y-127992381D01*
X114578096Y-128040000D01*
X114625715Y-128087619D01*
X114673334Y-128182857D01*
X114673334Y-128325714D01*
X114625715Y-128420952D01*
X114578096Y-128468571D01*
X114482858Y-128516190D01*
X114101905Y-128516190D01*
X115006667Y-127992381D02*
X115625715Y-127992381D01*
X115292381Y-128373333D01*
X115435239Y-128373333D01*
X115530477Y-128420952D01*
X115578096Y-128468571D01*
X115625715Y-128563810D01*
X115625715Y-128801905D01*
X115578096Y-128897143D01*
X115530477Y-128944762D01*
X115435239Y-128992381D01*
X115149524Y-128992381D01*
X115054286Y-128944762D01*
X115006667Y-128897143D01*
X86161905Y-128992381D02*
X86161905Y-127992381D01*
X86542858Y-127992381D01*
X86638096Y-128040000D01*
X86685715Y-128087619D01*
X86733334Y-128182857D01*
X86733334Y-128325714D01*
X86685715Y-128420952D01*
X86638096Y-128468571D01*
X86542858Y-128516190D01*
X86161905Y-128516190D01*
X87114286Y-128087619D02*
X87161905Y-128040000D01*
X87257143Y-127992381D01*
X87495239Y-127992381D01*
X87590477Y-128040000D01*
X87638096Y-128087619D01*
X87685715Y-128182857D01*
X87685715Y-128278095D01*
X87638096Y-128420952D01*
X87066667Y-128992381D01*
X87685715Y-128992381D01*
X97782381Y-147081905D02*
X98591905Y-147081905D01*
X98687143Y-147034286D01*
X98734762Y-146986667D01*
X98782381Y-146891429D01*
X98782381Y-146700952D01*
X98734762Y-146605714D01*
X98687143Y-146558095D01*
X98591905Y-146510476D01*
X97782381Y-146510476D01*
X97877619Y-146081905D02*
X97830000Y-146034286D01*
X97782381Y-145939048D01*
X97782381Y-145700952D01*
X97830000Y-145605714D01*
X97877619Y-145558095D01*
X97972857Y-145510476D01*
X98068095Y-145510476D01*
X98210952Y-145558095D01*
X98782381Y-146129524D01*
X98782381Y-145510476D01*
X105323641Y-145761105D02*
X106133165Y-145761105D01*
X106228403Y-145713486D01*
X106276022Y-145665867D01*
X106323641Y-145570629D01*
X106323641Y-145380152D01*
X106276022Y-145284914D01*
X106228403Y-145237295D01*
X106133165Y-145189676D01*
X105323641Y-145189676D01*
X105323641Y-144808724D02*
X105323641Y-144189676D01*
X105704593Y-144523010D01*
X105704593Y-144380152D01*
X105752212Y-144284914D01*
X105799831Y-144237295D01*
X105895070Y-144189676D01*
X106133165Y-144189676D01*
X106228403Y-144237295D01*
X106276022Y-144284914D01*
X106323641Y-144380152D01*
X106323641Y-144665867D01*
X106276022Y-144761105D01*
X106228403Y-144808724D01*
X113601905Y-146752381D02*
X113601905Y-145752381D01*
X113982858Y-145752381D01*
X114078096Y-145800000D01*
X114125715Y-145847619D01*
X114173334Y-145942857D01*
X114173334Y-146085714D01*
X114125715Y-146180952D01*
X114078096Y-146228571D01*
X113982858Y-146276190D01*
X113601905Y-146276190D01*
X115125715Y-145800000D02*
X115030477Y-145752381D01*
X114887620Y-145752381D01*
X114744762Y-145800000D01*
X114649524Y-145895238D01*
X114601905Y-145990476D01*
X114554286Y-146180952D01*
X114554286Y-146323810D01*
X114601905Y-146514286D01*
X114649524Y-146609524D01*
X114744762Y-146704762D01*
X114887620Y-146752381D01*
X114982858Y-146752381D01*
X115125715Y-146704762D01*
X115173334Y-146657143D01*
X115173334Y-146323810D01*
X114982858Y-146323810D01*
X116125715Y-146752381D02*
X115554286Y-146752381D01*
X115840000Y-146752381D02*
X115840000Y-145752381D01*
X115744762Y-145895238D01*
X115649524Y-145990476D01*
X115554286Y-146038095D01*
X85661905Y-149292381D02*
X85661905Y-148292381D01*
X86042858Y-148292381D01*
X86138096Y-148340000D01*
X86185715Y-148387619D01*
X86233334Y-148482857D01*
X86233334Y-148625714D01*
X86185715Y-148720952D01*
X86138096Y-148768571D01*
X86042858Y-148816190D01*
X85661905Y-148816190D01*
X87185715Y-148340000D02*
X87090477Y-148292381D01*
X86947620Y-148292381D01*
X86804762Y-148340000D01*
X86709524Y-148435238D01*
X86661905Y-148530476D01*
X86614286Y-148720952D01*
X86614286Y-148863810D01*
X86661905Y-149054286D01*
X86709524Y-149149524D01*
X86804762Y-149244762D01*
X86947620Y-149292381D01*
X87042858Y-149292381D01*
X87185715Y-149244762D01*
X87233334Y-149197143D01*
X87233334Y-148863810D01*
X87042858Y-148863810D01*
X87614286Y-148387619D02*
X87661905Y-148340000D01*
X87757143Y-148292381D01*
X87995239Y-148292381D01*
X88090477Y-148340000D01*
X88138096Y-148387619D01*
X88185715Y-148482857D01*
X88185715Y-148578095D01*
X88138096Y-148720952D01*
X87566667Y-149292381D01*
X88185715Y-149292381D01*
X85733333Y-146752381D02*
X85733333Y-145752381D01*
X86114286Y-145752381D01*
X86209524Y-145800000D01*
X86257143Y-145847619D01*
X86304762Y-145942857D01*
X86304762Y-146085714D01*
X86257143Y-146180952D01*
X86209524Y-146228571D01*
X86114286Y-146276190D01*
X85733333Y-146276190D01*
X86590476Y-145752381D02*
X86923809Y-146752381D01*
X87257143Y-145752381D01*
X88114286Y-146752381D02*
X87542857Y-146752381D01*
X87828571Y-146752381D02*
X87828571Y-145752381D01*
X87733333Y-145895238D01*
X87638095Y-145990476D01*
X87542857Y-146038095D01*
X113673333Y-149292381D02*
X113673333Y-148292381D01*
X114054286Y-148292381D01*
X114149524Y-148340000D01*
X114197143Y-148387619D01*
X114244762Y-148482857D01*
X114244762Y-148625714D01*
X114197143Y-148720952D01*
X114149524Y-148768571D01*
X114054286Y-148816190D01*
X113673333Y-148816190D01*
X114530476Y-148292381D02*
X114863809Y-149292381D01*
X115197143Y-148292381D01*
X115482857Y-148387619D02*
X115530476Y-148340000D01*
X115625714Y-148292381D01*
X115863810Y-148292381D01*
X115959048Y-148340000D01*
X116006667Y-148387619D01*
X116054286Y-148482857D01*
X116054286Y-148578095D01*
X116006667Y-148720952D01*
X115435238Y-149292381D01*
X116054286Y-149292381D01*
M02*
