G04 #@! TF.FileFunction,Copper,L1,Top,Signal*
%FSLAX46Y46*%
G04 Gerber Fmt 4.6, Leading zero omitted, Abs format (unit mm)*
G04 Created by KiCad (PCBNEW 4.0.4+e1-6308~48~ubuntu16.04.1-stable) date Wed Dec 14 21:01:20 2016*
%MOMM*%
%LPD*%
G01*
G04 APERTURE LIST*
%ADD10C,0.100000*%
%ADD11O,2.000000X2.000000*%
%ADD12R,0.750000X1.200000*%
%ADD13R,2.032000X2.032000*%
%ADD14O,2.032000X2.032000*%
%ADD15R,1.200000X0.900000*%
%ADD16R,2.032000X1.727200*%
%ADD17O,2.032000X1.727200*%
%ADD18C,2.000000*%
%ADD19R,2.501900X1.000760*%
%ADD20R,4.000500X1.998980*%
%ADD21R,2.235200X2.235200*%
%ADD22C,0.600000*%
%ADD23C,1.000000*%
%ADD24C,0.250000*%
%ADD25C,0.254000*%
G04 APERTURE END LIST*
D10*
D11*
X86900000Y-128540000D03*
X114840000Y-128540000D03*
X117380000Y-126000000D03*
X114840000Y-126000000D03*
X86900000Y-126000000D03*
X84360000Y-126000000D03*
X86900000Y-105680000D03*
X86900000Y-108220000D03*
X86900000Y-110760000D03*
X84360000Y-110760000D03*
X84360000Y-108220000D03*
X84360000Y-105680000D03*
X84360000Y-98060000D03*
X84360000Y-100600000D03*
X84360000Y-103140000D03*
X86900000Y-103140000D03*
X86900000Y-100600000D03*
X86900000Y-98060000D03*
X86900000Y-113300000D03*
X86900000Y-115840000D03*
X86900000Y-118380000D03*
X84360000Y-118380000D03*
X84360000Y-115840000D03*
X84360000Y-113300000D03*
X84360000Y-120920000D03*
X84360000Y-123460000D03*
X86900000Y-123460000D03*
X86900000Y-120920000D03*
X86900000Y-90440000D03*
X86900000Y-92980000D03*
X86900000Y-95520000D03*
X84360000Y-95520000D03*
X84360000Y-92980000D03*
X84360000Y-90440000D03*
X84360000Y-82820000D03*
X84360000Y-85360000D03*
X84360000Y-87900000D03*
X86900000Y-87900000D03*
X86900000Y-85360000D03*
X86900000Y-82820000D03*
X86900000Y-67580000D03*
X86900000Y-70120000D03*
X86900000Y-72660000D03*
X84360000Y-72660000D03*
X84360000Y-70120000D03*
X84360000Y-67580000D03*
X84360000Y-75200000D03*
X84360000Y-77740000D03*
X84360000Y-80280000D03*
X86900000Y-80280000D03*
X86900000Y-77740000D03*
X86900000Y-75200000D03*
X86900000Y-62500000D03*
X86900000Y-65040000D03*
X84360000Y-65040000D03*
X84360000Y-62500000D03*
X89440000Y-62500000D03*
X89440000Y-65040000D03*
X91980000Y-65040000D03*
X91980000Y-62500000D03*
X97060000Y-62500000D03*
X97060000Y-65040000D03*
X94520000Y-65040000D03*
X94520000Y-62500000D03*
X104680000Y-62500000D03*
X104680000Y-65040000D03*
X107220000Y-65040000D03*
X107220000Y-62500000D03*
X102140000Y-62500000D03*
X102140000Y-65040000D03*
X99600000Y-65040000D03*
X99600000Y-62500000D03*
X114840000Y-62500000D03*
X114840000Y-65040000D03*
X117380000Y-65040000D03*
X117380000Y-62500000D03*
X109760000Y-62500000D03*
X109760000Y-65040000D03*
X112300000Y-65040000D03*
X112300000Y-62500000D03*
X112300000Y-75200000D03*
X112300000Y-77740000D03*
X112300000Y-80280000D03*
X109760000Y-80280000D03*
X109760000Y-77740000D03*
X109760000Y-75200000D03*
X117380000Y-75200000D03*
X117380000Y-77740000D03*
X117380000Y-80280000D03*
X114840000Y-80280000D03*
X114840000Y-77740000D03*
X114840000Y-75200000D03*
X99600000Y-75200000D03*
X99600000Y-77740000D03*
X99600000Y-80280000D03*
X102140000Y-80280000D03*
X102140000Y-77740000D03*
X102140000Y-75200000D03*
X107220000Y-75200000D03*
X107220000Y-77740000D03*
X107220000Y-80280000D03*
X104680000Y-80280000D03*
X104680000Y-77740000D03*
X104680000Y-75200000D03*
X94520000Y-75200000D03*
X94520000Y-77740000D03*
X94520000Y-80280000D03*
X97060000Y-80280000D03*
X97060000Y-77740000D03*
X97060000Y-75200000D03*
X91980000Y-75200000D03*
X91980000Y-77740000D03*
X91980000Y-80280000D03*
X89440000Y-80280000D03*
X89440000Y-77740000D03*
X89440000Y-75200000D03*
X89440000Y-67580000D03*
X89440000Y-70120000D03*
X89440000Y-72660000D03*
X91980000Y-72660000D03*
X91980000Y-70120000D03*
X91980000Y-67580000D03*
X97060000Y-67580000D03*
X97060000Y-70120000D03*
X97060000Y-72660000D03*
X94520000Y-72660000D03*
X94520000Y-70120000D03*
X94520000Y-67580000D03*
X104680000Y-67580000D03*
X104680000Y-70120000D03*
X104680000Y-72660000D03*
X107220000Y-72660000D03*
X107220000Y-70120000D03*
X107220000Y-67580000D03*
X102140000Y-67580000D03*
X102140000Y-70120000D03*
X102140000Y-72660000D03*
X99600000Y-72660000D03*
X99600000Y-70120000D03*
X99600000Y-67580000D03*
X114840000Y-67580000D03*
X114840000Y-70120000D03*
X114840000Y-72660000D03*
X117380000Y-72660000D03*
X117380000Y-70120000D03*
X117380000Y-67580000D03*
X109760000Y-67580000D03*
X109760000Y-70120000D03*
X109760000Y-72660000D03*
X112300000Y-72660000D03*
X112300000Y-70120000D03*
X112300000Y-67580000D03*
X112300000Y-82820000D03*
X112300000Y-85360000D03*
X112300000Y-87900000D03*
X109760000Y-87900000D03*
X109760000Y-85360000D03*
X109760000Y-82820000D03*
X117380000Y-82820000D03*
X117380000Y-85360000D03*
X117380000Y-87900000D03*
X114840000Y-87900000D03*
X114840000Y-85360000D03*
X114840000Y-82820000D03*
X99600000Y-82820000D03*
X99600000Y-85360000D03*
X99600000Y-87900000D03*
X102140000Y-87900000D03*
X102140000Y-85360000D03*
X102140000Y-82820000D03*
X107220000Y-82820000D03*
X107220000Y-85360000D03*
X107220000Y-87900000D03*
X104680000Y-87900000D03*
X104680000Y-85360000D03*
X104680000Y-82820000D03*
X94520000Y-82820000D03*
X94520000Y-85360000D03*
X94520000Y-87900000D03*
X97060000Y-87900000D03*
X97060000Y-85360000D03*
X97060000Y-82820000D03*
X91980000Y-82820000D03*
X91980000Y-85360000D03*
X91980000Y-87900000D03*
X89440000Y-87900000D03*
X89440000Y-85360000D03*
X89440000Y-82820000D03*
X89440000Y-90440000D03*
X89440000Y-92980000D03*
X89440000Y-95520000D03*
X91980000Y-95520000D03*
X91980000Y-92980000D03*
X91980000Y-90440000D03*
X97060000Y-90440000D03*
X97060000Y-92980000D03*
X97060000Y-95520000D03*
X94520000Y-95520000D03*
X94520000Y-92980000D03*
X94520000Y-90440000D03*
X104680000Y-90440000D03*
X104680000Y-92980000D03*
X104680000Y-95520000D03*
X107220000Y-95520000D03*
X107220000Y-92980000D03*
X107220000Y-90440000D03*
X102140000Y-90440000D03*
X102140000Y-92980000D03*
X102140000Y-95520000D03*
X99600000Y-95520000D03*
X99600000Y-92980000D03*
X99600000Y-90440000D03*
X114840000Y-90440000D03*
X114840000Y-92980000D03*
X114840000Y-95520000D03*
X117380000Y-95520000D03*
X117380000Y-92980000D03*
X117380000Y-90440000D03*
X109760000Y-90440000D03*
X109760000Y-92980000D03*
X109760000Y-95520000D03*
X112300000Y-95520000D03*
X112300000Y-92980000D03*
X112300000Y-90440000D03*
X112300000Y-120920000D03*
X112300000Y-123460000D03*
X109760000Y-123460000D03*
X109760000Y-120920000D03*
X117380000Y-120920000D03*
X117380000Y-123460000D03*
X114840000Y-123460000D03*
X114840000Y-120920000D03*
X99600000Y-120920000D03*
X102140000Y-120920000D03*
X107220000Y-120920000D03*
X107220000Y-123460000D03*
X104680000Y-123460000D03*
X104680000Y-120920000D03*
X94520000Y-120920000D03*
X94520000Y-123460000D03*
X97060000Y-123460000D03*
X97060000Y-120920000D03*
X91980000Y-120920000D03*
X91980000Y-123460000D03*
X89440000Y-123460000D03*
X89440000Y-120920000D03*
X89440000Y-113300000D03*
X89440000Y-115840000D03*
X89440000Y-118380000D03*
X91980000Y-118380000D03*
X91980000Y-115840000D03*
X91980000Y-113300000D03*
X97060000Y-113300000D03*
X97060000Y-115840000D03*
X97060000Y-118380000D03*
X94520000Y-118380000D03*
X94520000Y-115840000D03*
X94520000Y-113300000D03*
X104680000Y-113300000D03*
X104680000Y-115840000D03*
X104680000Y-118380000D03*
X107220000Y-118380000D03*
X107220000Y-115840000D03*
X107220000Y-113300000D03*
X102140000Y-113300000D03*
X102140000Y-115840000D03*
X102140000Y-118380000D03*
X99600000Y-118380000D03*
X99600000Y-115840000D03*
X99600000Y-113300000D03*
X114840000Y-113300000D03*
X114840000Y-115840000D03*
X114840000Y-118380000D03*
X117380000Y-118380000D03*
X117380000Y-115840000D03*
X117380000Y-113300000D03*
X109760000Y-113300000D03*
X109760000Y-115840000D03*
X109760000Y-118380000D03*
X112300000Y-118380000D03*
X112300000Y-115840000D03*
X112300000Y-113300000D03*
X112300000Y-98060000D03*
X112300000Y-100600000D03*
X112300000Y-103140000D03*
X109760000Y-103140000D03*
X109760000Y-100600000D03*
X109760000Y-98060000D03*
X117380000Y-98060000D03*
X117380000Y-100600000D03*
X117380000Y-103140000D03*
X114840000Y-103140000D03*
X114840000Y-100600000D03*
X114840000Y-98060000D03*
X99600000Y-98060000D03*
X99600000Y-100600000D03*
X99600000Y-103140000D03*
X102140000Y-103140000D03*
X102140000Y-100600000D03*
X102140000Y-98060000D03*
X107220000Y-98060000D03*
X107220000Y-100600000D03*
X107220000Y-103140000D03*
X104680000Y-103140000D03*
X104680000Y-100600000D03*
X104680000Y-98060000D03*
X94520000Y-98060000D03*
X94520000Y-100600000D03*
X94520000Y-103140000D03*
X97060000Y-103140000D03*
X97060000Y-100600000D03*
X97060000Y-98060000D03*
X91980000Y-98060000D03*
X91980000Y-100600000D03*
X91980000Y-103140000D03*
X89440000Y-103140000D03*
X89440000Y-100600000D03*
X89440000Y-98060000D03*
X89440000Y-105680000D03*
X89440000Y-108220000D03*
X89440000Y-110760000D03*
X91980000Y-110760000D03*
X91980000Y-108220000D03*
X91980000Y-105680000D03*
X97060000Y-105680000D03*
X97060000Y-108220000D03*
X97060000Y-110760000D03*
X94520000Y-110760000D03*
X94520000Y-108220000D03*
X94520000Y-105680000D03*
X104680000Y-105680000D03*
X104680000Y-108220000D03*
X104680000Y-110760000D03*
X107220000Y-110760000D03*
X107220000Y-108220000D03*
X107220000Y-105680000D03*
X102140000Y-105680000D03*
X102140000Y-108220000D03*
X102140000Y-110760000D03*
X99600000Y-110760000D03*
X99600000Y-108220000D03*
X99600000Y-105680000D03*
X114840000Y-105680000D03*
X114840000Y-108220000D03*
X114840000Y-110760000D03*
X117380000Y-110760000D03*
X117380000Y-108220000D03*
X117380000Y-105680000D03*
X109760000Y-105680000D03*
X109760000Y-108220000D03*
X109760000Y-110760000D03*
X112300000Y-110760000D03*
X112300000Y-108220000D03*
X112300000Y-105680000D03*
X142780000Y-105680000D03*
X142780000Y-108220000D03*
X142780000Y-110760000D03*
X140240000Y-110760000D03*
X140240000Y-108220000D03*
X140240000Y-105680000D03*
X147860000Y-105680000D03*
X147860000Y-108220000D03*
X147860000Y-110760000D03*
X145320000Y-110760000D03*
X145320000Y-108220000D03*
X145320000Y-105680000D03*
X130080000Y-105680000D03*
X130080000Y-108220000D03*
X130080000Y-110760000D03*
X132620000Y-110760000D03*
X132620000Y-108220000D03*
X132620000Y-105680000D03*
X137700000Y-105680000D03*
X137700000Y-108220000D03*
X137700000Y-110760000D03*
X135160000Y-110760000D03*
X135160000Y-108220000D03*
X135160000Y-105680000D03*
X125000000Y-105680000D03*
X125000000Y-108220000D03*
X125000000Y-110760000D03*
X127540000Y-110760000D03*
X127540000Y-108220000D03*
X127540000Y-105680000D03*
X122460000Y-105680000D03*
X122460000Y-108220000D03*
X122460000Y-110760000D03*
X119920000Y-110760000D03*
X119920000Y-108220000D03*
X119920000Y-105680000D03*
X119920000Y-98060000D03*
X119920000Y-100600000D03*
X119920000Y-103140000D03*
X122460000Y-103140000D03*
X122460000Y-100600000D03*
X122460000Y-98060000D03*
X127540000Y-98060000D03*
X127540000Y-100600000D03*
X127540000Y-103140000D03*
X125000000Y-103140000D03*
X125000000Y-100600000D03*
X125000000Y-98060000D03*
X135160000Y-98060000D03*
X135160000Y-100600000D03*
X135160000Y-103140000D03*
X137700000Y-103140000D03*
X137700000Y-100600000D03*
X137700000Y-98060000D03*
X132620000Y-98060000D03*
X132620000Y-100600000D03*
X132620000Y-103140000D03*
X130080000Y-103140000D03*
X130080000Y-100600000D03*
X130080000Y-98060000D03*
X145320000Y-98060000D03*
X145320000Y-100600000D03*
X145320000Y-103140000D03*
X147860000Y-103140000D03*
X147860000Y-100600000D03*
X147860000Y-98060000D03*
X140240000Y-98060000D03*
X140240000Y-100600000D03*
X140240000Y-103140000D03*
X142780000Y-103140000D03*
X142780000Y-100600000D03*
X142780000Y-98060000D03*
X142780000Y-113300000D03*
X142780000Y-115840000D03*
X142780000Y-118380000D03*
X140240000Y-118380000D03*
X140240000Y-115840000D03*
X140240000Y-113300000D03*
X147860000Y-113300000D03*
X147860000Y-115840000D03*
X147860000Y-118380000D03*
X145320000Y-118380000D03*
X145320000Y-115840000D03*
X145320000Y-113300000D03*
X130080000Y-113300000D03*
X130080000Y-115840000D03*
X130080000Y-118380000D03*
X132620000Y-118380000D03*
X132620000Y-115840000D03*
X132620000Y-113300000D03*
X137700000Y-113300000D03*
X137700000Y-115840000D03*
X137700000Y-118380000D03*
X135160000Y-118380000D03*
X135160000Y-115840000D03*
X135160000Y-113300000D03*
X125000000Y-113300000D03*
X125000000Y-115840000D03*
X125000000Y-118380000D03*
X127540000Y-118380000D03*
X127540000Y-115840000D03*
X127540000Y-113300000D03*
X122460000Y-113300000D03*
X122460000Y-115840000D03*
X122460000Y-118380000D03*
X119920000Y-118380000D03*
X119920000Y-115840000D03*
X119920000Y-113300000D03*
X119920000Y-120920000D03*
X119920000Y-123460000D03*
X119920000Y-126000000D03*
X122460000Y-126000000D03*
X122460000Y-123460000D03*
X122460000Y-120920000D03*
X127540000Y-120920000D03*
X127540000Y-123460000D03*
X127540000Y-126000000D03*
X125000000Y-126000000D03*
X125000000Y-123460000D03*
X125000000Y-120920000D03*
X135160000Y-120920000D03*
X135160000Y-123460000D03*
X135160000Y-126000000D03*
X137700000Y-126000000D03*
X137700000Y-123460000D03*
X137700000Y-120920000D03*
X132620000Y-120920000D03*
X132620000Y-123460000D03*
X132620000Y-126000000D03*
X130080000Y-126000000D03*
X130080000Y-123460000D03*
X130080000Y-120920000D03*
X145320000Y-120920000D03*
X145320000Y-123460000D03*
X145320000Y-126000000D03*
X147860000Y-126000000D03*
X147860000Y-123460000D03*
X147860000Y-120920000D03*
X140240000Y-120920000D03*
X140240000Y-123460000D03*
X140240000Y-126000000D03*
X142780000Y-126000000D03*
X142780000Y-123460000D03*
X142780000Y-120920000D03*
X142780000Y-90440000D03*
X142780000Y-92980000D03*
X142780000Y-95520000D03*
X140240000Y-95520000D03*
X140240000Y-92980000D03*
X140240000Y-90440000D03*
X147860000Y-90440000D03*
X147860000Y-92980000D03*
X147860000Y-95520000D03*
X145320000Y-95520000D03*
X145320000Y-92980000D03*
X145320000Y-90440000D03*
X130080000Y-90440000D03*
X130080000Y-92980000D03*
X130080000Y-95520000D03*
X132620000Y-95520000D03*
X132620000Y-92980000D03*
X132620000Y-90440000D03*
X137700000Y-90440000D03*
X137700000Y-92980000D03*
X137700000Y-95520000D03*
X135160000Y-95520000D03*
X135160000Y-92980000D03*
X135160000Y-90440000D03*
X125000000Y-90440000D03*
X125000000Y-92980000D03*
X125000000Y-95520000D03*
X127540000Y-95520000D03*
X127540000Y-92980000D03*
X127540000Y-90440000D03*
X122460000Y-90440000D03*
X122460000Y-92980000D03*
X122460000Y-95520000D03*
X119920000Y-95520000D03*
X119920000Y-92980000D03*
X119920000Y-90440000D03*
X119920000Y-82820000D03*
X119920000Y-85360000D03*
X119920000Y-87900000D03*
X122460000Y-87900000D03*
X122460000Y-85360000D03*
X122460000Y-82820000D03*
X127540000Y-82820000D03*
X127540000Y-85360000D03*
X127540000Y-87900000D03*
X125000000Y-87900000D03*
X125000000Y-85360000D03*
X125000000Y-82820000D03*
X135160000Y-82820000D03*
X135160000Y-85360000D03*
X135160000Y-87900000D03*
X137700000Y-87900000D03*
X137700000Y-85360000D03*
X137700000Y-82820000D03*
X132620000Y-82820000D03*
X132620000Y-85360000D03*
X132620000Y-87900000D03*
X130080000Y-87900000D03*
X130080000Y-85360000D03*
X130080000Y-82820000D03*
X145320000Y-82820000D03*
X145320000Y-85360000D03*
X145320000Y-87900000D03*
X147860000Y-87900000D03*
X147860000Y-85360000D03*
X147860000Y-82820000D03*
X140240000Y-82820000D03*
X140240000Y-85360000D03*
X140240000Y-87900000D03*
X142780000Y-87900000D03*
X142780000Y-85360000D03*
X142780000Y-82820000D03*
X142780000Y-67580000D03*
X142780000Y-70120000D03*
X142780000Y-72660000D03*
X140240000Y-72660000D03*
X140240000Y-70120000D03*
X140240000Y-67580000D03*
X147860000Y-67580000D03*
X147860000Y-70120000D03*
X147860000Y-72660000D03*
X145320000Y-72660000D03*
X145320000Y-70120000D03*
X145320000Y-67580000D03*
X130080000Y-67580000D03*
X130080000Y-70120000D03*
X130080000Y-72660000D03*
X132620000Y-72660000D03*
X132620000Y-70120000D03*
X132620000Y-67580000D03*
X137700000Y-67580000D03*
X137700000Y-70120000D03*
X137700000Y-72660000D03*
X135160000Y-72660000D03*
X135160000Y-70120000D03*
X135160000Y-67580000D03*
X125000000Y-67580000D03*
X125000000Y-70120000D03*
X125000000Y-72660000D03*
X127540000Y-72660000D03*
X127540000Y-70120000D03*
X127540000Y-67580000D03*
X122460000Y-67580000D03*
X122460000Y-70120000D03*
X122460000Y-72660000D03*
X119920000Y-72660000D03*
X119920000Y-70120000D03*
X119920000Y-67580000D03*
X119920000Y-75200000D03*
X119920000Y-77740000D03*
X119920000Y-80280000D03*
X122460000Y-80280000D03*
X122460000Y-77740000D03*
X122460000Y-75200000D03*
X127540000Y-75200000D03*
X127540000Y-77740000D03*
X127540000Y-80280000D03*
X125000000Y-80280000D03*
X125000000Y-77740000D03*
X125000000Y-75200000D03*
X135160000Y-75200000D03*
X135160000Y-77740000D03*
X135160000Y-80280000D03*
X137700000Y-80280000D03*
X137700000Y-77740000D03*
X137700000Y-75200000D03*
X132620000Y-75200000D03*
X132620000Y-77740000D03*
X132620000Y-80280000D03*
X130080000Y-80280000D03*
X130080000Y-77740000D03*
X130080000Y-75200000D03*
X145320000Y-75200000D03*
X145320000Y-77740000D03*
X145320000Y-80280000D03*
X147860000Y-80280000D03*
X147860000Y-77740000D03*
X147860000Y-75200000D03*
X140240000Y-75200000D03*
X140240000Y-77740000D03*
X140240000Y-80280000D03*
X142780000Y-80280000D03*
X142780000Y-77740000D03*
X142780000Y-75200000D03*
X142780000Y-62500000D03*
X142780000Y-65040000D03*
X140240000Y-65040000D03*
X140240000Y-62500000D03*
X147860000Y-62500000D03*
X147860000Y-65040000D03*
X145320000Y-65040000D03*
X145320000Y-62500000D03*
X130080000Y-62500000D03*
X130080000Y-65040000D03*
X132620000Y-65040000D03*
X132620000Y-62500000D03*
X137700000Y-62500000D03*
X137700000Y-65040000D03*
X135160000Y-65040000D03*
X135160000Y-62500000D03*
X125000000Y-62500000D03*
X125000000Y-65040000D03*
X127540000Y-65040000D03*
X127540000Y-62500000D03*
X122460000Y-62500000D03*
X122460000Y-65040000D03*
X119920000Y-65040000D03*
X119920000Y-62500000D03*
X53880000Y-62500000D03*
X53880000Y-65040000D03*
X56420000Y-65040000D03*
X56420000Y-62500000D03*
X61500000Y-62500000D03*
X61500000Y-65040000D03*
X58960000Y-65040000D03*
X58960000Y-62500000D03*
X69120000Y-62500000D03*
X69120000Y-65040000D03*
X71660000Y-65040000D03*
X71660000Y-62500000D03*
X66580000Y-62500000D03*
X66580000Y-65040000D03*
X64040000Y-65040000D03*
X64040000Y-62500000D03*
X79280000Y-62500000D03*
X79280000Y-65040000D03*
X81820000Y-65040000D03*
X81820000Y-62500000D03*
X74200000Y-62500000D03*
X74200000Y-65040000D03*
X76740000Y-65040000D03*
X76740000Y-62500000D03*
X76740000Y-75200000D03*
X76740000Y-77740000D03*
X76740000Y-80280000D03*
X74200000Y-80280000D03*
X74200000Y-77740000D03*
X74200000Y-75200000D03*
X81820000Y-75200000D03*
X81820000Y-77740000D03*
X81820000Y-80280000D03*
X79280000Y-80280000D03*
X79280000Y-77740000D03*
X79280000Y-75200000D03*
X64040000Y-75200000D03*
X64040000Y-77740000D03*
X64040000Y-80280000D03*
X66580000Y-80280000D03*
X66580000Y-77740000D03*
X66580000Y-75200000D03*
X71660000Y-75200000D03*
X71660000Y-77740000D03*
X71660000Y-80280000D03*
X69120000Y-80280000D03*
X69120000Y-77740000D03*
X69120000Y-75200000D03*
X58960000Y-75200000D03*
X58960000Y-77740000D03*
X58960000Y-80280000D03*
X61500000Y-80280000D03*
X61500000Y-77740000D03*
X61500000Y-75200000D03*
X56420000Y-75200000D03*
X56420000Y-77740000D03*
X56420000Y-80280000D03*
X53880000Y-80280000D03*
X53880000Y-77740000D03*
X53880000Y-75200000D03*
X53880000Y-67580000D03*
X53880000Y-70120000D03*
X53880000Y-72660000D03*
X56420000Y-72660000D03*
X56420000Y-70120000D03*
X56420000Y-67580000D03*
X61500000Y-67580000D03*
X61500000Y-70120000D03*
X61500000Y-72660000D03*
X58960000Y-72660000D03*
X58960000Y-70120000D03*
X58960000Y-67580000D03*
X69120000Y-67580000D03*
X69120000Y-70120000D03*
X69120000Y-72660000D03*
X71660000Y-72660000D03*
X71660000Y-70120000D03*
X71660000Y-67580000D03*
X66580000Y-67580000D03*
X66580000Y-70120000D03*
X66580000Y-72660000D03*
X64040000Y-72660000D03*
X64040000Y-70120000D03*
X64040000Y-67580000D03*
X79280000Y-67580000D03*
X79280000Y-70120000D03*
X79280000Y-72660000D03*
X81820000Y-72660000D03*
X81820000Y-70120000D03*
X81820000Y-67580000D03*
X74200000Y-67580000D03*
X74200000Y-70120000D03*
X74200000Y-72660000D03*
X76740000Y-72660000D03*
X76740000Y-70120000D03*
X76740000Y-67580000D03*
X76740000Y-82820000D03*
X76740000Y-85360000D03*
X76740000Y-87900000D03*
X74200000Y-87900000D03*
X74200000Y-85360000D03*
X74200000Y-82820000D03*
X81820000Y-82820000D03*
X81820000Y-85360000D03*
X81820000Y-87900000D03*
X79280000Y-87900000D03*
X79280000Y-85360000D03*
X79280000Y-82820000D03*
X64040000Y-82820000D03*
X64040000Y-85360000D03*
X64040000Y-87900000D03*
X66580000Y-87900000D03*
X66580000Y-85360000D03*
X66580000Y-82820000D03*
X71660000Y-82820000D03*
X71660000Y-85360000D03*
X71660000Y-87900000D03*
X69120000Y-87900000D03*
X69120000Y-85360000D03*
X69120000Y-82820000D03*
X58960000Y-82820000D03*
X58960000Y-85360000D03*
X58960000Y-87900000D03*
X61500000Y-87900000D03*
X61500000Y-85360000D03*
X61500000Y-82820000D03*
X56420000Y-82820000D03*
X56420000Y-85360000D03*
X56420000Y-87900000D03*
X53880000Y-87900000D03*
X53880000Y-85360000D03*
X53880000Y-82820000D03*
X53880000Y-90440000D03*
X53880000Y-92980000D03*
X53880000Y-95520000D03*
X56420000Y-95520000D03*
X56420000Y-92980000D03*
X56420000Y-90440000D03*
X61500000Y-90440000D03*
X61500000Y-92980000D03*
X61500000Y-95520000D03*
X58960000Y-95520000D03*
X58960000Y-92980000D03*
X58960000Y-90440000D03*
X69120000Y-90440000D03*
X69120000Y-92980000D03*
X69120000Y-95520000D03*
X71660000Y-95520000D03*
X71660000Y-92980000D03*
X71660000Y-90440000D03*
X66580000Y-90440000D03*
X66580000Y-92980000D03*
X66580000Y-95520000D03*
X64040000Y-95520000D03*
X64040000Y-92980000D03*
X64040000Y-90440000D03*
X79280000Y-90440000D03*
X79280000Y-92980000D03*
X79280000Y-95520000D03*
X81820000Y-95520000D03*
X81820000Y-92980000D03*
X81820000Y-90440000D03*
X74200000Y-90440000D03*
X74200000Y-92980000D03*
X74200000Y-95520000D03*
X76740000Y-95520000D03*
X76740000Y-92980000D03*
X76740000Y-90440000D03*
X76740000Y-120920000D03*
X76740000Y-123460000D03*
X76740000Y-126000000D03*
X74200000Y-126000000D03*
X74200000Y-123460000D03*
X74200000Y-120920000D03*
X81820000Y-120920000D03*
X81820000Y-123460000D03*
X81820000Y-126000000D03*
X79280000Y-126000000D03*
X79280000Y-123460000D03*
X79280000Y-120920000D03*
X64040000Y-120920000D03*
X64040000Y-123460000D03*
X64040000Y-126000000D03*
X66580000Y-126000000D03*
X66580000Y-123460000D03*
X66580000Y-120920000D03*
X71660000Y-120920000D03*
X71660000Y-123460000D03*
X71660000Y-126000000D03*
X69120000Y-126000000D03*
X69120000Y-123460000D03*
X69120000Y-120920000D03*
X58960000Y-120920000D03*
X58960000Y-123460000D03*
X58960000Y-126000000D03*
X61500000Y-126000000D03*
X61500000Y-123460000D03*
X61500000Y-120920000D03*
X56420000Y-120920000D03*
X56420000Y-123460000D03*
X56420000Y-126000000D03*
X53880000Y-126000000D03*
X53880000Y-123460000D03*
X53880000Y-120920000D03*
X53880000Y-113300000D03*
X53880000Y-115840000D03*
X53880000Y-118380000D03*
X56420000Y-118380000D03*
X56420000Y-115840000D03*
X56420000Y-113300000D03*
X61500000Y-113300000D03*
X61500000Y-115840000D03*
X61500000Y-118380000D03*
X58960000Y-118380000D03*
X58960000Y-115840000D03*
X58960000Y-113300000D03*
X69120000Y-113300000D03*
X69120000Y-115840000D03*
X69120000Y-118380000D03*
X71660000Y-118380000D03*
X71660000Y-115840000D03*
X71660000Y-113300000D03*
X66580000Y-113300000D03*
X66580000Y-115840000D03*
X66580000Y-118380000D03*
X64040000Y-118380000D03*
X64040000Y-115840000D03*
X64040000Y-113300000D03*
X79280000Y-113300000D03*
X79280000Y-115840000D03*
X79280000Y-118380000D03*
X81820000Y-118380000D03*
X81820000Y-115840000D03*
X81820000Y-113300000D03*
X74200000Y-113300000D03*
X74200000Y-115840000D03*
X74200000Y-118380000D03*
X76740000Y-118380000D03*
X76740000Y-115840000D03*
X76740000Y-113300000D03*
X76740000Y-98060000D03*
X76740000Y-100600000D03*
X76740000Y-103140000D03*
X74200000Y-103140000D03*
X74200000Y-100600000D03*
X74200000Y-98060000D03*
X81820000Y-98060000D03*
X81820000Y-100600000D03*
X81820000Y-103140000D03*
X79280000Y-103140000D03*
X79280000Y-100600000D03*
X79280000Y-98060000D03*
X64040000Y-98060000D03*
X64040000Y-100600000D03*
X64040000Y-103140000D03*
X66580000Y-103140000D03*
X66580000Y-100600000D03*
X66580000Y-98060000D03*
X71660000Y-98060000D03*
X71660000Y-100600000D03*
X71660000Y-103140000D03*
X69120000Y-103140000D03*
X69120000Y-100600000D03*
X69120000Y-98060000D03*
X58960000Y-98060000D03*
X58960000Y-100600000D03*
X58960000Y-103140000D03*
X61500000Y-103140000D03*
X61500000Y-100600000D03*
X61500000Y-98060000D03*
X56420000Y-98060000D03*
X56420000Y-100600000D03*
X56420000Y-103140000D03*
X53880000Y-103140000D03*
X53880000Y-100600000D03*
X53880000Y-98060000D03*
X53880000Y-105680000D03*
X53880000Y-108220000D03*
X53880000Y-110760000D03*
X56420000Y-110760000D03*
X56420000Y-108220000D03*
X56420000Y-105680000D03*
X61500000Y-105680000D03*
X61500000Y-108220000D03*
X61500000Y-110760000D03*
X58960000Y-110760000D03*
X58960000Y-108220000D03*
X58960000Y-105680000D03*
X69120000Y-105680000D03*
X69120000Y-108220000D03*
X69120000Y-110760000D03*
X71660000Y-110760000D03*
X71660000Y-108220000D03*
X71660000Y-105680000D03*
X66580000Y-105680000D03*
X66580000Y-108220000D03*
X66580000Y-110760000D03*
X64040000Y-110760000D03*
X64040000Y-108220000D03*
X64040000Y-105680000D03*
X79280000Y-105680000D03*
X79280000Y-108220000D03*
X79280000Y-110760000D03*
X81820000Y-110760000D03*
X81820000Y-108220000D03*
X81820000Y-105680000D03*
X74200000Y-105680000D03*
X74200000Y-108220000D03*
X74200000Y-110760000D03*
X76740000Y-110760000D03*
X76740000Y-108220000D03*
X76740000Y-105680000D03*
X147860000Y-136160000D03*
X147860000Y-138700000D03*
X147860000Y-141240000D03*
X147860000Y-133620000D03*
X147860000Y-131080000D03*
X147860000Y-128540000D03*
X119920000Y-136160000D03*
X119920000Y-138700000D03*
X119920000Y-141240000D03*
X117380000Y-141240000D03*
X117380000Y-138700000D03*
X117380000Y-136160000D03*
X127540000Y-136160000D03*
X127540000Y-138700000D03*
X127540000Y-141240000D03*
X130080000Y-141240000D03*
X130080000Y-138700000D03*
X130080000Y-136160000D03*
X125000000Y-136160000D03*
X125000000Y-138700000D03*
X125000000Y-141240000D03*
X122460000Y-141240000D03*
X122460000Y-138700000D03*
X122460000Y-136160000D03*
X137700000Y-136160000D03*
X137700000Y-138700000D03*
X137700000Y-141240000D03*
X140240000Y-141240000D03*
X140240000Y-138700000D03*
X140240000Y-136160000D03*
X145320000Y-136160000D03*
X145320000Y-138700000D03*
X145320000Y-141240000D03*
X142780000Y-141240000D03*
X142780000Y-138700000D03*
X142780000Y-136160000D03*
X132620000Y-136160000D03*
X132620000Y-138700000D03*
X132620000Y-141240000D03*
X135160000Y-141240000D03*
X135160000Y-138700000D03*
X135160000Y-136160000D03*
X137700000Y-128540000D03*
X137700000Y-131080000D03*
X137700000Y-133620000D03*
X135160000Y-133620000D03*
X135160000Y-131080000D03*
X135160000Y-128540000D03*
X142780000Y-128540000D03*
X142780000Y-131080000D03*
X142780000Y-133620000D03*
X140240000Y-133620000D03*
X140240000Y-131080000D03*
X140240000Y-128540000D03*
X125000000Y-128540000D03*
X125000000Y-131080000D03*
X125000000Y-133620000D03*
X127540000Y-133620000D03*
X127540000Y-131080000D03*
X127540000Y-128540000D03*
X132620000Y-128540000D03*
X132620000Y-131080000D03*
X132620000Y-133620000D03*
X130080000Y-133620000D03*
X130080000Y-131080000D03*
X130080000Y-128540000D03*
X119920000Y-128540000D03*
X119920000Y-131080000D03*
X119920000Y-133620000D03*
X122460000Y-133620000D03*
X122460000Y-131080000D03*
X122460000Y-128540000D03*
X117380000Y-128540000D03*
X117380000Y-131080000D03*
X117380000Y-133620000D03*
X145320000Y-133620000D03*
X145320000Y-131080000D03*
X145320000Y-128540000D03*
X76740000Y-136160000D03*
X76740000Y-138700000D03*
X76740000Y-141240000D03*
X74200000Y-141240000D03*
X74200000Y-138700000D03*
X74200000Y-136160000D03*
X84360000Y-136160000D03*
X84360000Y-138700000D03*
X84360000Y-141240000D03*
X81820000Y-136160000D03*
X81820000Y-138700000D03*
X81820000Y-141240000D03*
X79280000Y-141240000D03*
X79280000Y-138700000D03*
X79280000Y-136160000D03*
X64040000Y-136160000D03*
X64040000Y-138700000D03*
X64040000Y-141240000D03*
X66580000Y-141240000D03*
X66580000Y-138700000D03*
X66580000Y-136160000D03*
X71660000Y-136160000D03*
X71660000Y-138700000D03*
X71660000Y-141240000D03*
X69120000Y-141240000D03*
X69120000Y-138700000D03*
X69120000Y-136160000D03*
X58960000Y-136160000D03*
X58960000Y-138700000D03*
X58960000Y-141240000D03*
X61500000Y-141240000D03*
X61500000Y-138700000D03*
X61500000Y-136160000D03*
X56420000Y-136160000D03*
X56420000Y-138700000D03*
X56420000Y-141240000D03*
X53880000Y-141240000D03*
X53880000Y-138700000D03*
X53880000Y-136160000D03*
X53880000Y-128540000D03*
X53880000Y-131080000D03*
X53880000Y-133620000D03*
X56420000Y-133620000D03*
X56420000Y-131080000D03*
X56420000Y-128540000D03*
X61500000Y-128540000D03*
X61500000Y-131080000D03*
X61500000Y-133620000D03*
X58960000Y-133620000D03*
X58960000Y-131080000D03*
X58960000Y-128540000D03*
X69120000Y-128540000D03*
X69120000Y-131080000D03*
X69120000Y-133620000D03*
X71660000Y-133620000D03*
X71660000Y-131080000D03*
X71660000Y-128540000D03*
X66580000Y-128540000D03*
X66580000Y-131080000D03*
X66580000Y-133620000D03*
X64040000Y-133620000D03*
X64040000Y-131080000D03*
X64040000Y-128540000D03*
X79280000Y-128540000D03*
X79280000Y-131080000D03*
X79280000Y-133620000D03*
X81820000Y-133620000D03*
X81820000Y-131080000D03*
X81820000Y-128540000D03*
X84360000Y-133620000D03*
X84360000Y-131080000D03*
X84360000Y-128540000D03*
X74200000Y-128540000D03*
X74200000Y-131080000D03*
X74200000Y-133620000D03*
X76740000Y-133620000D03*
X76740000Y-131080000D03*
X76740000Y-128540000D03*
X147860000Y-143780000D03*
X147860000Y-146320000D03*
X147860000Y-148860000D03*
X117380000Y-143780000D03*
X117380000Y-146320000D03*
X117380000Y-148860000D03*
X119920000Y-148860000D03*
X119920000Y-146320000D03*
X119920000Y-143780000D03*
X125000000Y-143780000D03*
X125000000Y-146320000D03*
X125000000Y-148860000D03*
X122460000Y-148860000D03*
X122460000Y-146320000D03*
X122460000Y-143780000D03*
X132620000Y-143780000D03*
X132620000Y-146320000D03*
X132620000Y-148860000D03*
X135160000Y-148860000D03*
X135160000Y-146320000D03*
X135160000Y-143780000D03*
X130080000Y-143780000D03*
X130080000Y-146320000D03*
X130080000Y-148860000D03*
X127540000Y-148860000D03*
X127540000Y-146320000D03*
X127540000Y-143780000D03*
X142780000Y-143780000D03*
X142780000Y-146320000D03*
X142780000Y-148860000D03*
X145320000Y-148860000D03*
X145320000Y-146320000D03*
X145320000Y-143780000D03*
X137700000Y-143780000D03*
X137700000Y-146320000D03*
X137700000Y-148860000D03*
X140240000Y-148860000D03*
X140240000Y-146320000D03*
X140240000Y-143780000D03*
X76740000Y-143780000D03*
X76740000Y-146320000D03*
X76740000Y-148860000D03*
X74200000Y-148860000D03*
X74200000Y-146320000D03*
X74200000Y-143780000D03*
X84360000Y-143780000D03*
X84360000Y-146320000D03*
X84360000Y-148860000D03*
X81820000Y-143780000D03*
X81820000Y-146320000D03*
X81820000Y-148860000D03*
X79280000Y-148860000D03*
X79280000Y-146320000D03*
X79280000Y-143780000D03*
X64040000Y-143780000D03*
X64040000Y-146320000D03*
X64040000Y-148860000D03*
X66580000Y-148860000D03*
X66580000Y-146320000D03*
X66580000Y-143780000D03*
X71660000Y-143780000D03*
X71660000Y-146320000D03*
X71660000Y-148860000D03*
X69120000Y-148860000D03*
X69120000Y-146320000D03*
X69120000Y-143780000D03*
X58960000Y-143780000D03*
X58960000Y-146320000D03*
X58960000Y-148860000D03*
X61500000Y-148860000D03*
X61500000Y-146320000D03*
X61500000Y-143780000D03*
X56420000Y-143780000D03*
X56420000Y-146320000D03*
X56420000Y-148860000D03*
X53880000Y-148860000D03*
X53880000Y-146320000D03*
X53880000Y-143780000D03*
X53880000Y-151400000D03*
X53880000Y-153940000D03*
X53880000Y-156480000D03*
X56420000Y-156480000D03*
X56420000Y-153940000D03*
X56420000Y-151400000D03*
X61500000Y-151400000D03*
X61500000Y-153940000D03*
X61500000Y-156480000D03*
X58960000Y-156480000D03*
X58960000Y-153940000D03*
X58960000Y-151400000D03*
X69120000Y-151400000D03*
X69120000Y-153940000D03*
X69120000Y-156480000D03*
X71660000Y-156480000D03*
X71660000Y-153940000D03*
X71660000Y-151400000D03*
X66580000Y-151400000D03*
X66580000Y-153940000D03*
X66580000Y-156480000D03*
X64040000Y-156480000D03*
X64040000Y-153940000D03*
X64040000Y-151400000D03*
X79280000Y-151400000D03*
X79280000Y-153940000D03*
X79280000Y-156480000D03*
X81820000Y-156480000D03*
X81820000Y-153940000D03*
X81820000Y-151400000D03*
X84360000Y-156480000D03*
X84360000Y-153940000D03*
X84360000Y-151400000D03*
X74200000Y-151400000D03*
X74200000Y-153940000D03*
X74200000Y-156480000D03*
X76740000Y-156480000D03*
X76740000Y-153940000D03*
X76740000Y-151400000D03*
X137700000Y-151400000D03*
X137700000Y-153940000D03*
X137700000Y-156480000D03*
X135160000Y-156480000D03*
X135160000Y-153940000D03*
X135160000Y-151400000D03*
X145320000Y-151400000D03*
X145320000Y-153940000D03*
X145320000Y-156480000D03*
X147860000Y-156480000D03*
X147860000Y-153940000D03*
X147860000Y-151400000D03*
X142780000Y-151400000D03*
X142780000Y-153940000D03*
X142780000Y-156480000D03*
X140240000Y-156480000D03*
X140240000Y-153940000D03*
X140240000Y-151400000D03*
X125000000Y-151400000D03*
X125000000Y-153940000D03*
X125000000Y-156480000D03*
X127540000Y-156480000D03*
X127540000Y-153940000D03*
X127540000Y-151400000D03*
X132620000Y-151400000D03*
X132620000Y-153940000D03*
X132620000Y-156480000D03*
X130080000Y-156480000D03*
X130080000Y-153940000D03*
X130080000Y-151400000D03*
X119920000Y-151400000D03*
X119920000Y-153940000D03*
X119920000Y-156480000D03*
X122460000Y-156480000D03*
X122460000Y-153940000D03*
X122460000Y-151400000D03*
X117380000Y-151400000D03*
X117380000Y-153940000D03*
X117380000Y-156480000D03*
X89440000Y-131080000D03*
X89440000Y-133620000D03*
X89440000Y-136160000D03*
X89440000Y-138700000D03*
X89440000Y-141240000D03*
X89440000Y-143780000D03*
X89440000Y-146320000D03*
X89440000Y-148860000D03*
X112300000Y-148860000D03*
X112300000Y-146320000D03*
X112300000Y-143780000D03*
X112300000Y-141240000D03*
X112300000Y-138700000D03*
X112300000Y-136160000D03*
X112300000Y-133620000D03*
X112300000Y-131080000D03*
D12*
X97060000Y-151080000D03*
X97060000Y-149180000D03*
X98965000Y-151080000D03*
X98965000Y-149180000D03*
X102140000Y-151080000D03*
X102140000Y-149180000D03*
D13*
X102140000Y-123460000D03*
D14*
X99600000Y-123460000D03*
D15*
X93420000Y-140605000D03*
X95620000Y-140605000D03*
X93420000Y-138700000D03*
X95620000Y-138700000D03*
D16*
X114840000Y-131080000D03*
D17*
X114840000Y-133620000D03*
X114840000Y-136160000D03*
X114840000Y-138700000D03*
X114840000Y-141240000D03*
X114840000Y-143780000D03*
X114840000Y-146320000D03*
X114840000Y-148860000D03*
D16*
X86900000Y-148860000D03*
D17*
X86900000Y-146320000D03*
X86900000Y-143780000D03*
X86900000Y-141240000D03*
X86900000Y-138700000D03*
X86900000Y-136160000D03*
X86900000Y-133620000D03*
X86900000Y-131080000D03*
D18*
X107370000Y-136820000D03*
X104870000Y-136820000D03*
X96870000Y-136820000D03*
X94370000Y-136820000D03*
X96870000Y-155820000D03*
X94370000Y-155820000D03*
X107370000Y-155820000D03*
X104870000Y-155820000D03*
D19*
X98517960Y-143548860D03*
X98517960Y-145050000D03*
X98517960Y-146551140D03*
D20*
X102470200Y-145050000D03*
D10*
G36*
X100495350Y-146050760D02*
X99746050Y-145550380D01*
X99746050Y-144549620D01*
X100495350Y-144049240D01*
X100495350Y-146050760D01*
X100495350Y-146050760D01*
G37*
D21*
X114840000Y-151400000D03*
D13*
X86900000Y-153940000D03*
D14*
X86900000Y-156480000D03*
D21*
X86900000Y-151400000D03*
D13*
X114840000Y-153940000D03*
D14*
X114840000Y-156480000D03*
D22*
X103410000Y-150765000D03*
X100870000Y-147590000D03*
D23*
X114840000Y-151400000D02*
X108490000Y-151400000D01*
X86900000Y-156480000D02*
X86900000Y-153940000D01*
X86900000Y-153940000D02*
X91345000Y-153940000D01*
X91345000Y-153940000D02*
X94205000Y-151080000D01*
X94205000Y-151080000D02*
X97060000Y-151080000D01*
X102140000Y-123460000D02*
X102140000Y-126000000D01*
X104870000Y-128730000D02*
X102140000Y-126000000D01*
X104870000Y-128730000D02*
X104870000Y-136820000D01*
X103095000Y-151080000D02*
X102140000Y-151080000D01*
X103410000Y-150765000D02*
X103095000Y-151080000D01*
X107370000Y-155820000D02*
X104870000Y-155820000D01*
X108490000Y-146320000D02*
X108490000Y-151400000D01*
X108490000Y-151400000D02*
X108490000Y-154700000D01*
X108490000Y-154700000D02*
X107370000Y-155820000D01*
X104870000Y-136820000D02*
X104870000Y-142700000D01*
X104870000Y-142700000D02*
X105950000Y-143780000D01*
X104870000Y-136820000D02*
X107370000Y-136820000D01*
X112300000Y-146320000D02*
X114840000Y-146320000D01*
X112300000Y-146320000D02*
X108490000Y-146320000D01*
X108490000Y-146320000D02*
X105950000Y-143780000D01*
X105315000Y-143145000D02*
X98517960Y-143145000D01*
X105950000Y-143780000D02*
X105315000Y-143145000D01*
X98517960Y-143145000D02*
X98517960Y-142697960D01*
X98965000Y-151080000D02*
X102140000Y-151080000D01*
X97060000Y-151080000D02*
X98965000Y-151080000D01*
X95620000Y-140605000D02*
X96425000Y-140605000D01*
X98517960Y-142697960D02*
X98517960Y-143548860D01*
X96425000Y-140605000D02*
X98517960Y-142697960D01*
X96870000Y-155820000D02*
X94370000Y-155820000D01*
X102140000Y-149180000D02*
X103730000Y-149180000D01*
X100895000Y-155820000D02*
X96870000Y-155820000D01*
X104680000Y-152035000D02*
X100895000Y-155820000D01*
X104680000Y-150130000D02*
X104680000Y-152035000D01*
X103730000Y-149180000D02*
X104680000Y-150130000D01*
X98517960Y-145050000D02*
X100120700Y-145050000D01*
X102470200Y-145050000D02*
X100120700Y-145050000D01*
X102470200Y-145050000D02*
X98517960Y-145050000D01*
X102140000Y-149180000D02*
X102140000Y-145380200D01*
X102140000Y-145380200D02*
X102470200Y-145050000D01*
X104045000Y-145050000D02*
X102470200Y-145050000D01*
X100870000Y-147590000D02*
X98965000Y-147590000D01*
X86900000Y-151400000D02*
X86900000Y-148860000D01*
X86900000Y-148860000D02*
X89440000Y-148860000D01*
X97060000Y-149180000D02*
X98965000Y-149180000D01*
X98965000Y-149180000D02*
X98965000Y-147590000D01*
X98965000Y-147590000D02*
X98965000Y-146998180D01*
X98965000Y-146998180D02*
X98517960Y-146551140D01*
X89440000Y-148860000D02*
X94520000Y-148860000D01*
X94520000Y-148860000D02*
X96828860Y-146551140D01*
X96828860Y-146551140D02*
X98517960Y-146551140D01*
D24*
X112300000Y-141240000D02*
X114840000Y-141240000D01*
X89440000Y-141240000D02*
X86900000Y-141240000D01*
X86900000Y-138700000D02*
X89440000Y-138700000D01*
X89440000Y-136160000D02*
X86900000Y-136160000D01*
X89440000Y-146320000D02*
X86900000Y-146320000D01*
X86900000Y-143780000D02*
X89440000Y-143780000D01*
X93420000Y-138700000D02*
X93250000Y-138700000D01*
X93250000Y-138700000D02*
X91980000Y-137430000D01*
X91980000Y-136160000D02*
X89440000Y-133620000D01*
X91980000Y-137430000D02*
X91980000Y-136160000D01*
X93420000Y-140605000D02*
X93420000Y-138700000D01*
X86900000Y-133620000D02*
X89440000Y-133620000D01*
X86900000Y-131080000D02*
X89440000Y-131080000D01*
X114840000Y-133620000D02*
X112300000Y-133620000D01*
X112300000Y-136160000D02*
X114840000Y-136160000D01*
X114840000Y-138700000D02*
X112300000Y-138700000D01*
X114840000Y-143780000D02*
X112300000Y-143780000D01*
X114840000Y-148860000D02*
X112300000Y-148860000D01*
X112300000Y-131080000D02*
X114840000Y-131080000D01*
D23*
X99600000Y-123460000D02*
X99600000Y-126000000D01*
X96870000Y-128730000D02*
X99600000Y-126000000D01*
X96870000Y-128730000D02*
X96870000Y-136820000D01*
X96870000Y-136820000D02*
X96400000Y-136820000D01*
X96400000Y-136820000D02*
X95620000Y-137600000D01*
X95620000Y-138700000D02*
X95620000Y-137600000D01*
X95620000Y-137600000D02*
X94840000Y-136820000D01*
X94840000Y-136820000D02*
X94370000Y-136820000D01*
D25*
G36*
X98664960Y-146678140D02*
X98644960Y-146678140D01*
X98644960Y-147527770D01*
X98803710Y-147686520D01*
X99473000Y-147686520D01*
X99473000Y-147947771D01*
X99466310Y-147945000D01*
X99250750Y-147945000D01*
X99092000Y-148103750D01*
X99092000Y-149053000D01*
X99112000Y-149053000D01*
X99112000Y-149307000D01*
X99092000Y-149307000D01*
X99092000Y-149327000D01*
X98838000Y-149327000D01*
X98838000Y-149307000D01*
X98113750Y-149307000D01*
X98052750Y-149368000D01*
X97972250Y-149368000D01*
X97911250Y-149307000D01*
X97187000Y-149307000D01*
X97187000Y-149327000D01*
X96933000Y-149327000D01*
X96933000Y-149307000D01*
X96208750Y-149307000D01*
X96147750Y-149368000D01*
X90977287Y-149368000D01*
X91030124Y-149240434D01*
X90910777Y-148987000D01*
X89567000Y-148987000D01*
X89567000Y-148733000D01*
X90910777Y-148733000D01*
X91030124Y-148479566D01*
X91019407Y-148453691D01*
X96050000Y-148453691D01*
X96050000Y-148894250D01*
X96208750Y-149053000D01*
X96933000Y-149053000D01*
X96933000Y-148103750D01*
X97187000Y-148103750D01*
X97187000Y-149053000D01*
X97911250Y-149053000D01*
X98012500Y-148951750D01*
X98113750Y-149053000D01*
X98838000Y-149053000D01*
X98838000Y-148103750D01*
X98679250Y-147945000D01*
X98463690Y-147945000D01*
X98230301Y-148041673D01*
X98051673Y-148220302D01*
X98012500Y-148314874D01*
X97973327Y-148220302D01*
X97794699Y-148041673D01*
X97561310Y-147945000D01*
X97345750Y-147945000D01*
X97187000Y-148103750D01*
X96933000Y-148103750D01*
X96774250Y-147945000D01*
X96558690Y-147945000D01*
X96325301Y-148041673D01*
X96146673Y-148220302D01*
X96050000Y-148453691D01*
X91019407Y-148453691D01*
X90977287Y-148352000D01*
X94520000Y-148352000D01*
X94569410Y-148341994D01*
X94609803Y-148314803D01*
X96087716Y-146836890D01*
X96632010Y-146836890D01*
X96632010Y-147177829D01*
X96728683Y-147411218D01*
X96907311Y-147589847D01*
X97140700Y-147686520D01*
X98232210Y-147686520D01*
X98390960Y-147527770D01*
X98390960Y-146678140D01*
X96790760Y-146678140D01*
X96632010Y-146836890D01*
X96087716Y-146836890D01*
X96477606Y-146447000D01*
X98664960Y-146447000D01*
X98664960Y-146678140D01*
X98664960Y-146678140D01*
G37*
X98664960Y-146678140D02*
X98644960Y-146678140D01*
X98644960Y-147527770D01*
X98803710Y-147686520D01*
X99473000Y-147686520D01*
X99473000Y-147947771D01*
X99466310Y-147945000D01*
X99250750Y-147945000D01*
X99092000Y-148103750D01*
X99092000Y-149053000D01*
X99112000Y-149053000D01*
X99112000Y-149307000D01*
X99092000Y-149307000D01*
X99092000Y-149327000D01*
X98838000Y-149327000D01*
X98838000Y-149307000D01*
X98113750Y-149307000D01*
X98052750Y-149368000D01*
X97972250Y-149368000D01*
X97911250Y-149307000D01*
X97187000Y-149307000D01*
X97187000Y-149327000D01*
X96933000Y-149327000D01*
X96933000Y-149307000D01*
X96208750Y-149307000D01*
X96147750Y-149368000D01*
X90977287Y-149368000D01*
X91030124Y-149240434D01*
X90910777Y-148987000D01*
X89567000Y-148987000D01*
X89567000Y-148733000D01*
X90910777Y-148733000D01*
X91030124Y-148479566D01*
X91019407Y-148453691D01*
X96050000Y-148453691D01*
X96050000Y-148894250D01*
X96208750Y-149053000D01*
X96933000Y-149053000D01*
X96933000Y-148103750D01*
X97187000Y-148103750D01*
X97187000Y-149053000D01*
X97911250Y-149053000D01*
X98012500Y-148951750D01*
X98113750Y-149053000D01*
X98838000Y-149053000D01*
X98838000Y-148103750D01*
X98679250Y-147945000D01*
X98463690Y-147945000D01*
X98230301Y-148041673D01*
X98051673Y-148220302D01*
X98012500Y-148314874D01*
X97973327Y-148220302D01*
X97794699Y-148041673D01*
X97561310Y-147945000D01*
X97345750Y-147945000D01*
X97187000Y-148103750D01*
X96933000Y-148103750D01*
X96774250Y-147945000D01*
X96558690Y-147945000D01*
X96325301Y-148041673D01*
X96146673Y-148220302D01*
X96050000Y-148453691D01*
X91019407Y-148453691D01*
X90977287Y-148352000D01*
X94520000Y-148352000D01*
X94569410Y-148341994D01*
X94609803Y-148314803D01*
X96087716Y-146836890D01*
X96632010Y-146836890D01*
X96632010Y-147177829D01*
X96728683Y-147411218D01*
X96907311Y-147589847D01*
X97140700Y-147686520D01*
X98232210Y-147686520D01*
X98390960Y-147527770D01*
X98390960Y-146678140D01*
X96790760Y-146678140D01*
X96632010Y-146836890D01*
X96087716Y-146836890D01*
X96477606Y-146447000D01*
X98664960Y-146447000D01*
X98664960Y-146678140D01*
G36*
X101005000Y-149180000D02*
X101091397Y-149614346D01*
X101117560Y-149653502D01*
X101117560Y-149780000D01*
X101161838Y-150015317D01*
X101228329Y-150118646D01*
X101226673Y-150120302D01*
X101130000Y-150353691D01*
X101130000Y-150794250D01*
X101288750Y-150953000D01*
X102013000Y-150953000D01*
X102013000Y-150933000D01*
X102267000Y-150933000D01*
X102267000Y-150953000D01*
X102991250Y-150953000D01*
X103150000Y-150794250D01*
X103150000Y-150353691D01*
X103133974Y-150315000D01*
X103259868Y-150315000D01*
X103545000Y-150600132D01*
X103545000Y-151564868D01*
X100424868Y-154685000D01*
X98047204Y-154685000D01*
X97797363Y-154434722D01*
X97196648Y-154185284D01*
X96546205Y-154184716D01*
X95945057Y-154433106D01*
X95692722Y-154685000D01*
X95547204Y-154685000D01*
X95297363Y-154434722D01*
X94696648Y-154185284D01*
X94046205Y-154184716D01*
X93445057Y-154433106D01*
X92984722Y-154892637D01*
X92735284Y-155493352D01*
X92734716Y-156143795D01*
X92983106Y-156744943D01*
X93225738Y-156988000D01*
X88932000Y-156988000D01*
X88932000Y-151365750D01*
X96050000Y-151365750D01*
X96050000Y-151806309D01*
X96146673Y-152039698D01*
X96325301Y-152218327D01*
X96558690Y-152315000D01*
X96774250Y-152315000D01*
X96933000Y-152156250D01*
X96933000Y-151207000D01*
X97187000Y-151207000D01*
X97187000Y-152156250D01*
X97345750Y-152315000D01*
X97561310Y-152315000D01*
X97794699Y-152218327D01*
X97973327Y-152039698D01*
X98012500Y-151945126D01*
X98051673Y-152039698D01*
X98230301Y-152218327D01*
X98463690Y-152315000D01*
X98679250Y-152315000D01*
X98838000Y-152156250D01*
X98838000Y-151207000D01*
X99092000Y-151207000D01*
X99092000Y-152156250D01*
X99250750Y-152315000D01*
X99466310Y-152315000D01*
X99699699Y-152218327D01*
X99878327Y-152039698D01*
X99975000Y-151806309D01*
X99975000Y-151365750D01*
X101130000Y-151365750D01*
X101130000Y-151806309D01*
X101226673Y-152039698D01*
X101405301Y-152218327D01*
X101638690Y-152315000D01*
X101854250Y-152315000D01*
X102013000Y-152156250D01*
X102013000Y-151207000D01*
X102267000Y-151207000D01*
X102267000Y-152156250D01*
X102425750Y-152315000D01*
X102641310Y-152315000D01*
X102874699Y-152218327D01*
X103053327Y-152039698D01*
X103150000Y-151806309D01*
X103150000Y-151365750D01*
X102991250Y-151207000D01*
X102267000Y-151207000D01*
X102013000Y-151207000D01*
X101288750Y-151207000D01*
X101130000Y-151365750D01*
X99975000Y-151365750D01*
X99816250Y-151207000D01*
X99092000Y-151207000D01*
X98838000Y-151207000D01*
X98113750Y-151207000D01*
X98012500Y-151308250D01*
X97911250Y-151207000D01*
X97187000Y-151207000D01*
X96933000Y-151207000D01*
X96208750Y-151207000D01*
X96050000Y-151365750D01*
X88932000Y-151365750D01*
X88932000Y-150400324D01*
X89407968Y-150495000D01*
X89472032Y-150495000D01*
X90097719Y-150370543D01*
X90267649Y-150257000D01*
X96090051Y-150257000D01*
X96050000Y-150353691D01*
X96050000Y-150794250D01*
X96208750Y-150953000D01*
X96933000Y-150953000D01*
X96933000Y-150933000D01*
X97187000Y-150933000D01*
X97187000Y-150953000D01*
X97911250Y-150953000D01*
X98012500Y-150851750D01*
X98113750Y-150953000D01*
X98838000Y-150953000D01*
X98838000Y-150933000D01*
X99092000Y-150933000D01*
X99092000Y-150953000D01*
X99816250Y-150953000D01*
X99975000Y-150794250D01*
X99975000Y-150353691D01*
X99934949Y-150257000D01*
X100235000Y-150257000D01*
X100284410Y-150246994D01*
X100326035Y-150218553D01*
X100353315Y-150176159D01*
X100362000Y-150130000D01*
X100362000Y-148725000D01*
X100870000Y-148725000D01*
X101005000Y-148698147D01*
X101005000Y-149180000D01*
X101005000Y-149180000D01*
G37*
X101005000Y-149180000D02*
X101091397Y-149614346D01*
X101117560Y-149653502D01*
X101117560Y-149780000D01*
X101161838Y-150015317D01*
X101228329Y-150118646D01*
X101226673Y-150120302D01*
X101130000Y-150353691D01*
X101130000Y-150794250D01*
X101288750Y-150953000D01*
X102013000Y-150953000D01*
X102013000Y-150933000D01*
X102267000Y-150933000D01*
X102267000Y-150953000D01*
X102991250Y-150953000D01*
X103150000Y-150794250D01*
X103150000Y-150353691D01*
X103133974Y-150315000D01*
X103259868Y-150315000D01*
X103545000Y-150600132D01*
X103545000Y-151564868D01*
X100424868Y-154685000D01*
X98047204Y-154685000D01*
X97797363Y-154434722D01*
X97196648Y-154185284D01*
X96546205Y-154184716D01*
X95945057Y-154433106D01*
X95692722Y-154685000D01*
X95547204Y-154685000D01*
X95297363Y-154434722D01*
X94696648Y-154185284D01*
X94046205Y-154184716D01*
X93445057Y-154433106D01*
X92984722Y-154892637D01*
X92735284Y-155493352D01*
X92734716Y-156143795D01*
X92983106Y-156744943D01*
X93225738Y-156988000D01*
X88932000Y-156988000D01*
X88932000Y-151365750D01*
X96050000Y-151365750D01*
X96050000Y-151806309D01*
X96146673Y-152039698D01*
X96325301Y-152218327D01*
X96558690Y-152315000D01*
X96774250Y-152315000D01*
X96933000Y-152156250D01*
X96933000Y-151207000D01*
X97187000Y-151207000D01*
X97187000Y-152156250D01*
X97345750Y-152315000D01*
X97561310Y-152315000D01*
X97794699Y-152218327D01*
X97973327Y-152039698D01*
X98012500Y-151945126D01*
X98051673Y-152039698D01*
X98230301Y-152218327D01*
X98463690Y-152315000D01*
X98679250Y-152315000D01*
X98838000Y-152156250D01*
X98838000Y-151207000D01*
X99092000Y-151207000D01*
X99092000Y-152156250D01*
X99250750Y-152315000D01*
X99466310Y-152315000D01*
X99699699Y-152218327D01*
X99878327Y-152039698D01*
X99975000Y-151806309D01*
X99975000Y-151365750D01*
X101130000Y-151365750D01*
X101130000Y-151806309D01*
X101226673Y-152039698D01*
X101405301Y-152218327D01*
X101638690Y-152315000D01*
X101854250Y-152315000D01*
X102013000Y-152156250D01*
X102013000Y-151207000D01*
X102267000Y-151207000D01*
X102267000Y-152156250D01*
X102425750Y-152315000D01*
X102641310Y-152315000D01*
X102874699Y-152218327D01*
X103053327Y-152039698D01*
X103150000Y-151806309D01*
X103150000Y-151365750D01*
X102991250Y-151207000D01*
X102267000Y-151207000D01*
X102013000Y-151207000D01*
X101288750Y-151207000D01*
X101130000Y-151365750D01*
X99975000Y-151365750D01*
X99816250Y-151207000D01*
X99092000Y-151207000D01*
X98838000Y-151207000D01*
X98113750Y-151207000D01*
X98012500Y-151308250D01*
X97911250Y-151207000D01*
X97187000Y-151207000D01*
X96933000Y-151207000D01*
X96208750Y-151207000D01*
X96050000Y-151365750D01*
X88932000Y-151365750D01*
X88932000Y-150400324D01*
X89407968Y-150495000D01*
X89472032Y-150495000D01*
X90097719Y-150370543D01*
X90267649Y-150257000D01*
X96090051Y-150257000D01*
X96050000Y-150353691D01*
X96050000Y-150794250D01*
X96208750Y-150953000D01*
X96933000Y-150953000D01*
X96933000Y-150933000D01*
X97187000Y-150933000D01*
X97187000Y-150953000D01*
X97911250Y-150953000D01*
X98012500Y-150851750D01*
X98113750Y-150953000D01*
X98838000Y-150953000D01*
X98838000Y-150933000D01*
X99092000Y-150933000D01*
X99092000Y-150953000D01*
X99816250Y-150953000D01*
X99975000Y-150794250D01*
X99975000Y-150353691D01*
X99934949Y-150257000D01*
X100235000Y-150257000D01*
X100284410Y-150246994D01*
X100326035Y-150218553D01*
X100353315Y-150176159D01*
X100362000Y-150130000D01*
X100362000Y-148725000D01*
X100870000Y-148725000D01*
X101005000Y-148698147D01*
X101005000Y-149180000D01*
G36*
X112808000Y-129539676D02*
X112332032Y-129445000D01*
X112267968Y-129445000D01*
X111642281Y-129569457D01*
X111111848Y-129923880D01*
X110757425Y-130454313D01*
X110632968Y-131080000D01*
X110757425Y-131705687D01*
X111111848Y-132236120D01*
X111282282Y-132350000D01*
X111111848Y-132463880D01*
X110757425Y-132994313D01*
X110632968Y-133620000D01*
X110757425Y-134245687D01*
X111111848Y-134776120D01*
X111282282Y-134890000D01*
X111111848Y-135003880D01*
X110757425Y-135534313D01*
X110632968Y-136160000D01*
X110757425Y-136785687D01*
X111111848Y-137316120D01*
X111282282Y-137430000D01*
X111111848Y-137543880D01*
X110757425Y-138074313D01*
X110632968Y-138700000D01*
X110757425Y-139325687D01*
X111111848Y-139856120D01*
X111282282Y-139970000D01*
X111111848Y-140083880D01*
X110757425Y-140614313D01*
X110632968Y-141240000D01*
X110757425Y-141865687D01*
X111111848Y-142396120D01*
X111282282Y-142510000D01*
X111111848Y-142623880D01*
X110757425Y-143154313D01*
X110632968Y-143780000D01*
X110757425Y-144405687D01*
X111111848Y-144936120D01*
X111287340Y-145053379D01*
X110906598Y-145464615D01*
X110709876Y-145939566D01*
X110829223Y-146193000D01*
X112173000Y-146193000D01*
X112173000Y-146173000D01*
X112427000Y-146173000D01*
X112427000Y-146193000D01*
X112447000Y-146193000D01*
X112447000Y-146447000D01*
X112427000Y-146447000D01*
X112427000Y-146467000D01*
X112173000Y-146467000D01*
X112173000Y-146447000D01*
X110829223Y-146447000D01*
X110709876Y-146700434D01*
X110906598Y-147175385D01*
X111287340Y-147586621D01*
X111111848Y-147703880D01*
X110757425Y-148234313D01*
X110632968Y-148860000D01*
X110757425Y-149485687D01*
X111111848Y-150016120D01*
X111642281Y-150370543D01*
X112267968Y-150495000D01*
X112332032Y-150495000D01*
X112808000Y-150400324D01*
X112808000Y-156988000D01*
X108556020Y-156988000D01*
X108636814Y-156907206D01*
X108522534Y-156792926D01*
X108789387Y-156694264D01*
X109015908Y-156084539D01*
X108991856Y-155434540D01*
X108789387Y-154945736D01*
X108522532Y-154847073D01*
X107549605Y-155820000D01*
X107563748Y-155834143D01*
X107384143Y-156013748D01*
X107370000Y-155999605D01*
X107355858Y-156013748D01*
X107176253Y-155834143D01*
X107190395Y-155820000D01*
X106217468Y-154847073D01*
X106120000Y-154883109D01*
X106022532Y-154847073D01*
X105049605Y-155820000D01*
X105063748Y-155834143D01*
X104884143Y-156013748D01*
X104870000Y-155999605D01*
X104855858Y-156013748D01*
X104676253Y-155834143D01*
X104690395Y-155820000D01*
X103717468Y-154847073D01*
X103450613Y-154945736D01*
X103224092Y-155555461D01*
X103248144Y-156205460D01*
X103450613Y-156694264D01*
X103717466Y-156792926D01*
X103603186Y-156907206D01*
X103683980Y-156988000D01*
X98014220Y-156988000D01*
X98047278Y-156955000D01*
X100895000Y-156955000D01*
X101329346Y-156868603D01*
X101697566Y-156622566D01*
X103652664Y-154667468D01*
X103897073Y-154667468D01*
X104870000Y-155640395D01*
X105842927Y-154667468D01*
X106397073Y-154667468D01*
X107370000Y-155640395D01*
X108342927Y-154667468D01*
X108244264Y-154400613D01*
X107634539Y-154174092D01*
X106984540Y-154198144D01*
X106495736Y-154400613D01*
X106397073Y-154667468D01*
X105842927Y-154667468D01*
X105744264Y-154400613D01*
X105134539Y-154174092D01*
X104484540Y-154198144D01*
X103995736Y-154400613D01*
X103897073Y-154667468D01*
X103652664Y-154667468D01*
X105482566Y-152837566D01*
X105728603Y-152469346D01*
X105732899Y-152447750D01*
X105815000Y-152035000D01*
X105815000Y-150130000D01*
X105728603Y-149695654D01*
X105482566Y-149327434D01*
X104532566Y-148377434D01*
X104458747Y-148328110D01*
X104164346Y-148131397D01*
X103730000Y-148045000D01*
X103275000Y-148045000D01*
X103275000Y-146696930D01*
X104470450Y-146696930D01*
X104705767Y-146652652D01*
X104921891Y-146513580D01*
X105066881Y-146301380D01*
X105117890Y-146049490D01*
X105117890Y-145362247D01*
X105180000Y-145050000D01*
X105117890Y-144737753D01*
X105117890Y-144050510D01*
X105073612Y-143815193D01*
X104934540Y-143599069D01*
X104722340Y-143454079D01*
X104470450Y-143403070D01*
X100469950Y-143403070D01*
X100413081Y-143413771D01*
X100373598Y-143413351D01*
X100352843Y-143421858D01*
X100245162Y-143421858D01*
X100403910Y-143263110D01*
X100403910Y-142922171D01*
X100307237Y-142688782D01*
X100128609Y-142510153D01*
X99895220Y-142413480D01*
X98803710Y-142413480D01*
X98644960Y-142572230D01*
X98644960Y-143421860D01*
X98664960Y-143421860D01*
X98664960Y-143675860D01*
X98644960Y-143675860D01*
X98644960Y-143695860D01*
X98390960Y-143695860D01*
X98390960Y-143675860D01*
X96790760Y-143675860D01*
X96632010Y-143834610D01*
X96632010Y-144175549D01*
X96678075Y-144286759D01*
X96670579Y-144297730D01*
X96619570Y-144549620D01*
X96619570Y-145457770D01*
X96394514Y-145502537D01*
X96311508Y-145558000D01*
X90891494Y-145558000D01*
X90628152Y-145163880D01*
X90457718Y-145050000D01*
X90628152Y-144936120D01*
X90982575Y-144405687D01*
X91107032Y-143780000D01*
X90982575Y-143154313D01*
X90827464Y-142922171D01*
X96632010Y-142922171D01*
X96632010Y-143263110D01*
X96790760Y-143421860D01*
X98390960Y-143421860D01*
X98390960Y-142572230D01*
X98232210Y-142413480D01*
X97140700Y-142413480D01*
X96907311Y-142510153D01*
X96728683Y-142688782D01*
X96632010Y-142922171D01*
X90827464Y-142922171D01*
X90628152Y-142623880D01*
X90457718Y-142510000D01*
X90628152Y-142396120D01*
X90982575Y-141865687D01*
X91107032Y-141240000D01*
X90982575Y-140614313D01*
X90628152Y-140083880D01*
X90457718Y-139970000D01*
X90628152Y-139856120D01*
X90982575Y-139325687D01*
X91107032Y-138700000D01*
X90982575Y-138074313D01*
X90628152Y-137543880D01*
X90457718Y-137430000D01*
X90628152Y-137316120D01*
X90982575Y-136785687D01*
X91073546Y-136328348D01*
X91220000Y-136474802D01*
X91220000Y-137430000D01*
X91277852Y-137720839D01*
X91442599Y-137967401D01*
X92172560Y-138697362D01*
X92172560Y-139150000D01*
X92216838Y-139385317D01*
X92355910Y-139601441D01*
X92429479Y-139651709D01*
X92368559Y-139690910D01*
X92223569Y-139903110D01*
X92172560Y-140155000D01*
X92172560Y-141055000D01*
X92216838Y-141290317D01*
X92355910Y-141506441D01*
X92568110Y-141651431D01*
X92820000Y-141702440D01*
X94020000Y-141702440D01*
X94255317Y-141658162D01*
X94471441Y-141519090D01*
X94517969Y-141450994D01*
X94660302Y-141593327D01*
X94893691Y-141690000D01*
X95334250Y-141690000D01*
X95493000Y-141531250D01*
X95493000Y-140732000D01*
X95747000Y-140732000D01*
X95747000Y-141531250D01*
X95905750Y-141690000D01*
X96346309Y-141690000D01*
X96579698Y-141593327D01*
X96758327Y-141414699D01*
X96855000Y-141181310D01*
X96855000Y-140890750D01*
X96696250Y-140732000D01*
X95747000Y-140732000D01*
X95493000Y-140732000D01*
X95473000Y-140732000D01*
X95473000Y-140478000D01*
X95493000Y-140478000D01*
X95493000Y-140458000D01*
X95747000Y-140458000D01*
X95747000Y-140478000D01*
X96696250Y-140478000D01*
X96855000Y-140319250D01*
X96855000Y-140028690D01*
X96758327Y-139795301D01*
X96614047Y-139651022D01*
X96671441Y-139614090D01*
X96816431Y-139401890D01*
X96867440Y-139150000D01*
X96867440Y-138454999D01*
X97193795Y-138455284D01*
X97794943Y-138206894D01*
X98029715Y-137972532D01*
X103897073Y-137972532D01*
X103995736Y-138239387D01*
X104605461Y-138465908D01*
X105255460Y-138441856D01*
X105744264Y-138239387D01*
X105842927Y-137972532D01*
X106397073Y-137972532D01*
X106495736Y-138239387D01*
X107105461Y-138465908D01*
X107755460Y-138441856D01*
X108244264Y-138239387D01*
X108342927Y-137972532D01*
X107370000Y-136999605D01*
X106397073Y-137972532D01*
X105842927Y-137972532D01*
X104870000Y-136999605D01*
X103897073Y-137972532D01*
X98029715Y-137972532D01*
X98255278Y-137747363D01*
X98504716Y-137146648D01*
X98505232Y-136555461D01*
X103224092Y-136555461D01*
X103248144Y-137205460D01*
X103450613Y-137694264D01*
X103717468Y-137792927D01*
X104690395Y-136820000D01*
X105049605Y-136820000D01*
X106022532Y-137792927D01*
X106120000Y-137756891D01*
X106217468Y-137792927D01*
X107190395Y-136820000D01*
X107549605Y-136820000D01*
X108522532Y-137792927D01*
X108789387Y-137694264D01*
X109015908Y-137084539D01*
X108991856Y-136434540D01*
X108789387Y-135945736D01*
X108522532Y-135847073D01*
X107549605Y-136820000D01*
X107190395Y-136820000D01*
X106217468Y-135847073D01*
X106120000Y-135883109D01*
X106022532Y-135847073D01*
X105049605Y-136820000D01*
X104690395Y-136820000D01*
X103717468Y-135847073D01*
X103450613Y-135945736D01*
X103224092Y-136555461D01*
X98505232Y-136555461D01*
X98505284Y-136496205D01*
X98256894Y-135895057D01*
X98029703Y-135667468D01*
X103897073Y-135667468D01*
X104870000Y-136640395D01*
X105842927Y-135667468D01*
X106397073Y-135667468D01*
X107370000Y-136640395D01*
X108342927Y-135667468D01*
X108244264Y-135400613D01*
X107634539Y-135174092D01*
X106984540Y-135198144D01*
X106495736Y-135400613D01*
X106397073Y-135667468D01*
X105842927Y-135667468D01*
X105744264Y-135400613D01*
X105134539Y-135174092D01*
X104484540Y-135198144D01*
X103995736Y-135400613D01*
X103897073Y-135667468D01*
X98029703Y-135667468D01*
X98005000Y-135642722D01*
X98005000Y-129200132D01*
X100402566Y-126802566D01*
X100520753Y-126625687D01*
X100648603Y-126434346D01*
X100735000Y-126000000D01*
X100735000Y-125492000D01*
X112808000Y-125492000D01*
X112808000Y-129539676D01*
X112808000Y-129539676D01*
G37*
X112808000Y-129539676D02*
X112332032Y-129445000D01*
X112267968Y-129445000D01*
X111642281Y-129569457D01*
X111111848Y-129923880D01*
X110757425Y-130454313D01*
X110632968Y-131080000D01*
X110757425Y-131705687D01*
X111111848Y-132236120D01*
X111282282Y-132350000D01*
X111111848Y-132463880D01*
X110757425Y-132994313D01*
X110632968Y-133620000D01*
X110757425Y-134245687D01*
X111111848Y-134776120D01*
X111282282Y-134890000D01*
X111111848Y-135003880D01*
X110757425Y-135534313D01*
X110632968Y-136160000D01*
X110757425Y-136785687D01*
X111111848Y-137316120D01*
X111282282Y-137430000D01*
X111111848Y-137543880D01*
X110757425Y-138074313D01*
X110632968Y-138700000D01*
X110757425Y-139325687D01*
X111111848Y-139856120D01*
X111282282Y-139970000D01*
X111111848Y-140083880D01*
X110757425Y-140614313D01*
X110632968Y-141240000D01*
X110757425Y-141865687D01*
X111111848Y-142396120D01*
X111282282Y-142510000D01*
X111111848Y-142623880D01*
X110757425Y-143154313D01*
X110632968Y-143780000D01*
X110757425Y-144405687D01*
X111111848Y-144936120D01*
X111287340Y-145053379D01*
X110906598Y-145464615D01*
X110709876Y-145939566D01*
X110829223Y-146193000D01*
X112173000Y-146193000D01*
X112173000Y-146173000D01*
X112427000Y-146173000D01*
X112427000Y-146193000D01*
X112447000Y-146193000D01*
X112447000Y-146447000D01*
X112427000Y-146447000D01*
X112427000Y-146467000D01*
X112173000Y-146467000D01*
X112173000Y-146447000D01*
X110829223Y-146447000D01*
X110709876Y-146700434D01*
X110906598Y-147175385D01*
X111287340Y-147586621D01*
X111111848Y-147703880D01*
X110757425Y-148234313D01*
X110632968Y-148860000D01*
X110757425Y-149485687D01*
X111111848Y-150016120D01*
X111642281Y-150370543D01*
X112267968Y-150495000D01*
X112332032Y-150495000D01*
X112808000Y-150400324D01*
X112808000Y-156988000D01*
X108556020Y-156988000D01*
X108636814Y-156907206D01*
X108522534Y-156792926D01*
X108789387Y-156694264D01*
X109015908Y-156084539D01*
X108991856Y-155434540D01*
X108789387Y-154945736D01*
X108522532Y-154847073D01*
X107549605Y-155820000D01*
X107563748Y-155834143D01*
X107384143Y-156013748D01*
X107370000Y-155999605D01*
X107355858Y-156013748D01*
X107176253Y-155834143D01*
X107190395Y-155820000D01*
X106217468Y-154847073D01*
X106120000Y-154883109D01*
X106022532Y-154847073D01*
X105049605Y-155820000D01*
X105063748Y-155834143D01*
X104884143Y-156013748D01*
X104870000Y-155999605D01*
X104855858Y-156013748D01*
X104676253Y-155834143D01*
X104690395Y-155820000D01*
X103717468Y-154847073D01*
X103450613Y-154945736D01*
X103224092Y-155555461D01*
X103248144Y-156205460D01*
X103450613Y-156694264D01*
X103717466Y-156792926D01*
X103603186Y-156907206D01*
X103683980Y-156988000D01*
X98014220Y-156988000D01*
X98047278Y-156955000D01*
X100895000Y-156955000D01*
X101329346Y-156868603D01*
X101697566Y-156622566D01*
X103652664Y-154667468D01*
X103897073Y-154667468D01*
X104870000Y-155640395D01*
X105842927Y-154667468D01*
X106397073Y-154667468D01*
X107370000Y-155640395D01*
X108342927Y-154667468D01*
X108244264Y-154400613D01*
X107634539Y-154174092D01*
X106984540Y-154198144D01*
X106495736Y-154400613D01*
X106397073Y-154667468D01*
X105842927Y-154667468D01*
X105744264Y-154400613D01*
X105134539Y-154174092D01*
X104484540Y-154198144D01*
X103995736Y-154400613D01*
X103897073Y-154667468D01*
X103652664Y-154667468D01*
X105482566Y-152837566D01*
X105728603Y-152469346D01*
X105732899Y-152447750D01*
X105815000Y-152035000D01*
X105815000Y-150130000D01*
X105728603Y-149695654D01*
X105482566Y-149327434D01*
X104532566Y-148377434D01*
X104458747Y-148328110D01*
X104164346Y-148131397D01*
X103730000Y-148045000D01*
X103275000Y-148045000D01*
X103275000Y-146696930D01*
X104470450Y-146696930D01*
X104705767Y-146652652D01*
X104921891Y-146513580D01*
X105066881Y-146301380D01*
X105117890Y-146049490D01*
X105117890Y-145362247D01*
X105180000Y-145050000D01*
X105117890Y-144737753D01*
X105117890Y-144050510D01*
X105073612Y-143815193D01*
X104934540Y-143599069D01*
X104722340Y-143454079D01*
X104470450Y-143403070D01*
X100469950Y-143403070D01*
X100413081Y-143413771D01*
X100373598Y-143413351D01*
X100352843Y-143421858D01*
X100245162Y-143421858D01*
X100403910Y-143263110D01*
X100403910Y-142922171D01*
X100307237Y-142688782D01*
X100128609Y-142510153D01*
X99895220Y-142413480D01*
X98803710Y-142413480D01*
X98644960Y-142572230D01*
X98644960Y-143421860D01*
X98664960Y-143421860D01*
X98664960Y-143675860D01*
X98644960Y-143675860D01*
X98644960Y-143695860D01*
X98390960Y-143695860D01*
X98390960Y-143675860D01*
X96790760Y-143675860D01*
X96632010Y-143834610D01*
X96632010Y-144175549D01*
X96678075Y-144286759D01*
X96670579Y-144297730D01*
X96619570Y-144549620D01*
X96619570Y-145457770D01*
X96394514Y-145502537D01*
X96311508Y-145558000D01*
X90891494Y-145558000D01*
X90628152Y-145163880D01*
X90457718Y-145050000D01*
X90628152Y-144936120D01*
X90982575Y-144405687D01*
X91107032Y-143780000D01*
X90982575Y-143154313D01*
X90827464Y-142922171D01*
X96632010Y-142922171D01*
X96632010Y-143263110D01*
X96790760Y-143421860D01*
X98390960Y-143421860D01*
X98390960Y-142572230D01*
X98232210Y-142413480D01*
X97140700Y-142413480D01*
X96907311Y-142510153D01*
X96728683Y-142688782D01*
X96632010Y-142922171D01*
X90827464Y-142922171D01*
X90628152Y-142623880D01*
X90457718Y-142510000D01*
X90628152Y-142396120D01*
X90982575Y-141865687D01*
X91107032Y-141240000D01*
X90982575Y-140614313D01*
X90628152Y-140083880D01*
X90457718Y-139970000D01*
X90628152Y-139856120D01*
X90982575Y-139325687D01*
X91107032Y-138700000D01*
X90982575Y-138074313D01*
X90628152Y-137543880D01*
X90457718Y-137430000D01*
X90628152Y-137316120D01*
X90982575Y-136785687D01*
X91073546Y-136328348D01*
X91220000Y-136474802D01*
X91220000Y-137430000D01*
X91277852Y-137720839D01*
X91442599Y-137967401D01*
X92172560Y-138697362D01*
X92172560Y-139150000D01*
X92216838Y-139385317D01*
X92355910Y-139601441D01*
X92429479Y-139651709D01*
X92368559Y-139690910D01*
X92223569Y-139903110D01*
X92172560Y-140155000D01*
X92172560Y-141055000D01*
X92216838Y-141290317D01*
X92355910Y-141506441D01*
X92568110Y-141651431D01*
X92820000Y-141702440D01*
X94020000Y-141702440D01*
X94255317Y-141658162D01*
X94471441Y-141519090D01*
X94517969Y-141450994D01*
X94660302Y-141593327D01*
X94893691Y-141690000D01*
X95334250Y-141690000D01*
X95493000Y-141531250D01*
X95493000Y-140732000D01*
X95747000Y-140732000D01*
X95747000Y-141531250D01*
X95905750Y-141690000D01*
X96346309Y-141690000D01*
X96579698Y-141593327D01*
X96758327Y-141414699D01*
X96855000Y-141181310D01*
X96855000Y-140890750D01*
X96696250Y-140732000D01*
X95747000Y-140732000D01*
X95493000Y-140732000D01*
X95473000Y-140732000D01*
X95473000Y-140478000D01*
X95493000Y-140478000D01*
X95493000Y-140458000D01*
X95747000Y-140458000D01*
X95747000Y-140478000D01*
X96696250Y-140478000D01*
X96855000Y-140319250D01*
X96855000Y-140028690D01*
X96758327Y-139795301D01*
X96614047Y-139651022D01*
X96671441Y-139614090D01*
X96816431Y-139401890D01*
X96867440Y-139150000D01*
X96867440Y-138454999D01*
X97193795Y-138455284D01*
X97794943Y-138206894D01*
X98029715Y-137972532D01*
X103897073Y-137972532D01*
X103995736Y-138239387D01*
X104605461Y-138465908D01*
X105255460Y-138441856D01*
X105744264Y-138239387D01*
X105842927Y-137972532D01*
X106397073Y-137972532D01*
X106495736Y-138239387D01*
X107105461Y-138465908D01*
X107755460Y-138441856D01*
X108244264Y-138239387D01*
X108342927Y-137972532D01*
X107370000Y-136999605D01*
X106397073Y-137972532D01*
X105842927Y-137972532D01*
X104870000Y-136999605D01*
X103897073Y-137972532D01*
X98029715Y-137972532D01*
X98255278Y-137747363D01*
X98504716Y-137146648D01*
X98505232Y-136555461D01*
X103224092Y-136555461D01*
X103248144Y-137205460D01*
X103450613Y-137694264D01*
X103717468Y-137792927D01*
X104690395Y-136820000D01*
X105049605Y-136820000D01*
X106022532Y-137792927D01*
X106120000Y-137756891D01*
X106217468Y-137792927D01*
X107190395Y-136820000D01*
X107549605Y-136820000D01*
X108522532Y-137792927D01*
X108789387Y-137694264D01*
X109015908Y-137084539D01*
X108991856Y-136434540D01*
X108789387Y-135945736D01*
X108522532Y-135847073D01*
X107549605Y-136820000D01*
X107190395Y-136820000D01*
X106217468Y-135847073D01*
X106120000Y-135883109D01*
X106022532Y-135847073D01*
X105049605Y-136820000D01*
X104690395Y-136820000D01*
X103717468Y-135847073D01*
X103450613Y-135945736D01*
X103224092Y-136555461D01*
X98505232Y-136555461D01*
X98505284Y-136496205D01*
X98256894Y-135895057D01*
X98029703Y-135667468D01*
X103897073Y-135667468D01*
X104870000Y-136640395D01*
X105842927Y-135667468D01*
X106397073Y-135667468D01*
X107370000Y-136640395D01*
X108342927Y-135667468D01*
X108244264Y-135400613D01*
X107634539Y-135174092D01*
X106984540Y-135198144D01*
X106495736Y-135400613D01*
X106397073Y-135667468D01*
X105842927Y-135667468D01*
X105744264Y-135400613D01*
X105134539Y-135174092D01*
X104484540Y-135198144D01*
X103995736Y-135400613D01*
X103897073Y-135667468D01*
X98029703Y-135667468D01*
X98005000Y-135642722D01*
X98005000Y-129200132D01*
X100402566Y-126802566D01*
X100520753Y-126625687D01*
X100648603Y-126434346D01*
X100735000Y-126000000D01*
X100735000Y-125492000D01*
X112808000Y-125492000D01*
X112808000Y-129539676D01*
M02*
