G04 #@! TF.FileFunction,Copper,L2,Bot,Signal*
%FSLAX46Y46*%
G04 Gerber Fmt 4.6, Leading zero omitted, Abs format (unit mm)*
G04 Created by KiCad (PCBNEW 4.0.4+e1-6308~48~ubuntu16.04.1-stable) date Wed Dec 14 21:01:20 2016*
%MOMM*%
%LPD*%
G01*
G04 APERTURE LIST*
%ADD10C,0.100000*%
%ADD11O,2.000000X2.000000*%
%ADD12R,2.032000X2.032000*%
%ADD13O,2.032000X2.032000*%
%ADD14R,2.032000X1.727200*%
%ADD15O,2.032000X1.727200*%
%ADD16C,2.000000*%
%ADD17R,2.235200X2.235200*%
%ADD18C,0.600000*%
%ADD19C,1.000000*%
%ADD20C,0.254000*%
G04 APERTURE END LIST*
D10*
D11*
X86900000Y-128540000D03*
X114840000Y-128540000D03*
X117380000Y-126000000D03*
X114840000Y-126000000D03*
X86900000Y-126000000D03*
X84360000Y-126000000D03*
X86900000Y-105680000D03*
X86900000Y-108220000D03*
X86900000Y-110760000D03*
X84360000Y-110760000D03*
X84360000Y-108220000D03*
X84360000Y-105680000D03*
X84360000Y-98060000D03*
X84360000Y-100600000D03*
X84360000Y-103140000D03*
X86900000Y-103140000D03*
X86900000Y-100600000D03*
X86900000Y-98060000D03*
X86900000Y-113300000D03*
X86900000Y-115840000D03*
X86900000Y-118380000D03*
X84360000Y-118380000D03*
X84360000Y-115840000D03*
X84360000Y-113300000D03*
X84360000Y-120920000D03*
X84360000Y-123460000D03*
X86900000Y-123460000D03*
X86900000Y-120920000D03*
X86900000Y-90440000D03*
X86900000Y-92980000D03*
X86900000Y-95520000D03*
X84360000Y-95520000D03*
X84360000Y-92980000D03*
X84360000Y-90440000D03*
X84360000Y-82820000D03*
X84360000Y-85360000D03*
X84360000Y-87900000D03*
X86900000Y-87900000D03*
X86900000Y-85360000D03*
X86900000Y-82820000D03*
X86900000Y-67580000D03*
X86900000Y-70120000D03*
X86900000Y-72660000D03*
X84360000Y-72660000D03*
X84360000Y-70120000D03*
X84360000Y-67580000D03*
X84360000Y-75200000D03*
X84360000Y-77740000D03*
X84360000Y-80280000D03*
X86900000Y-80280000D03*
X86900000Y-77740000D03*
X86900000Y-75200000D03*
X86900000Y-62500000D03*
X86900000Y-65040000D03*
X84360000Y-65040000D03*
X84360000Y-62500000D03*
X89440000Y-62500000D03*
X89440000Y-65040000D03*
X91980000Y-65040000D03*
X91980000Y-62500000D03*
X97060000Y-62500000D03*
X97060000Y-65040000D03*
X94520000Y-65040000D03*
X94520000Y-62500000D03*
X104680000Y-62500000D03*
X104680000Y-65040000D03*
X107220000Y-65040000D03*
X107220000Y-62500000D03*
X102140000Y-62500000D03*
X102140000Y-65040000D03*
X99600000Y-65040000D03*
X99600000Y-62500000D03*
X114840000Y-62500000D03*
X114840000Y-65040000D03*
X117380000Y-65040000D03*
X117380000Y-62500000D03*
X109760000Y-62500000D03*
X109760000Y-65040000D03*
X112300000Y-65040000D03*
X112300000Y-62500000D03*
X112300000Y-75200000D03*
X112300000Y-77740000D03*
X112300000Y-80280000D03*
X109760000Y-80280000D03*
X109760000Y-77740000D03*
X109760000Y-75200000D03*
X117380000Y-75200000D03*
X117380000Y-77740000D03*
X117380000Y-80280000D03*
X114840000Y-80280000D03*
X114840000Y-77740000D03*
X114840000Y-75200000D03*
X99600000Y-75200000D03*
X99600000Y-77740000D03*
X99600000Y-80280000D03*
X102140000Y-80280000D03*
X102140000Y-77740000D03*
X102140000Y-75200000D03*
X107220000Y-75200000D03*
X107220000Y-77740000D03*
X107220000Y-80280000D03*
X104680000Y-80280000D03*
X104680000Y-77740000D03*
X104680000Y-75200000D03*
X94520000Y-75200000D03*
X94520000Y-77740000D03*
X94520000Y-80280000D03*
X97060000Y-80280000D03*
X97060000Y-77740000D03*
X97060000Y-75200000D03*
X91980000Y-75200000D03*
X91980000Y-77740000D03*
X91980000Y-80280000D03*
X89440000Y-80280000D03*
X89440000Y-77740000D03*
X89440000Y-75200000D03*
X89440000Y-67580000D03*
X89440000Y-70120000D03*
X89440000Y-72660000D03*
X91980000Y-72660000D03*
X91980000Y-70120000D03*
X91980000Y-67580000D03*
X97060000Y-67580000D03*
X97060000Y-70120000D03*
X97060000Y-72660000D03*
X94520000Y-72660000D03*
X94520000Y-70120000D03*
X94520000Y-67580000D03*
X104680000Y-67580000D03*
X104680000Y-70120000D03*
X104680000Y-72660000D03*
X107220000Y-72660000D03*
X107220000Y-70120000D03*
X107220000Y-67580000D03*
X102140000Y-67580000D03*
X102140000Y-70120000D03*
X102140000Y-72660000D03*
X99600000Y-72660000D03*
X99600000Y-70120000D03*
X99600000Y-67580000D03*
X114840000Y-67580000D03*
X114840000Y-70120000D03*
X114840000Y-72660000D03*
X117380000Y-72660000D03*
X117380000Y-70120000D03*
X117380000Y-67580000D03*
X109760000Y-67580000D03*
X109760000Y-70120000D03*
X109760000Y-72660000D03*
X112300000Y-72660000D03*
X112300000Y-70120000D03*
X112300000Y-67580000D03*
X112300000Y-82820000D03*
X112300000Y-85360000D03*
X112300000Y-87900000D03*
X109760000Y-87900000D03*
X109760000Y-85360000D03*
X109760000Y-82820000D03*
X117380000Y-82820000D03*
X117380000Y-85360000D03*
X117380000Y-87900000D03*
X114840000Y-87900000D03*
X114840000Y-85360000D03*
X114840000Y-82820000D03*
X99600000Y-82820000D03*
X99600000Y-85360000D03*
X99600000Y-87900000D03*
X102140000Y-87900000D03*
X102140000Y-85360000D03*
X102140000Y-82820000D03*
X107220000Y-82820000D03*
X107220000Y-85360000D03*
X107220000Y-87900000D03*
X104680000Y-87900000D03*
X104680000Y-85360000D03*
X104680000Y-82820000D03*
X94520000Y-82820000D03*
X94520000Y-85360000D03*
X94520000Y-87900000D03*
X97060000Y-87900000D03*
X97060000Y-85360000D03*
X97060000Y-82820000D03*
X91980000Y-82820000D03*
X91980000Y-85360000D03*
X91980000Y-87900000D03*
X89440000Y-87900000D03*
X89440000Y-85360000D03*
X89440000Y-82820000D03*
X89440000Y-90440000D03*
X89440000Y-92980000D03*
X89440000Y-95520000D03*
X91980000Y-95520000D03*
X91980000Y-92980000D03*
X91980000Y-90440000D03*
X97060000Y-90440000D03*
X97060000Y-92980000D03*
X97060000Y-95520000D03*
X94520000Y-95520000D03*
X94520000Y-92980000D03*
X94520000Y-90440000D03*
X104680000Y-90440000D03*
X104680000Y-92980000D03*
X104680000Y-95520000D03*
X107220000Y-95520000D03*
X107220000Y-92980000D03*
X107220000Y-90440000D03*
X102140000Y-90440000D03*
X102140000Y-92980000D03*
X102140000Y-95520000D03*
X99600000Y-95520000D03*
X99600000Y-92980000D03*
X99600000Y-90440000D03*
X114840000Y-90440000D03*
X114840000Y-92980000D03*
X114840000Y-95520000D03*
X117380000Y-95520000D03*
X117380000Y-92980000D03*
X117380000Y-90440000D03*
X109760000Y-90440000D03*
X109760000Y-92980000D03*
X109760000Y-95520000D03*
X112300000Y-95520000D03*
X112300000Y-92980000D03*
X112300000Y-90440000D03*
X112300000Y-120920000D03*
X112300000Y-123460000D03*
X109760000Y-123460000D03*
X109760000Y-120920000D03*
X117380000Y-120920000D03*
X117380000Y-123460000D03*
X114840000Y-123460000D03*
X114840000Y-120920000D03*
X99600000Y-120920000D03*
X102140000Y-120920000D03*
X107220000Y-120920000D03*
X107220000Y-123460000D03*
X104680000Y-123460000D03*
X104680000Y-120920000D03*
X94520000Y-120920000D03*
X94520000Y-123460000D03*
X97060000Y-123460000D03*
X97060000Y-120920000D03*
X91980000Y-120920000D03*
X91980000Y-123460000D03*
X89440000Y-123460000D03*
X89440000Y-120920000D03*
X89440000Y-113300000D03*
X89440000Y-115840000D03*
X89440000Y-118380000D03*
X91980000Y-118380000D03*
X91980000Y-115840000D03*
X91980000Y-113300000D03*
X97060000Y-113300000D03*
X97060000Y-115840000D03*
X97060000Y-118380000D03*
X94520000Y-118380000D03*
X94520000Y-115840000D03*
X94520000Y-113300000D03*
X104680000Y-113300000D03*
X104680000Y-115840000D03*
X104680000Y-118380000D03*
X107220000Y-118380000D03*
X107220000Y-115840000D03*
X107220000Y-113300000D03*
X102140000Y-113300000D03*
X102140000Y-115840000D03*
X102140000Y-118380000D03*
X99600000Y-118380000D03*
X99600000Y-115840000D03*
X99600000Y-113300000D03*
X114840000Y-113300000D03*
X114840000Y-115840000D03*
X114840000Y-118380000D03*
X117380000Y-118380000D03*
X117380000Y-115840000D03*
X117380000Y-113300000D03*
X109760000Y-113300000D03*
X109760000Y-115840000D03*
X109760000Y-118380000D03*
X112300000Y-118380000D03*
X112300000Y-115840000D03*
X112300000Y-113300000D03*
X112300000Y-98060000D03*
X112300000Y-100600000D03*
X112300000Y-103140000D03*
X109760000Y-103140000D03*
X109760000Y-100600000D03*
X109760000Y-98060000D03*
X117380000Y-98060000D03*
X117380000Y-100600000D03*
X117380000Y-103140000D03*
X114840000Y-103140000D03*
X114840000Y-100600000D03*
X114840000Y-98060000D03*
X99600000Y-98060000D03*
X99600000Y-100600000D03*
X99600000Y-103140000D03*
X102140000Y-103140000D03*
X102140000Y-100600000D03*
X102140000Y-98060000D03*
X107220000Y-98060000D03*
X107220000Y-100600000D03*
X107220000Y-103140000D03*
X104680000Y-103140000D03*
X104680000Y-100600000D03*
X104680000Y-98060000D03*
X94520000Y-98060000D03*
X94520000Y-100600000D03*
X94520000Y-103140000D03*
X97060000Y-103140000D03*
X97060000Y-100600000D03*
X97060000Y-98060000D03*
X91980000Y-98060000D03*
X91980000Y-100600000D03*
X91980000Y-103140000D03*
X89440000Y-103140000D03*
X89440000Y-100600000D03*
X89440000Y-98060000D03*
X89440000Y-105680000D03*
X89440000Y-108220000D03*
X89440000Y-110760000D03*
X91980000Y-110760000D03*
X91980000Y-108220000D03*
X91980000Y-105680000D03*
X97060000Y-105680000D03*
X97060000Y-108220000D03*
X97060000Y-110760000D03*
X94520000Y-110760000D03*
X94520000Y-108220000D03*
X94520000Y-105680000D03*
X104680000Y-105680000D03*
X104680000Y-108220000D03*
X104680000Y-110760000D03*
X107220000Y-110760000D03*
X107220000Y-108220000D03*
X107220000Y-105680000D03*
X102140000Y-105680000D03*
X102140000Y-108220000D03*
X102140000Y-110760000D03*
X99600000Y-110760000D03*
X99600000Y-108220000D03*
X99600000Y-105680000D03*
X114840000Y-105680000D03*
X114840000Y-108220000D03*
X114840000Y-110760000D03*
X117380000Y-110760000D03*
X117380000Y-108220000D03*
X117380000Y-105680000D03*
X109760000Y-105680000D03*
X109760000Y-108220000D03*
X109760000Y-110760000D03*
X112300000Y-110760000D03*
X112300000Y-108220000D03*
X112300000Y-105680000D03*
X142780000Y-105680000D03*
X142780000Y-108220000D03*
X142780000Y-110760000D03*
X140240000Y-110760000D03*
X140240000Y-108220000D03*
X140240000Y-105680000D03*
X147860000Y-105680000D03*
X147860000Y-108220000D03*
X147860000Y-110760000D03*
X145320000Y-110760000D03*
X145320000Y-108220000D03*
X145320000Y-105680000D03*
X130080000Y-105680000D03*
X130080000Y-108220000D03*
X130080000Y-110760000D03*
X132620000Y-110760000D03*
X132620000Y-108220000D03*
X132620000Y-105680000D03*
X137700000Y-105680000D03*
X137700000Y-108220000D03*
X137700000Y-110760000D03*
X135160000Y-110760000D03*
X135160000Y-108220000D03*
X135160000Y-105680000D03*
X125000000Y-105680000D03*
X125000000Y-108220000D03*
X125000000Y-110760000D03*
X127540000Y-110760000D03*
X127540000Y-108220000D03*
X127540000Y-105680000D03*
X122460000Y-105680000D03*
X122460000Y-108220000D03*
X122460000Y-110760000D03*
X119920000Y-110760000D03*
X119920000Y-108220000D03*
X119920000Y-105680000D03*
X119920000Y-98060000D03*
X119920000Y-100600000D03*
X119920000Y-103140000D03*
X122460000Y-103140000D03*
X122460000Y-100600000D03*
X122460000Y-98060000D03*
X127540000Y-98060000D03*
X127540000Y-100600000D03*
X127540000Y-103140000D03*
X125000000Y-103140000D03*
X125000000Y-100600000D03*
X125000000Y-98060000D03*
X135160000Y-98060000D03*
X135160000Y-100600000D03*
X135160000Y-103140000D03*
X137700000Y-103140000D03*
X137700000Y-100600000D03*
X137700000Y-98060000D03*
X132620000Y-98060000D03*
X132620000Y-100600000D03*
X132620000Y-103140000D03*
X130080000Y-103140000D03*
X130080000Y-100600000D03*
X130080000Y-98060000D03*
X145320000Y-98060000D03*
X145320000Y-100600000D03*
X145320000Y-103140000D03*
X147860000Y-103140000D03*
X147860000Y-100600000D03*
X147860000Y-98060000D03*
X140240000Y-98060000D03*
X140240000Y-100600000D03*
X140240000Y-103140000D03*
X142780000Y-103140000D03*
X142780000Y-100600000D03*
X142780000Y-98060000D03*
X142780000Y-113300000D03*
X142780000Y-115840000D03*
X142780000Y-118380000D03*
X140240000Y-118380000D03*
X140240000Y-115840000D03*
X140240000Y-113300000D03*
X147860000Y-113300000D03*
X147860000Y-115840000D03*
X147860000Y-118380000D03*
X145320000Y-118380000D03*
X145320000Y-115840000D03*
X145320000Y-113300000D03*
X130080000Y-113300000D03*
X130080000Y-115840000D03*
X130080000Y-118380000D03*
X132620000Y-118380000D03*
X132620000Y-115840000D03*
X132620000Y-113300000D03*
X137700000Y-113300000D03*
X137700000Y-115840000D03*
X137700000Y-118380000D03*
X135160000Y-118380000D03*
X135160000Y-115840000D03*
X135160000Y-113300000D03*
X125000000Y-113300000D03*
X125000000Y-115840000D03*
X125000000Y-118380000D03*
X127540000Y-118380000D03*
X127540000Y-115840000D03*
X127540000Y-113300000D03*
X122460000Y-113300000D03*
X122460000Y-115840000D03*
X122460000Y-118380000D03*
X119920000Y-118380000D03*
X119920000Y-115840000D03*
X119920000Y-113300000D03*
X119920000Y-120920000D03*
X119920000Y-123460000D03*
X119920000Y-126000000D03*
X122460000Y-126000000D03*
X122460000Y-123460000D03*
X122460000Y-120920000D03*
X127540000Y-120920000D03*
X127540000Y-123460000D03*
X127540000Y-126000000D03*
X125000000Y-126000000D03*
X125000000Y-123460000D03*
X125000000Y-120920000D03*
X135160000Y-120920000D03*
X135160000Y-123460000D03*
X135160000Y-126000000D03*
X137700000Y-126000000D03*
X137700000Y-123460000D03*
X137700000Y-120920000D03*
X132620000Y-120920000D03*
X132620000Y-123460000D03*
X132620000Y-126000000D03*
X130080000Y-126000000D03*
X130080000Y-123460000D03*
X130080000Y-120920000D03*
X145320000Y-120920000D03*
X145320000Y-123460000D03*
X145320000Y-126000000D03*
X147860000Y-126000000D03*
X147860000Y-123460000D03*
X147860000Y-120920000D03*
X140240000Y-120920000D03*
X140240000Y-123460000D03*
X140240000Y-126000000D03*
X142780000Y-126000000D03*
X142780000Y-123460000D03*
X142780000Y-120920000D03*
X142780000Y-90440000D03*
X142780000Y-92980000D03*
X142780000Y-95520000D03*
X140240000Y-95520000D03*
X140240000Y-92980000D03*
X140240000Y-90440000D03*
X147860000Y-90440000D03*
X147860000Y-92980000D03*
X147860000Y-95520000D03*
X145320000Y-95520000D03*
X145320000Y-92980000D03*
X145320000Y-90440000D03*
X130080000Y-90440000D03*
X130080000Y-92980000D03*
X130080000Y-95520000D03*
X132620000Y-95520000D03*
X132620000Y-92980000D03*
X132620000Y-90440000D03*
X137700000Y-90440000D03*
X137700000Y-92980000D03*
X137700000Y-95520000D03*
X135160000Y-95520000D03*
X135160000Y-92980000D03*
X135160000Y-90440000D03*
X125000000Y-90440000D03*
X125000000Y-92980000D03*
X125000000Y-95520000D03*
X127540000Y-95520000D03*
X127540000Y-92980000D03*
X127540000Y-90440000D03*
X122460000Y-90440000D03*
X122460000Y-92980000D03*
X122460000Y-95520000D03*
X119920000Y-95520000D03*
X119920000Y-92980000D03*
X119920000Y-90440000D03*
X119920000Y-82820000D03*
X119920000Y-85360000D03*
X119920000Y-87900000D03*
X122460000Y-87900000D03*
X122460000Y-85360000D03*
X122460000Y-82820000D03*
X127540000Y-82820000D03*
X127540000Y-85360000D03*
X127540000Y-87900000D03*
X125000000Y-87900000D03*
X125000000Y-85360000D03*
X125000000Y-82820000D03*
X135160000Y-82820000D03*
X135160000Y-85360000D03*
X135160000Y-87900000D03*
X137700000Y-87900000D03*
X137700000Y-85360000D03*
X137700000Y-82820000D03*
X132620000Y-82820000D03*
X132620000Y-85360000D03*
X132620000Y-87900000D03*
X130080000Y-87900000D03*
X130080000Y-85360000D03*
X130080000Y-82820000D03*
X145320000Y-82820000D03*
X145320000Y-85360000D03*
X145320000Y-87900000D03*
X147860000Y-87900000D03*
X147860000Y-85360000D03*
X147860000Y-82820000D03*
X140240000Y-82820000D03*
X140240000Y-85360000D03*
X140240000Y-87900000D03*
X142780000Y-87900000D03*
X142780000Y-85360000D03*
X142780000Y-82820000D03*
X142780000Y-67580000D03*
X142780000Y-70120000D03*
X142780000Y-72660000D03*
X140240000Y-72660000D03*
X140240000Y-70120000D03*
X140240000Y-67580000D03*
X147860000Y-67580000D03*
X147860000Y-70120000D03*
X147860000Y-72660000D03*
X145320000Y-72660000D03*
X145320000Y-70120000D03*
X145320000Y-67580000D03*
X130080000Y-67580000D03*
X130080000Y-70120000D03*
X130080000Y-72660000D03*
X132620000Y-72660000D03*
X132620000Y-70120000D03*
X132620000Y-67580000D03*
X137700000Y-67580000D03*
X137700000Y-70120000D03*
X137700000Y-72660000D03*
X135160000Y-72660000D03*
X135160000Y-70120000D03*
X135160000Y-67580000D03*
X125000000Y-67580000D03*
X125000000Y-70120000D03*
X125000000Y-72660000D03*
X127540000Y-72660000D03*
X127540000Y-70120000D03*
X127540000Y-67580000D03*
X122460000Y-67580000D03*
X122460000Y-70120000D03*
X122460000Y-72660000D03*
X119920000Y-72660000D03*
X119920000Y-70120000D03*
X119920000Y-67580000D03*
X119920000Y-75200000D03*
X119920000Y-77740000D03*
X119920000Y-80280000D03*
X122460000Y-80280000D03*
X122460000Y-77740000D03*
X122460000Y-75200000D03*
X127540000Y-75200000D03*
X127540000Y-77740000D03*
X127540000Y-80280000D03*
X125000000Y-80280000D03*
X125000000Y-77740000D03*
X125000000Y-75200000D03*
X135160000Y-75200000D03*
X135160000Y-77740000D03*
X135160000Y-80280000D03*
X137700000Y-80280000D03*
X137700000Y-77740000D03*
X137700000Y-75200000D03*
X132620000Y-75200000D03*
X132620000Y-77740000D03*
X132620000Y-80280000D03*
X130080000Y-80280000D03*
X130080000Y-77740000D03*
X130080000Y-75200000D03*
X145320000Y-75200000D03*
X145320000Y-77740000D03*
X145320000Y-80280000D03*
X147860000Y-80280000D03*
X147860000Y-77740000D03*
X147860000Y-75200000D03*
X140240000Y-75200000D03*
X140240000Y-77740000D03*
X140240000Y-80280000D03*
X142780000Y-80280000D03*
X142780000Y-77740000D03*
X142780000Y-75200000D03*
X142780000Y-62500000D03*
X142780000Y-65040000D03*
X140240000Y-65040000D03*
X140240000Y-62500000D03*
X147860000Y-62500000D03*
X147860000Y-65040000D03*
X145320000Y-65040000D03*
X145320000Y-62500000D03*
X130080000Y-62500000D03*
X130080000Y-65040000D03*
X132620000Y-65040000D03*
X132620000Y-62500000D03*
X137700000Y-62500000D03*
X137700000Y-65040000D03*
X135160000Y-65040000D03*
X135160000Y-62500000D03*
X125000000Y-62500000D03*
X125000000Y-65040000D03*
X127540000Y-65040000D03*
X127540000Y-62500000D03*
X122460000Y-62500000D03*
X122460000Y-65040000D03*
X119920000Y-65040000D03*
X119920000Y-62500000D03*
X53880000Y-62500000D03*
X53880000Y-65040000D03*
X56420000Y-65040000D03*
X56420000Y-62500000D03*
X61500000Y-62500000D03*
X61500000Y-65040000D03*
X58960000Y-65040000D03*
X58960000Y-62500000D03*
X69120000Y-62500000D03*
X69120000Y-65040000D03*
X71660000Y-65040000D03*
X71660000Y-62500000D03*
X66580000Y-62500000D03*
X66580000Y-65040000D03*
X64040000Y-65040000D03*
X64040000Y-62500000D03*
X79280000Y-62500000D03*
X79280000Y-65040000D03*
X81820000Y-65040000D03*
X81820000Y-62500000D03*
X74200000Y-62500000D03*
X74200000Y-65040000D03*
X76740000Y-65040000D03*
X76740000Y-62500000D03*
X76740000Y-75200000D03*
X76740000Y-77740000D03*
X76740000Y-80280000D03*
X74200000Y-80280000D03*
X74200000Y-77740000D03*
X74200000Y-75200000D03*
X81820000Y-75200000D03*
X81820000Y-77740000D03*
X81820000Y-80280000D03*
X79280000Y-80280000D03*
X79280000Y-77740000D03*
X79280000Y-75200000D03*
X64040000Y-75200000D03*
X64040000Y-77740000D03*
X64040000Y-80280000D03*
X66580000Y-80280000D03*
X66580000Y-77740000D03*
X66580000Y-75200000D03*
X71660000Y-75200000D03*
X71660000Y-77740000D03*
X71660000Y-80280000D03*
X69120000Y-80280000D03*
X69120000Y-77740000D03*
X69120000Y-75200000D03*
X58960000Y-75200000D03*
X58960000Y-77740000D03*
X58960000Y-80280000D03*
X61500000Y-80280000D03*
X61500000Y-77740000D03*
X61500000Y-75200000D03*
X56420000Y-75200000D03*
X56420000Y-77740000D03*
X56420000Y-80280000D03*
X53880000Y-80280000D03*
X53880000Y-77740000D03*
X53880000Y-75200000D03*
X53880000Y-67580000D03*
X53880000Y-70120000D03*
X53880000Y-72660000D03*
X56420000Y-72660000D03*
X56420000Y-70120000D03*
X56420000Y-67580000D03*
X61500000Y-67580000D03*
X61500000Y-70120000D03*
X61500000Y-72660000D03*
X58960000Y-72660000D03*
X58960000Y-70120000D03*
X58960000Y-67580000D03*
X69120000Y-67580000D03*
X69120000Y-70120000D03*
X69120000Y-72660000D03*
X71660000Y-72660000D03*
X71660000Y-70120000D03*
X71660000Y-67580000D03*
X66580000Y-67580000D03*
X66580000Y-70120000D03*
X66580000Y-72660000D03*
X64040000Y-72660000D03*
X64040000Y-70120000D03*
X64040000Y-67580000D03*
X79280000Y-67580000D03*
X79280000Y-70120000D03*
X79280000Y-72660000D03*
X81820000Y-72660000D03*
X81820000Y-70120000D03*
X81820000Y-67580000D03*
X74200000Y-67580000D03*
X74200000Y-70120000D03*
X74200000Y-72660000D03*
X76740000Y-72660000D03*
X76740000Y-70120000D03*
X76740000Y-67580000D03*
X76740000Y-82820000D03*
X76740000Y-85360000D03*
X76740000Y-87900000D03*
X74200000Y-87900000D03*
X74200000Y-85360000D03*
X74200000Y-82820000D03*
X81820000Y-82820000D03*
X81820000Y-85360000D03*
X81820000Y-87900000D03*
X79280000Y-87900000D03*
X79280000Y-85360000D03*
X79280000Y-82820000D03*
X64040000Y-82820000D03*
X64040000Y-85360000D03*
X64040000Y-87900000D03*
X66580000Y-87900000D03*
X66580000Y-85360000D03*
X66580000Y-82820000D03*
X71660000Y-82820000D03*
X71660000Y-85360000D03*
X71660000Y-87900000D03*
X69120000Y-87900000D03*
X69120000Y-85360000D03*
X69120000Y-82820000D03*
X58960000Y-82820000D03*
X58960000Y-85360000D03*
X58960000Y-87900000D03*
X61500000Y-87900000D03*
X61500000Y-85360000D03*
X61500000Y-82820000D03*
X56420000Y-82820000D03*
X56420000Y-85360000D03*
X56420000Y-87900000D03*
X53880000Y-87900000D03*
X53880000Y-85360000D03*
X53880000Y-82820000D03*
X53880000Y-90440000D03*
X53880000Y-92980000D03*
X53880000Y-95520000D03*
X56420000Y-95520000D03*
X56420000Y-92980000D03*
X56420000Y-90440000D03*
X61500000Y-90440000D03*
X61500000Y-92980000D03*
X61500000Y-95520000D03*
X58960000Y-95520000D03*
X58960000Y-92980000D03*
X58960000Y-90440000D03*
X69120000Y-90440000D03*
X69120000Y-92980000D03*
X69120000Y-95520000D03*
X71660000Y-95520000D03*
X71660000Y-92980000D03*
X71660000Y-90440000D03*
X66580000Y-90440000D03*
X66580000Y-92980000D03*
X66580000Y-95520000D03*
X64040000Y-95520000D03*
X64040000Y-92980000D03*
X64040000Y-90440000D03*
X79280000Y-90440000D03*
X79280000Y-92980000D03*
X79280000Y-95520000D03*
X81820000Y-95520000D03*
X81820000Y-92980000D03*
X81820000Y-90440000D03*
X74200000Y-90440000D03*
X74200000Y-92980000D03*
X74200000Y-95520000D03*
X76740000Y-95520000D03*
X76740000Y-92980000D03*
X76740000Y-90440000D03*
X76740000Y-120920000D03*
X76740000Y-123460000D03*
X76740000Y-126000000D03*
X74200000Y-126000000D03*
X74200000Y-123460000D03*
X74200000Y-120920000D03*
X81820000Y-120920000D03*
X81820000Y-123460000D03*
X81820000Y-126000000D03*
X79280000Y-126000000D03*
X79280000Y-123460000D03*
X79280000Y-120920000D03*
X64040000Y-120920000D03*
X64040000Y-123460000D03*
X64040000Y-126000000D03*
X66580000Y-126000000D03*
X66580000Y-123460000D03*
X66580000Y-120920000D03*
X71660000Y-120920000D03*
X71660000Y-123460000D03*
X71660000Y-126000000D03*
X69120000Y-126000000D03*
X69120000Y-123460000D03*
X69120000Y-120920000D03*
X58960000Y-120920000D03*
X58960000Y-123460000D03*
X58960000Y-126000000D03*
X61500000Y-126000000D03*
X61500000Y-123460000D03*
X61500000Y-120920000D03*
X56420000Y-120920000D03*
X56420000Y-123460000D03*
X56420000Y-126000000D03*
X53880000Y-126000000D03*
X53880000Y-123460000D03*
X53880000Y-120920000D03*
X53880000Y-113300000D03*
X53880000Y-115840000D03*
X53880000Y-118380000D03*
X56420000Y-118380000D03*
X56420000Y-115840000D03*
X56420000Y-113300000D03*
X61500000Y-113300000D03*
X61500000Y-115840000D03*
X61500000Y-118380000D03*
X58960000Y-118380000D03*
X58960000Y-115840000D03*
X58960000Y-113300000D03*
X69120000Y-113300000D03*
X69120000Y-115840000D03*
X69120000Y-118380000D03*
X71660000Y-118380000D03*
X71660000Y-115840000D03*
X71660000Y-113300000D03*
X66580000Y-113300000D03*
X66580000Y-115840000D03*
X66580000Y-118380000D03*
X64040000Y-118380000D03*
X64040000Y-115840000D03*
X64040000Y-113300000D03*
X79280000Y-113300000D03*
X79280000Y-115840000D03*
X79280000Y-118380000D03*
X81820000Y-118380000D03*
X81820000Y-115840000D03*
X81820000Y-113300000D03*
X74200000Y-113300000D03*
X74200000Y-115840000D03*
X74200000Y-118380000D03*
X76740000Y-118380000D03*
X76740000Y-115840000D03*
X76740000Y-113300000D03*
X76740000Y-98060000D03*
X76740000Y-100600000D03*
X76740000Y-103140000D03*
X74200000Y-103140000D03*
X74200000Y-100600000D03*
X74200000Y-98060000D03*
X81820000Y-98060000D03*
X81820000Y-100600000D03*
X81820000Y-103140000D03*
X79280000Y-103140000D03*
X79280000Y-100600000D03*
X79280000Y-98060000D03*
X64040000Y-98060000D03*
X64040000Y-100600000D03*
X64040000Y-103140000D03*
X66580000Y-103140000D03*
X66580000Y-100600000D03*
X66580000Y-98060000D03*
X71660000Y-98060000D03*
X71660000Y-100600000D03*
X71660000Y-103140000D03*
X69120000Y-103140000D03*
X69120000Y-100600000D03*
X69120000Y-98060000D03*
X58960000Y-98060000D03*
X58960000Y-100600000D03*
X58960000Y-103140000D03*
X61500000Y-103140000D03*
X61500000Y-100600000D03*
X61500000Y-98060000D03*
X56420000Y-98060000D03*
X56420000Y-100600000D03*
X56420000Y-103140000D03*
X53880000Y-103140000D03*
X53880000Y-100600000D03*
X53880000Y-98060000D03*
X53880000Y-105680000D03*
X53880000Y-108220000D03*
X53880000Y-110760000D03*
X56420000Y-110760000D03*
X56420000Y-108220000D03*
X56420000Y-105680000D03*
X61500000Y-105680000D03*
X61500000Y-108220000D03*
X61500000Y-110760000D03*
X58960000Y-110760000D03*
X58960000Y-108220000D03*
X58960000Y-105680000D03*
X69120000Y-105680000D03*
X69120000Y-108220000D03*
X69120000Y-110760000D03*
X71660000Y-110760000D03*
X71660000Y-108220000D03*
X71660000Y-105680000D03*
X66580000Y-105680000D03*
X66580000Y-108220000D03*
X66580000Y-110760000D03*
X64040000Y-110760000D03*
X64040000Y-108220000D03*
X64040000Y-105680000D03*
X79280000Y-105680000D03*
X79280000Y-108220000D03*
X79280000Y-110760000D03*
X81820000Y-110760000D03*
X81820000Y-108220000D03*
X81820000Y-105680000D03*
X74200000Y-105680000D03*
X74200000Y-108220000D03*
X74200000Y-110760000D03*
X76740000Y-110760000D03*
X76740000Y-108220000D03*
X76740000Y-105680000D03*
X147860000Y-136160000D03*
X147860000Y-138700000D03*
X147860000Y-141240000D03*
X147860000Y-133620000D03*
X147860000Y-131080000D03*
X147860000Y-128540000D03*
X119920000Y-136160000D03*
X119920000Y-138700000D03*
X119920000Y-141240000D03*
X117380000Y-141240000D03*
X117380000Y-138700000D03*
X117380000Y-136160000D03*
X127540000Y-136160000D03*
X127540000Y-138700000D03*
X127540000Y-141240000D03*
X130080000Y-141240000D03*
X130080000Y-138700000D03*
X130080000Y-136160000D03*
X125000000Y-136160000D03*
X125000000Y-138700000D03*
X125000000Y-141240000D03*
X122460000Y-141240000D03*
X122460000Y-138700000D03*
X122460000Y-136160000D03*
X137700000Y-136160000D03*
X137700000Y-138700000D03*
X137700000Y-141240000D03*
X140240000Y-141240000D03*
X140240000Y-138700000D03*
X140240000Y-136160000D03*
X145320000Y-136160000D03*
X145320000Y-138700000D03*
X145320000Y-141240000D03*
X142780000Y-141240000D03*
X142780000Y-138700000D03*
X142780000Y-136160000D03*
X132620000Y-136160000D03*
X132620000Y-138700000D03*
X132620000Y-141240000D03*
X135160000Y-141240000D03*
X135160000Y-138700000D03*
X135160000Y-136160000D03*
X137700000Y-128540000D03*
X137700000Y-131080000D03*
X137700000Y-133620000D03*
X135160000Y-133620000D03*
X135160000Y-131080000D03*
X135160000Y-128540000D03*
X142780000Y-128540000D03*
X142780000Y-131080000D03*
X142780000Y-133620000D03*
X140240000Y-133620000D03*
X140240000Y-131080000D03*
X140240000Y-128540000D03*
X125000000Y-128540000D03*
X125000000Y-131080000D03*
X125000000Y-133620000D03*
X127540000Y-133620000D03*
X127540000Y-131080000D03*
X127540000Y-128540000D03*
X132620000Y-128540000D03*
X132620000Y-131080000D03*
X132620000Y-133620000D03*
X130080000Y-133620000D03*
X130080000Y-131080000D03*
X130080000Y-128540000D03*
X119920000Y-128540000D03*
X119920000Y-131080000D03*
X119920000Y-133620000D03*
X122460000Y-133620000D03*
X122460000Y-131080000D03*
X122460000Y-128540000D03*
X117380000Y-128540000D03*
X117380000Y-131080000D03*
X117380000Y-133620000D03*
X145320000Y-133620000D03*
X145320000Y-131080000D03*
X145320000Y-128540000D03*
X76740000Y-136160000D03*
X76740000Y-138700000D03*
X76740000Y-141240000D03*
X74200000Y-141240000D03*
X74200000Y-138700000D03*
X74200000Y-136160000D03*
X84360000Y-136160000D03*
X84360000Y-138700000D03*
X84360000Y-141240000D03*
X81820000Y-136160000D03*
X81820000Y-138700000D03*
X81820000Y-141240000D03*
X79280000Y-141240000D03*
X79280000Y-138700000D03*
X79280000Y-136160000D03*
X64040000Y-136160000D03*
X64040000Y-138700000D03*
X64040000Y-141240000D03*
X66580000Y-141240000D03*
X66580000Y-138700000D03*
X66580000Y-136160000D03*
X71660000Y-136160000D03*
X71660000Y-138700000D03*
X71660000Y-141240000D03*
X69120000Y-141240000D03*
X69120000Y-138700000D03*
X69120000Y-136160000D03*
X58960000Y-136160000D03*
X58960000Y-138700000D03*
X58960000Y-141240000D03*
X61500000Y-141240000D03*
X61500000Y-138700000D03*
X61500000Y-136160000D03*
X56420000Y-136160000D03*
X56420000Y-138700000D03*
X56420000Y-141240000D03*
X53880000Y-141240000D03*
X53880000Y-138700000D03*
X53880000Y-136160000D03*
X53880000Y-128540000D03*
X53880000Y-131080000D03*
X53880000Y-133620000D03*
X56420000Y-133620000D03*
X56420000Y-131080000D03*
X56420000Y-128540000D03*
X61500000Y-128540000D03*
X61500000Y-131080000D03*
X61500000Y-133620000D03*
X58960000Y-133620000D03*
X58960000Y-131080000D03*
X58960000Y-128540000D03*
X69120000Y-128540000D03*
X69120000Y-131080000D03*
X69120000Y-133620000D03*
X71660000Y-133620000D03*
X71660000Y-131080000D03*
X71660000Y-128540000D03*
X66580000Y-128540000D03*
X66580000Y-131080000D03*
X66580000Y-133620000D03*
X64040000Y-133620000D03*
X64040000Y-131080000D03*
X64040000Y-128540000D03*
X79280000Y-128540000D03*
X79280000Y-131080000D03*
X79280000Y-133620000D03*
X81820000Y-133620000D03*
X81820000Y-131080000D03*
X81820000Y-128540000D03*
X84360000Y-133620000D03*
X84360000Y-131080000D03*
X84360000Y-128540000D03*
X74200000Y-128540000D03*
X74200000Y-131080000D03*
X74200000Y-133620000D03*
X76740000Y-133620000D03*
X76740000Y-131080000D03*
X76740000Y-128540000D03*
X147860000Y-143780000D03*
X147860000Y-146320000D03*
X147860000Y-148860000D03*
X117380000Y-143780000D03*
X117380000Y-146320000D03*
X117380000Y-148860000D03*
X119920000Y-148860000D03*
X119920000Y-146320000D03*
X119920000Y-143780000D03*
X125000000Y-143780000D03*
X125000000Y-146320000D03*
X125000000Y-148860000D03*
X122460000Y-148860000D03*
X122460000Y-146320000D03*
X122460000Y-143780000D03*
X132620000Y-143780000D03*
X132620000Y-146320000D03*
X132620000Y-148860000D03*
X135160000Y-148860000D03*
X135160000Y-146320000D03*
X135160000Y-143780000D03*
X130080000Y-143780000D03*
X130080000Y-146320000D03*
X130080000Y-148860000D03*
X127540000Y-148860000D03*
X127540000Y-146320000D03*
X127540000Y-143780000D03*
X142780000Y-143780000D03*
X142780000Y-146320000D03*
X142780000Y-148860000D03*
X145320000Y-148860000D03*
X145320000Y-146320000D03*
X145320000Y-143780000D03*
X137700000Y-143780000D03*
X137700000Y-146320000D03*
X137700000Y-148860000D03*
X140240000Y-148860000D03*
X140240000Y-146320000D03*
X140240000Y-143780000D03*
X76740000Y-143780000D03*
X76740000Y-146320000D03*
X76740000Y-148860000D03*
X74200000Y-148860000D03*
X74200000Y-146320000D03*
X74200000Y-143780000D03*
X84360000Y-143780000D03*
X84360000Y-146320000D03*
X84360000Y-148860000D03*
X81820000Y-143780000D03*
X81820000Y-146320000D03*
X81820000Y-148860000D03*
X79280000Y-148860000D03*
X79280000Y-146320000D03*
X79280000Y-143780000D03*
X64040000Y-143780000D03*
X64040000Y-146320000D03*
X64040000Y-148860000D03*
X66580000Y-148860000D03*
X66580000Y-146320000D03*
X66580000Y-143780000D03*
X71660000Y-143780000D03*
X71660000Y-146320000D03*
X71660000Y-148860000D03*
X69120000Y-148860000D03*
X69120000Y-146320000D03*
X69120000Y-143780000D03*
X58960000Y-143780000D03*
X58960000Y-146320000D03*
X58960000Y-148860000D03*
X61500000Y-148860000D03*
X61500000Y-146320000D03*
X61500000Y-143780000D03*
X56420000Y-143780000D03*
X56420000Y-146320000D03*
X56420000Y-148860000D03*
X53880000Y-148860000D03*
X53880000Y-146320000D03*
X53880000Y-143780000D03*
X53880000Y-151400000D03*
X53880000Y-153940000D03*
X53880000Y-156480000D03*
X56420000Y-156480000D03*
X56420000Y-153940000D03*
X56420000Y-151400000D03*
X61500000Y-151400000D03*
X61500000Y-153940000D03*
X61500000Y-156480000D03*
X58960000Y-156480000D03*
X58960000Y-153940000D03*
X58960000Y-151400000D03*
X69120000Y-151400000D03*
X69120000Y-153940000D03*
X69120000Y-156480000D03*
X71660000Y-156480000D03*
X71660000Y-153940000D03*
X71660000Y-151400000D03*
X66580000Y-151400000D03*
X66580000Y-153940000D03*
X66580000Y-156480000D03*
X64040000Y-156480000D03*
X64040000Y-153940000D03*
X64040000Y-151400000D03*
X79280000Y-151400000D03*
X79280000Y-153940000D03*
X79280000Y-156480000D03*
X81820000Y-156480000D03*
X81820000Y-153940000D03*
X81820000Y-151400000D03*
X84360000Y-156480000D03*
X84360000Y-153940000D03*
X84360000Y-151400000D03*
X74200000Y-151400000D03*
X74200000Y-153940000D03*
X74200000Y-156480000D03*
X76740000Y-156480000D03*
X76740000Y-153940000D03*
X76740000Y-151400000D03*
X137700000Y-151400000D03*
X137700000Y-153940000D03*
X137700000Y-156480000D03*
X135160000Y-156480000D03*
X135160000Y-153940000D03*
X135160000Y-151400000D03*
X145320000Y-151400000D03*
X145320000Y-153940000D03*
X145320000Y-156480000D03*
X147860000Y-156480000D03*
X147860000Y-153940000D03*
X147860000Y-151400000D03*
X142780000Y-151400000D03*
X142780000Y-153940000D03*
X142780000Y-156480000D03*
X140240000Y-156480000D03*
X140240000Y-153940000D03*
X140240000Y-151400000D03*
X125000000Y-151400000D03*
X125000000Y-153940000D03*
X125000000Y-156480000D03*
X127540000Y-156480000D03*
X127540000Y-153940000D03*
X127540000Y-151400000D03*
X132620000Y-151400000D03*
X132620000Y-153940000D03*
X132620000Y-156480000D03*
X130080000Y-156480000D03*
X130080000Y-153940000D03*
X130080000Y-151400000D03*
X119920000Y-151400000D03*
X119920000Y-153940000D03*
X119920000Y-156480000D03*
X122460000Y-156480000D03*
X122460000Y-153940000D03*
X122460000Y-151400000D03*
X117380000Y-151400000D03*
X117380000Y-153940000D03*
X117380000Y-156480000D03*
X89440000Y-131080000D03*
X89440000Y-133620000D03*
X89440000Y-136160000D03*
X89440000Y-138700000D03*
X89440000Y-141240000D03*
X89440000Y-143780000D03*
X89440000Y-146320000D03*
X89440000Y-148860000D03*
X112300000Y-148860000D03*
X112300000Y-146320000D03*
X112300000Y-143780000D03*
X112300000Y-141240000D03*
X112300000Y-138700000D03*
X112300000Y-136160000D03*
X112300000Y-133620000D03*
X112300000Y-131080000D03*
D12*
X102140000Y-123460000D03*
D13*
X99600000Y-123460000D03*
D14*
X114840000Y-131080000D03*
D15*
X114840000Y-133620000D03*
X114840000Y-136160000D03*
X114840000Y-138700000D03*
X114840000Y-141240000D03*
X114840000Y-143780000D03*
X114840000Y-146320000D03*
X114840000Y-148860000D03*
D14*
X86900000Y-148860000D03*
D15*
X86900000Y-146320000D03*
X86900000Y-143780000D03*
X86900000Y-141240000D03*
X86900000Y-138700000D03*
X86900000Y-136160000D03*
X86900000Y-133620000D03*
X86900000Y-131080000D03*
D16*
X107370000Y-136820000D03*
X104870000Y-136820000D03*
X96870000Y-136820000D03*
X94370000Y-136820000D03*
X96870000Y-155820000D03*
X94370000Y-155820000D03*
X107370000Y-155820000D03*
X104870000Y-155820000D03*
D17*
X114840000Y-151400000D03*
D12*
X86900000Y-153940000D03*
D13*
X86900000Y-156480000D03*
D17*
X86900000Y-151400000D03*
D12*
X114840000Y-153940000D03*
D13*
X114840000Y-156480000D03*
D18*
X103410000Y-150765000D03*
X100870000Y-147590000D03*
D19*
X104870000Y-155820000D02*
X104870000Y-152225000D01*
X104870000Y-152225000D02*
X103410000Y-150765000D01*
X114840000Y-156480000D02*
X114840000Y-153940000D01*
X114840000Y-153940000D02*
X107220000Y-153940000D01*
X107220000Y-153940000D02*
X106585000Y-153305000D01*
X106585000Y-153305000D02*
X106585000Y-149495000D01*
X106585000Y-149495000D02*
X104680000Y-147590000D01*
X104680000Y-147590000D02*
X100870000Y-147590000D01*
D20*
G36*
X112808000Y-129539676D02*
X112332032Y-129445000D01*
X112267968Y-129445000D01*
X111642281Y-129569457D01*
X111111848Y-129923880D01*
X110757425Y-130454313D01*
X110632968Y-131080000D01*
X110757425Y-131705687D01*
X111111848Y-132236120D01*
X111282282Y-132350000D01*
X111111848Y-132463880D01*
X110757425Y-132994313D01*
X110632968Y-133620000D01*
X110757425Y-134245687D01*
X111111848Y-134776120D01*
X111282282Y-134890000D01*
X111111848Y-135003880D01*
X110757425Y-135534313D01*
X110632968Y-136160000D01*
X110757425Y-136785687D01*
X111111848Y-137316120D01*
X111282282Y-137430000D01*
X111111848Y-137543880D01*
X110757425Y-138074313D01*
X110632968Y-138700000D01*
X110757425Y-139325687D01*
X111111848Y-139856120D01*
X111282282Y-139970000D01*
X111111848Y-140083880D01*
X110757425Y-140614313D01*
X110632968Y-141240000D01*
X110757425Y-141865687D01*
X111111848Y-142396120D01*
X111282282Y-142510000D01*
X111111848Y-142623880D01*
X110757425Y-143154313D01*
X110632968Y-143780000D01*
X110757425Y-144405687D01*
X111111848Y-144936120D01*
X111287340Y-145053379D01*
X110906598Y-145464615D01*
X110709876Y-145939566D01*
X110829223Y-146193000D01*
X112173000Y-146193000D01*
X112173000Y-146173000D01*
X112427000Y-146173000D01*
X112427000Y-146193000D01*
X112447000Y-146193000D01*
X112447000Y-146447000D01*
X112427000Y-146447000D01*
X112427000Y-146467000D01*
X112173000Y-146467000D01*
X112173000Y-146447000D01*
X110829223Y-146447000D01*
X110709876Y-146700434D01*
X110906598Y-147175385D01*
X111287340Y-147586621D01*
X111111848Y-147703880D01*
X110757425Y-148234313D01*
X110632968Y-148860000D01*
X110757425Y-149485687D01*
X111111848Y-150016120D01*
X111642281Y-150370543D01*
X112267968Y-150495000D01*
X112332032Y-150495000D01*
X112808000Y-150400324D01*
X112808000Y-152805000D01*
X107720000Y-152805000D01*
X107720000Y-149495000D01*
X107633603Y-149060654D01*
X107387566Y-148692434D01*
X105482566Y-146787434D01*
X105284122Y-146654838D01*
X105114346Y-146541397D01*
X104680000Y-146455000D01*
X100870000Y-146455000D01*
X100435654Y-146541397D01*
X100067434Y-146787434D01*
X99821397Y-147155654D01*
X99735000Y-147590000D01*
X99821397Y-148024346D01*
X100067434Y-148392566D01*
X100435654Y-148638603D01*
X100870000Y-148725000D01*
X104209868Y-148725000D01*
X105450000Y-149965132D01*
X105450000Y-153305000D01*
X105536397Y-153739346D01*
X105670470Y-153940000D01*
X105782434Y-154107566D01*
X106417434Y-154742566D01*
X106582394Y-154852789D01*
X107370000Y-155640395D01*
X107384143Y-155626253D01*
X107563748Y-155805858D01*
X107549605Y-155820000D01*
X107563748Y-155834143D01*
X107384143Y-156013748D01*
X107370000Y-155999605D01*
X107355858Y-156013748D01*
X107176253Y-155834143D01*
X107190395Y-155820000D01*
X106217468Y-154847073D01*
X106120000Y-154883109D01*
X106022532Y-154847073D01*
X105049605Y-155820000D01*
X105063748Y-155834143D01*
X104884143Y-156013748D01*
X104870000Y-155999605D01*
X104855858Y-156013748D01*
X104676253Y-155834143D01*
X104690395Y-155820000D01*
X103717468Y-154847073D01*
X103450613Y-154945736D01*
X103224092Y-155555461D01*
X103248144Y-156205460D01*
X103450613Y-156694264D01*
X103717466Y-156792926D01*
X103603186Y-156907206D01*
X103683980Y-156988000D01*
X98014220Y-156988000D01*
X98255278Y-156747363D01*
X98504716Y-156146648D01*
X98505284Y-155496205D01*
X98256894Y-154895057D01*
X98029703Y-154667468D01*
X103897073Y-154667468D01*
X104870000Y-155640395D01*
X105842927Y-154667468D01*
X105744264Y-154400613D01*
X105134539Y-154174092D01*
X104484540Y-154198144D01*
X103995736Y-154400613D01*
X103897073Y-154667468D01*
X98029703Y-154667468D01*
X97797363Y-154434722D01*
X97196648Y-154185284D01*
X96546205Y-154184716D01*
X95945057Y-154433106D01*
X95619836Y-154757759D01*
X95297363Y-154434722D01*
X94696648Y-154185284D01*
X94046205Y-154184716D01*
X93445057Y-154433106D01*
X92984722Y-154892637D01*
X92735284Y-155493352D01*
X92734716Y-156143795D01*
X92983106Y-156744943D01*
X93225738Y-156988000D01*
X88932000Y-156988000D01*
X88932000Y-150400324D01*
X89407968Y-150495000D01*
X89472032Y-150495000D01*
X90097719Y-150370543D01*
X90628152Y-150016120D01*
X90982575Y-149485687D01*
X91107032Y-148860000D01*
X90982575Y-148234313D01*
X90628152Y-147703880D01*
X90457718Y-147590000D01*
X90628152Y-147476120D01*
X90982575Y-146945687D01*
X91107032Y-146320000D01*
X90982575Y-145694313D01*
X90628152Y-145163880D01*
X90457718Y-145050000D01*
X90628152Y-144936120D01*
X90982575Y-144405687D01*
X91107032Y-143780000D01*
X90982575Y-143154313D01*
X90628152Y-142623880D01*
X90457718Y-142510000D01*
X90628152Y-142396120D01*
X90982575Y-141865687D01*
X91107032Y-141240000D01*
X90982575Y-140614313D01*
X90628152Y-140083880D01*
X90457718Y-139970000D01*
X90628152Y-139856120D01*
X90982575Y-139325687D01*
X91107032Y-138700000D01*
X90982575Y-138074313D01*
X90628152Y-137543880D01*
X90457718Y-137430000D01*
X90628152Y-137316120D01*
X90743295Y-137143795D01*
X92734716Y-137143795D01*
X92983106Y-137744943D01*
X93442637Y-138205278D01*
X94043352Y-138454716D01*
X94693795Y-138455284D01*
X95294943Y-138206894D01*
X95620164Y-137882241D01*
X95942637Y-138205278D01*
X96543352Y-138454716D01*
X97193795Y-138455284D01*
X97794943Y-138206894D01*
X98029715Y-137972532D01*
X103897073Y-137972532D01*
X103995736Y-138239387D01*
X104605461Y-138465908D01*
X105255460Y-138441856D01*
X105744264Y-138239387D01*
X105842927Y-137972532D01*
X106397073Y-137972532D01*
X106495736Y-138239387D01*
X107105461Y-138465908D01*
X107755460Y-138441856D01*
X108244264Y-138239387D01*
X108342927Y-137972532D01*
X107370000Y-136999605D01*
X106397073Y-137972532D01*
X105842927Y-137972532D01*
X104870000Y-136999605D01*
X103897073Y-137972532D01*
X98029715Y-137972532D01*
X98255278Y-137747363D01*
X98504716Y-137146648D01*
X98505232Y-136555461D01*
X103224092Y-136555461D01*
X103248144Y-137205460D01*
X103450613Y-137694264D01*
X103717468Y-137792927D01*
X104690395Y-136820000D01*
X105049605Y-136820000D01*
X106022532Y-137792927D01*
X106120000Y-137756891D01*
X106217468Y-137792927D01*
X107190395Y-136820000D01*
X107549605Y-136820000D01*
X108522532Y-137792927D01*
X108789387Y-137694264D01*
X109015908Y-137084539D01*
X108991856Y-136434540D01*
X108789387Y-135945736D01*
X108522532Y-135847073D01*
X107549605Y-136820000D01*
X107190395Y-136820000D01*
X106217468Y-135847073D01*
X106120000Y-135883109D01*
X106022532Y-135847073D01*
X105049605Y-136820000D01*
X104690395Y-136820000D01*
X103717468Y-135847073D01*
X103450613Y-135945736D01*
X103224092Y-136555461D01*
X98505232Y-136555461D01*
X98505284Y-136496205D01*
X98256894Y-135895057D01*
X98029703Y-135667468D01*
X103897073Y-135667468D01*
X104870000Y-136640395D01*
X105842927Y-135667468D01*
X106397073Y-135667468D01*
X107370000Y-136640395D01*
X108342927Y-135667468D01*
X108244264Y-135400613D01*
X107634539Y-135174092D01*
X106984540Y-135198144D01*
X106495736Y-135400613D01*
X106397073Y-135667468D01*
X105842927Y-135667468D01*
X105744264Y-135400613D01*
X105134539Y-135174092D01*
X104484540Y-135198144D01*
X103995736Y-135400613D01*
X103897073Y-135667468D01*
X98029703Y-135667468D01*
X97797363Y-135434722D01*
X97196648Y-135185284D01*
X96546205Y-135184716D01*
X95945057Y-135433106D01*
X95619836Y-135757759D01*
X95297363Y-135434722D01*
X94696648Y-135185284D01*
X94046205Y-135184716D01*
X93445057Y-135433106D01*
X92984722Y-135892637D01*
X92735284Y-136493352D01*
X92734716Y-137143795D01*
X90743295Y-137143795D01*
X90982575Y-136785687D01*
X91107032Y-136160000D01*
X90982575Y-135534313D01*
X90628152Y-135003880D01*
X90457718Y-134890000D01*
X90628152Y-134776120D01*
X90982575Y-134245687D01*
X91107032Y-133620000D01*
X90982575Y-132994313D01*
X90628152Y-132463880D01*
X90457718Y-132350000D01*
X90628152Y-132236120D01*
X90982575Y-131705687D01*
X91107032Y-131080000D01*
X90982575Y-130454313D01*
X90628152Y-129923880D01*
X90097719Y-129569457D01*
X89472032Y-129445000D01*
X89407968Y-129445000D01*
X88932000Y-129539676D01*
X88932000Y-125492000D01*
X112808000Y-125492000D01*
X112808000Y-129539676D01*
X112808000Y-129539676D01*
G37*
X112808000Y-129539676D02*
X112332032Y-129445000D01*
X112267968Y-129445000D01*
X111642281Y-129569457D01*
X111111848Y-129923880D01*
X110757425Y-130454313D01*
X110632968Y-131080000D01*
X110757425Y-131705687D01*
X111111848Y-132236120D01*
X111282282Y-132350000D01*
X111111848Y-132463880D01*
X110757425Y-132994313D01*
X110632968Y-133620000D01*
X110757425Y-134245687D01*
X111111848Y-134776120D01*
X111282282Y-134890000D01*
X111111848Y-135003880D01*
X110757425Y-135534313D01*
X110632968Y-136160000D01*
X110757425Y-136785687D01*
X111111848Y-137316120D01*
X111282282Y-137430000D01*
X111111848Y-137543880D01*
X110757425Y-138074313D01*
X110632968Y-138700000D01*
X110757425Y-139325687D01*
X111111848Y-139856120D01*
X111282282Y-139970000D01*
X111111848Y-140083880D01*
X110757425Y-140614313D01*
X110632968Y-141240000D01*
X110757425Y-141865687D01*
X111111848Y-142396120D01*
X111282282Y-142510000D01*
X111111848Y-142623880D01*
X110757425Y-143154313D01*
X110632968Y-143780000D01*
X110757425Y-144405687D01*
X111111848Y-144936120D01*
X111287340Y-145053379D01*
X110906598Y-145464615D01*
X110709876Y-145939566D01*
X110829223Y-146193000D01*
X112173000Y-146193000D01*
X112173000Y-146173000D01*
X112427000Y-146173000D01*
X112427000Y-146193000D01*
X112447000Y-146193000D01*
X112447000Y-146447000D01*
X112427000Y-146447000D01*
X112427000Y-146467000D01*
X112173000Y-146467000D01*
X112173000Y-146447000D01*
X110829223Y-146447000D01*
X110709876Y-146700434D01*
X110906598Y-147175385D01*
X111287340Y-147586621D01*
X111111848Y-147703880D01*
X110757425Y-148234313D01*
X110632968Y-148860000D01*
X110757425Y-149485687D01*
X111111848Y-150016120D01*
X111642281Y-150370543D01*
X112267968Y-150495000D01*
X112332032Y-150495000D01*
X112808000Y-150400324D01*
X112808000Y-152805000D01*
X107720000Y-152805000D01*
X107720000Y-149495000D01*
X107633603Y-149060654D01*
X107387566Y-148692434D01*
X105482566Y-146787434D01*
X105284122Y-146654838D01*
X105114346Y-146541397D01*
X104680000Y-146455000D01*
X100870000Y-146455000D01*
X100435654Y-146541397D01*
X100067434Y-146787434D01*
X99821397Y-147155654D01*
X99735000Y-147590000D01*
X99821397Y-148024346D01*
X100067434Y-148392566D01*
X100435654Y-148638603D01*
X100870000Y-148725000D01*
X104209868Y-148725000D01*
X105450000Y-149965132D01*
X105450000Y-153305000D01*
X105536397Y-153739346D01*
X105670470Y-153940000D01*
X105782434Y-154107566D01*
X106417434Y-154742566D01*
X106582394Y-154852789D01*
X107370000Y-155640395D01*
X107384143Y-155626253D01*
X107563748Y-155805858D01*
X107549605Y-155820000D01*
X107563748Y-155834143D01*
X107384143Y-156013748D01*
X107370000Y-155999605D01*
X107355858Y-156013748D01*
X107176253Y-155834143D01*
X107190395Y-155820000D01*
X106217468Y-154847073D01*
X106120000Y-154883109D01*
X106022532Y-154847073D01*
X105049605Y-155820000D01*
X105063748Y-155834143D01*
X104884143Y-156013748D01*
X104870000Y-155999605D01*
X104855858Y-156013748D01*
X104676253Y-155834143D01*
X104690395Y-155820000D01*
X103717468Y-154847073D01*
X103450613Y-154945736D01*
X103224092Y-155555461D01*
X103248144Y-156205460D01*
X103450613Y-156694264D01*
X103717466Y-156792926D01*
X103603186Y-156907206D01*
X103683980Y-156988000D01*
X98014220Y-156988000D01*
X98255278Y-156747363D01*
X98504716Y-156146648D01*
X98505284Y-155496205D01*
X98256894Y-154895057D01*
X98029703Y-154667468D01*
X103897073Y-154667468D01*
X104870000Y-155640395D01*
X105842927Y-154667468D01*
X105744264Y-154400613D01*
X105134539Y-154174092D01*
X104484540Y-154198144D01*
X103995736Y-154400613D01*
X103897073Y-154667468D01*
X98029703Y-154667468D01*
X97797363Y-154434722D01*
X97196648Y-154185284D01*
X96546205Y-154184716D01*
X95945057Y-154433106D01*
X95619836Y-154757759D01*
X95297363Y-154434722D01*
X94696648Y-154185284D01*
X94046205Y-154184716D01*
X93445057Y-154433106D01*
X92984722Y-154892637D01*
X92735284Y-155493352D01*
X92734716Y-156143795D01*
X92983106Y-156744943D01*
X93225738Y-156988000D01*
X88932000Y-156988000D01*
X88932000Y-150400324D01*
X89407968Y-150495000D01*
X89472032Y-150495000D01*
X90097719Y-150370543D01*
X90628152Y-150016120D01*
X90982575Y-149485687D01*
X91107032Y-148860000D01*
X90982575Y-148234313D01*
X90628152Y-147703880D01*
X90457718Y-147590000D01*
X90628152Y-147476120D01*
X90982575Y-146945687D01*
X91107032Y-146320000D01*
X90982575Y-145694313D01*
X90628152Y-145163880D01*
X90457718Y-145050000D01*
X90628152Y-144936120D01*
X90982575Y-144405687D01*
X91107032Y-143780000D01*
X90982575Y-143154313D01*
X90628152Y-142623880D01*
X90457718Y-142510000D01*
X90628152Y-142396120D01*
X90982575Y-141865687D01*
X91107032Y-141240000D01*
X90982575Y-140614313D01*
X90628152Y-140083880D01*
X90457718Y-139970000D01*
X90628152Y-139856120D01*
X90982575Y-139325687D01*
X91107032Y-138700000D01*
X90982575Y-138074313D01*
X90628152Y-137543880D01*
X90457718Y-137430000D01*
X90628152Y-137316120D01*
X90743295Y-137143795D01*
X92734716Y-137143795D01*
X92983106Y-137744943D01*
X93442637Y-138205278D01*
X94043352Y-138454716D01*
X94693795Y-138455284D01*
X95294943Y-138206894D01*
X95620164Y-137882241D01*
X95942637Y-138205278D01*
X96543352Y-138454716D01*
X97193795Y-138455284D01*
X97794943Y-138206894D01*
X98029715Y-137972532D01*
X103897073Y-137972532D01*
X103995736Y-138239387D01*
X104605461Y-138465908D01*
X105255460Y-138441856D01*
X105744264Y-138239387D01*
X105842927Y-137972532D01*
X106397073Y-137972532D01*
X106495736Y-138239387D01*
X107105461Y-138465908D01*
X107755460Y-138441856D01*
X108244264Y-138239387D01*
X108342927Y-137972532D01*
X107370000Y-136999605D01*
X106397073Y-137972532D01*
X105842927Y-137972532D01*
X104870000Y-136999605D01*
X103897073Y-137972532D01*
X98029715Y-137972532D01*
X98255278Y-137747363D01*
X98504716Y-137146648D01*
X98505232Y-136555461D01*
X103224092Y-136555461D01*
X103248144Y-137205460D01*
X103450613Y-137694264D01*
X103717468Y-137792927D01*
X104690395Y-136820000D01*
X105049605Y-136820000D01*
X106022532Y-137792927D01*
X106120000Y-137756891D01*
X106217468Y-137792927D01*
X107190395Y-136820000D01*
X107549605Y-136820000D01*
X108522532Y-137792927D01*
X108789387Y-137694264D01*
X109015908Y-137084539D01*
X108991856Y-136434540D01*
X108789387Y-135945736D01*
X108522532Y-135847073D01*
X107549605Y-136820000D01*
X107190395Y-136820000D01*
X106217468Y-135847073D01*
X106120000Y-135883109D01*
X106022532Y-135847073D01*
X105049605Y-136820000D01*
X104690395Y-136820000D01*
X103717468Y-135847073D01*
X103450613Y-135945736D01*
X103224092Y-136555461D01*
X98505232Y-136555461D01*
X98505284Y-136496205D01*
X98256894Y-135895057D01*
X98029703Y-135667468D01*
X103897073Y-135667468D01*
X104870000Y-136640395D01*
X105842927Y-135667468D01*
X106397073Y-135667468D01*
X107370000Y-136640395D01*
X108342927Y-135667468D01*
X108244264Y-135400613D01*
X107634539Y-135174092D01*
X106984540Y-135198144D01*
X106495736Y-135400613D01*
X106397073Y-135667468D01*
X105842927Y-135667468D01*
X105744264Y-135400613D01*
X105134539Y-135174092D01*
X104484540Y-135198144D01*
X103995736Y-135400613D01*
X103897073Y-135667468D01*
X98029703Y-135667468D01*
X97797363Y-135434722D01*
X97196648Y-135185284D01*
X96546205Y-135184716D01*
X95945057Y-135433106D01*
X95619836Y-135757759D01*
X95297363Y-135434722D01*
X94696648Y-135185284D01*
X94046205Y-135184716D01*
X93445057Y-135433106D01*
X92984722Y-135892637D01*
X92735284Y-136493352D01*
X92734716Y-137143795D01*
X90743295Y-137143795D01*
X90982575Y-136785687D01*
X91107032Y-136160000D01*
X90982575Y-135534313D01*
X90628152Y-135003880D01*
X90457718Y-134890000D01*
X90628152Y-134776120D01*
X90982575Y-134245687D01*
X91107032Y-133620000D01*
X90982575Y-132994313D01*
X90628152Y-132463880D01*
X90457718Y-132350000D01*
X90628152Y-132236120D01*
X90982575Y-131705687D01*
X91107032Y-131080000D01*
X90982575Y-130454313D01*
X90628152Y-129923880D01*
X90097719Y-129569457D01*
X89472032Y-129445000D01*
X89407968Y-129445000D01*
X88932000Y-129539676D01*
X88932000Y-125492000D01*
X112808000Y-125492000D01*
X112808000Y-129539676D01*
M02*
