G04 #@! TF.FileFunction,Other,User*
%FSLAX46Y46*%
G04 Gerber Fmt 4.6, Leading zero omitted, Abs format (unit mm)*
G04 Created by KiCad (PCBNEW 4.0.4+e1-6308~48~ubuntu16.04.1-stable) date Sun Jan 29 14:42:06 2017*
%MOMM*%
%LPD*%
G01*
G04 APERTURE LIST*
%ADD10C,0.100000*%
%ADD11C,0.200000*%
%ADD12C,0.300000*%
G04 APERTURE END LIST*
D10*
D11*
X149765000Y-63135000D02*
X51975000Y-63135000D01*
X51975000Y-110760000D02*
X149765000Y-110760000D01*
X51975000Y-63135000D02*
X51975000Y-158385000D01*
X149765000Y-158385000D02*
X149765000Y-63135000D01*
X51975000Y-158385000D02*
X149765000Y-158385000D01*
D12*
X46192857Y-109938571D02*
X46692857Y-111438571D01*
X47192857Y-109938571D01*
X48550000Y-111295714D02*
X48478571Y-111367143D01*
X48264285Y-111438571D01*
X48121428Y-111438571D01*
X47907143Y-111367143D01*
X47764285Y-111224286D01*
X47692857Y-111081429D01*
X47621428Y-110795714D01*
X47621428Y-110581429D01*
X47692857Y-110295714D01*
X47764285Y-110152857D01*
X47907143Y-110010000D01*
X48121428Y-109938571D01*
X48264285Y-109938571D01*
X48478571Y-110010000D01*
X48550000Y-110081429D01*
X49192857Y-109938571D02*
X49192857Y-111152857D01*
X49264285Y-111295714D01*
X49335714Y-111367143D01*
X49478571Y-111438571D01*
X49764285Y-111438571D01*
X49907143Y-111367143D01*
X49978571Y-111295714D01*
X50050000Y-111152857D01*
X50050000Y-109938571D01*
X50550000Y-109938571D02*
X51407143Y-109938571D01*
X50978572Y-111438571D02*
X50978572Y-109938571D01*
M02*
