G04 #@! TF.FileFunction,Copper,L2,Bot,Signal*
%FSLAX46Y46*%
G04 Gerber Fmt 4.6, Leading zero omitted, Abs format (unit mm)*
G04 Created by KiCad (PCBNEW 4.0.4+e1-6308~48~ubuntu16.04.1-stable) date Sun Jan 29 14:42:06 2017*
%MOMM*%
%LPD*%
G01*
G04 APERTURE LIST*
%ADD10C,0.100000*%
%ADD11O,2.000000X2.000000*%
%ADD12R,1.700000X1.700000*%
%ADD13O,1.700000X1.700000*%
%ADD14C,2.000000*%
%ADD15R,2.032000X2.032000*%
%ADD16O,2.032000X2.032000*%
%ADD17C,0.600000*%
%ADD18C,0.500000*%
%ADD19C,0.254000*%
G04 APERTURE END LIST*
D10*
D11*
X127540000Y-70120000D03*
X125000000Y-70120000D03*
X127540000Y-67580000D03*
X125000000Y-67580000D03*
X122460000Y-72660000D03*
X122460000Y-70120000D03*
X119920000Y-72660000D03*
X119920000Y-70120000D03*
X122460000Y-67580000D03*
X119920000Y-67580000D03*
X127540000Y-75200000D03*
X125000000Y-75200000D03*
X130080000Y-72660000D03*
X125000000Y-72660000D03*
X127540000Y-72660000D03*
X130080000Y-67580000D03*
X132620000Y-67580000D03*
X130080000Y-70120000D03*
X132620000Y-70120000D03*
X119920000Y-82820000D03*
X117380000Y-82820000D03*
X119920000Y-80280000D03*
X117380000Y-80280000D03*
X125000000Y-80280000D03*
X122460000Y-77740000D03*
X122460000Y-80280000D03*
X122460000Y-75200000D03*
X125000000Y-77740000D03*
X130080000Y-77740000D03*
X127540000Y-80280000D03*
X127540000Y-77740000D03*
X130080000Y-75200000D03*
X130080000Y-80280000D03*
X117380000Y-77740000D03*
X119920000Y-75200000D03*
X119920000Y-77740000D03*
X117380000Y-75200000D03*
X114840000Y-98060000D03*
X114840000Y-108220000D03*
X114840000Y-105680000D03*
X114840000Y-103140000D03*
X114840000Y-100600000D03*
X119920000Y-87900000D03*
X119920000Y-90440000D03*
X117380000Y-90440000D03*
X117380000Y-87900000D03*
X117380000Y-85360000D03*
X125000000Y-87900000D03*
X125000000Y-85360000D03*
X122460000Y-87900000D03*
X122460000Y-85360000D03*
X119920000Y-85360000D03*
X122460000Y-82820000D03*
X125000000Y-82820000D03*
X130080000Y-82820000D03*
X132620000Y-85360000D03*
X130080000Y-85360000D03*
X130080000Y-87900000D03*
X127540000Y-87900000D03*
X127540000Y-82820000D03*
X127540000Y-85360000D03*
D12*
X114840000Y-70120000D03*
D13*
X114840000Y-67580000D03*
X114840000Y-65040000D03*
D12*
X86900000Y-70120000D03*
D13*
X86900000Y-67580000D03*
X86900000Y-65040000D03*
D12*
X86900000Y-90440000D03*
D13*
X86900000Y-87900000D03*
X86900000Y-85360000D03*
X86900000Y-82820000D03*
X86900000Y-80280000D03*
X86900000Y-77740000D03*
X86900000Y-75200000D03*
X86900000Y-72660000D03*
D11*
X112300000Y-90440000D03*
X112300000Y-87900000D03*
X112300000Y-85360000D03*
X112300000Y-82820000D03*
X112300000Y-80280000D03*
X112300000Y-77740000D03*
X112300000Y-75200000D03*
X112300000Y-72660000D03*
X89440000Y-72660000D03*
X89440000Y-75200000D03*
X89440000Y-77740000D03*
X89440000Y-80280000D03*
X89440000Y-82820000D03*
X89440000Y-85360000D03*
X89440000Y-87900000D03*
X89440000Y-90440000D03*
D14*
X94370000Y-85335000D03*
X96870000Y-85335000D03*
X104870000Y-85335000D03*
X107370000Y-85335000D03*
X104870000Y-66335000D03*
X107370000Y-66335000D03*
X94370000Y-66335000D03*
X96870000Y-66335000D03*
D11*
X114840000Y-72660000D03*
D12*
X114840000Y-75200000D03*
D13*
X114840000Y-77740000D03*
X114840000Y-80280000D03*
X114840000Y-82820000D03*
X114840000Y-85360000D03*
X114840000Y-87900000D03*
X114840000Y-90440000D03*
D11*
X104680000Y-98060000D03*
X109760000Y-103140000D03*
X107220000Y-103140000D03*
X109760000Y-100600000D03*
X107220000Y-100600000D03*
X107220000Y-98060000D03*
D15*
X99600000Y-98060000D03*
D16*
X102140000Y-98060000D03*
D11*
X99600000Y-100600000D03*
X102140000Y-103140000D03*
X104680000Y-100600000D03*
X102140000Y-100600000D03*
X104680000Y-103140000D03*
X112300000Y-103140000D03*
X112300000Y-100600000D03*
X112300000Y-98060000D03*
X109760000Y-98060000D03*
X99600000Y-103140000D03*
X104680000Y-108220000D03*
X102140000Y-105680000D03*
X99600000Y-108220000D03*
X104680000Y-105680000D03*
X99600000Y-105680000D03*
X102140000Y-108220000D03*
X109760000Y-105680000D03*
X107220000Y-105680000D03*
X112300000Y-108220000D03*
X109760000Y-108220000D03*
X107220000Y-108220000D03*
X112300000Y-105680000D03*
X86900000Y-100600000D03*
X86900000Y-98060000D03*
X89440000Y-98060000D03*
X91980000Y-98060000D03*
X91980000Y-100600000D03*
X89440000Y-100600000D03*
X89440000Y-108220000D03*
X86900000Y-105680000D03*
X89440000Y-105680000D03*
X89440000Y-103140000D03*
X86900000Y-103140000D03*
X86900000Y-108220000D03*
X97060000Y-108220000D03*
X94520000Y-105680000D03*
X97060000Y-105680000D03*
X91980000Y-105680000D03*
X91980000Y-108220000D03*
X94520000Y-108220000D03*
X97060000Y-103140000D03*
X97060000Y-100600000D03*
X94520000Y-100600000D03*
X91980000Y-103140000D03*
X94520000Y-98060000D03*
X97060000Y-98060000D03*
X94520000Y-103140000D03*
X76740000Y-108220000D03*
X74200000Y-108220000D03*
X74200000Y-105680000D03*
X71660000Y-105680000D03*
X69120000Y-103140000D03*
X66580000Y-103140000D03*
X66580000Y-100600000D03*
X69120000Y-100600000D03*
X69120000Y-108220000D03*
X66580000Y-108220000D03*
X69120000Y-105680000D03*
X66580000Y-105680000D03*
X71660000Y-108220000D03*
X74200000Y-100600000D03*
X71660000Y-100600000D03*
X71660000Y-103140000D03*
X74200000Y-103140000D03*
X76740000Y-105680000D03*
X76740000Y-103140000D03*
X76740000Y-100600000D03*
X74200000Y-98060000D03*
X71660000Y-98060000D03*
X76740000Y-98060000D03*
X84360000Y-108220000D03*
X84360000Y-105680000D03*
X81820000Y-105680000D03*
X79280000Y-105680000D03*
X79280000Y-108220000D03*
X81820000Y-108220000D03*
X84360000Y-103140000D03*
X84360000Y-100600000D03*
X81820000Y-98060000D03*
X79280000Y-98060000D03*
X84360000Y-98060000D03*
X76740000Y-95520000D03*
X74200000Y-95520000D03*
X76740000Y-92980000D03*
X74200000Y-92980000D03*
X84360000Y-95520000D03*
X79280000Y-92980000D03*
X81820000Y-92980000D03*
X81820000Y-95520000D03*
X79280000Y-95520000D03*
X84360000Y-92980000D03*
X81820000Y-100600000D03*
X79280000Y-100600000D03*
X79280000Y-103140000D03*
X81820000Y-103140000D03*
X58960000Y-108220000D03*
X56420000Y-105680000D03*
X56420000Y-108220000D03*
X53880000Y-105680000D03*
X58960000Y-105680000D03*
X56420000Y-103140000D03*
X53880000Y-103140000D03*
X53880000Y-108220000D03*
X56420000Y-95520000D03*
X53880000Y-92980000D03*
X56420000Y-92980000D03*
X53880000Y-95520000D03*
X58960000Y-103140000D03*
X58960000Y-100600000D03*
X53880000Y-100600000D03*
X56420000Y-98060000D03*
X53880000Y-98060000D03*
X56420000Y-100600000D03*
X64040000Y-108220000D03*
X61500000Y-108220000D03*
X64040000Y-105680000D03*
X64040000Y-103140000D03*
X64040000Y-100600000D03*
X61500000Y-100600000D03*
X61500000Y-103140000D03*
X61500000Y-105680000D03*
X61500000Y-98060000D03*
X58960000Y-98060000D03*
X58960000Y-95520000D03*
X58960000Y-92980000D03*
X61500000Y-95520000D03*
X64040000Y-90440000D03*
X61500000Y-90440000D03*
X64040000Y-87900000D03*
X58960000Y-87900000D03*
X58960000Y-90440000D03*
X61500000Y-87900000D03*
X69120000Y-98060000D03*
X71660000Y-95520000D03*
X69120000Y-95520000D03*
X66580000Y-95520000D03*
X71660000Y-92980000D03*
X69120000Y-92980000D03*
X66580000Y-92980000D03*
X66580000Y-98060000D03*
X64040000Y-98060000D03*
X64040000Y-95520000D03*
X61500000Y-92980000D03*
X64040000Y-92980000D03*
X66580000Y-87900000D03*
X69120000Y-87900000D03*
X69120000Y-90440000D03*
X66580000Y-90440000D03*
X76740000Y-90440000D03*
X74200000Y-90440000D03*
X71660000Y-90440000D03*
X74200000Y-87900000D03*
X71660000Y-87900000D03*
X76740000Y-87900000D03*
X84360000Y-90440000D03*
X79280000Y-90440000D03*
X84360000Y-87900000D03*
X81820000Y-90440000D03*
X81820000Y-87900000D03*
X79280000Y-87900000D03*
X84360000Y-80280000D03*
X84360000Y-75200000D03*
X81820000Y-80280000D03*
X84360000Y-77740000D03*
X79280000Y-75200000D03*
X81820000Y-77740000D03*
X79280000Y-77740000D03*
X81820000Y-75200000D03*
X79280000Y-85360000D03*
X84360000Y-85360000D03*
X84360000Y-82820000D03*
X81820000Y-82820000D03*
X81820000Y-85360000D03*
X79280000Y-82820000D03*
X76740000Y-82820000D03*
X79280000Y-80280000D03*
X76740000Y-80280000D03*
X74200000Y-82820000D03*
X74200000Y-80280000D03*
X76740000Y-77740000D03*
X74200000Y-77740000D03*
X71660000Y-80280000D03*
X74200000Y-75200000D03*
X71660000Y-77740000D03*
X71660000Y-75200000D03*
X76740000Y-75200000D03*
X76740000Y-85360000D03*
X74200000Y-85360000D03*
X71660000Y-85360000D03*
X71660000Y-82820000D03*
X56420000Y-77740000D03*
X56420000Y-72660000D03*
X53880000Y-77740000D03*
X56420000Y-75200000D03*
X53880000Y-75200000D03*
X53880000Y-72660000D03*
X56420000Y-70120000D03*
X53880000Y-70120000D03*
X56420000Y-67580000D03*
X56420000Y-65040000D03*
X53880000Y-67580000D03*
X58960000Y-65040000D03*
X53880000Y-65040000D03*
X58960000Y-67580000D03*
X53880000Y-90440000D03*
X56420000Y-87900000D03*
X53880000Y-87900000D03*
X56420000Y-90440000D03*
X61500000Y-72660000D03*
X58960000Y-72660000D03*
X64040000Y-72660000D03*
X61500000Y-70120000D03*
X64040000Y-70120000D03*
X58960000Y-70120000D03*
X56420000Y-85360000D03*
X53880000Y-85360000D03*
X53880000Y-80280000D03*
X56420000Y-82820000D03*
X53880000Y-82820000D03*
X56420000Y-80280000D03*
X61500000Y-65040000D03*
X61500000Y-67580000D03*
X64040000Y-67580000D03*
X64040000Y-65040000D03*
X66580000Y-82820000D03*
X69120000Y-85360000D03*
X66580000Y-85360000D03*
X69120000Y-82820000D03*
X64040000Y-80280000D03*
X66580000Y-80280000D03*
X69120000Y-80280000D03*
X69120000Y-77740000D03*
X58960000Y-80280000D03*
X58960000Y-77740000D03*
X61500000Y-77740000D03*
X61500000Y-75200000D03*
X58960000Y-75200000D03*
X61500000Y-85360000D03*
X64040000Y-82820000D03*
X61500000Y-82820000D03*
X58960000Y-85360000D03*
X64040000Y-85360000D03*
X58960000Y-82820000D03*
X61500000Y-80280000D03*
X64040000Y-77740000D03*
X66580000Y-75200000D03*
X64040000Y-75200000D03*
X69120000Y-75200000D03*
X66580000Y-77740000D03*
X84360000Y-72660000D03*
X84360000Y-70120000D03*
X81820000Y-70120000D03*
X84360000Y-65040000D03*
X81820000Y-67580000D03*
X81820000Y-65040000D03*
X84360000Y-67580000D03*
X81820000Y-72660000D03*
X79280000Y-72660000D03*
X76740000Y-72660000D03*
X74200000Y-72660000D03*
X79280000Y-70120000D03*
X79280000Y-67580000D03*
X79280000Y-65040000D03*
X76740000Y-65040000D03*
X71660000Y-72660000D03*
X69120000Y-72660000D03*
X69120000Y-70120000D03*
X66580000Y-70120000D03*
X66580000Y-72660000D03*
X76740000Y-70120000D03*
X74200000Y-70120000D03*
X71660000Y-70120000D03*
X74200000Y-67580000D03*
X71660000Y-67580000D03*
X71660000Y-65040000D03*
X76740000Y-67580000D03*
X74200000Y-65040000D03*
X69120000Y-67580000D03*
X66580000Y-67580000D03*
X69120000Y-65040000D03*
X66580000Y-65040000D03*
X132620000Y-90440000D03*
X132620000Y-95520000D03*
X130080000Y-95520000D03*
X130080000Y-92980000D03*
X127540000Y-92980000D03*
X127540000Y-95520000D03*
X127540000Y-90440000D03*
X130080000Y-90440000D03*
X127540000Y-100600000D03*
X127540000Y-98060000D03*
X130080000Y-100600000D03*
X130080000Y-98060000D03*
X130080000Y-108220000D03*
X127540000Y-105680000D03*
X130080000Y-103140000D03*
X130080000Y-105680000D03*
X127540000Y-108220000D03*
X127540000Y-103140000D03*
X125000000Y-103140000D03*
X122460000Y-103140000D03*
X125000000Y-100600000D03*
X122460000Y-100600000D03*
X122460000Y-98060000D03*
X125000000Y-98060000D03*
X125000000Y-95520000D03*
X122460000Y-95520000D03*
X125000000Y-92980000D03*
X125000000Y-90440000D03*
X122460000Y-90440000D03*
X122460000Y-92980000D03*
X119920000Y-98060000D03*
X119920000Y-95520000D03*
X117380000Y-98060000D03*
X117380000Y-95520000D03*
X119920000Y-92980000D03*
X117380000Y-92980000D03*
X119920000Y-103140000D03*
X117380000Y-103140000D03*
X119920000Y-100600000D03*
X117380000Y-100600000D03*
X125000000Y-108220000D03*
X122460000Y-108220000D03*
X122460000Y-105680000D03*
X125000000Y-105680000D03*
X119920000Y-105680000D03*
X117380000Y-105680000D03*
X117380000Y-108220000D03*
X119920000Y-108220000D03*
X147860000Y-82820000D03*
X142780000Y-82820000D03*
X147860000Y-80280000D03*
X147860000Y-77740000D03*
X145320000Y-82820000D03*
X145320000Y-77740000D03*
X140240000Y-82820000D03*
X137700000Y-82820000D03*
X137700000Y-80280000D03*
X135160000Y-80280000D03*
X135160000Y-82820000D03*
X132620000Y-80280000D03*
X135160000Y-77740000D03*
X132620000Y-82820000D03*
X135160000Y-72660000D03*
X132620000Y-72660000D03*
X132620000Y-77740000D03*
X135160000Y-75200000D03*
X132620000Y-75200000D03*
X147860000Y-75200000D03*
X145320000Y-75200000D03*
X147860000Y-72660000D03*
X145320000Y-72660000D03*
X145320000Y-80280000D03*
X142780000Y-77740000D03*
X140240000Y-80280000D03*
X140240000Y-77740000D03*
X137700000Y-77740000D03*
X137700000Y-75200000D03*
X142780000Y-80280000D03*
X137700000Y-72660000D03*
X137700000Y-108220000D03*
X132620000Y-108220000D03*
X135160000Y-108220000D03*
X135160000Y-105680000D03*
X132620000Y-105680000D03*
X137700000Y-105680000D03*
X135160000Y-103140000D03*
X147860000Y-103140000D03*
X147860000Y-100600000D03*
X145320000Y-100600000D03*
X145320000Y-103140000D03*
X142780000Y-100600000D03*
X147860000Y-98060000D03*
X145320000Y-98060000D03*
X142780000Y-98060000D03*
X135160000Y-100600000D03*
X135160000Y-98060000D03*
X132620000Y-100600000D03*
X132620000Y-98060000D03*
X132620000Y-103140000D03*
X142780000Y-103140000D03*
X140240000Y-103140000D03*
X140240000Y-100600000D03*
X137700000Y-100600000D03*
X137700000Y-98060000D03*
X140240000Y-98060000D03*
X137700000Y-103140000D03*
X147860000Y-108220000D03*
X147860000Y-105680000D03*
X140240000Y-105680000D03*
X145320000Y-108220000D03*
X142780000Y-108220000D03*
X140240000Y-108220000D03*
X145320000Y-105680000D03*
X142780000Y-105680000D03*
X137700000Y-95520000D03*
X135160000Y-95520000D03*
X132620000Y-92980000D03*
X137700000Y-92980000D03*
X135160000Y-92980000D03*
X135160000Y-90440000D03*
X142780000Y-87900000D03*
X145320000Y-87900000D03*
X142780000Y-90440000D03*
X145320000Y-90440000D03*
X145320000Y-95520000D03*
X147860000Y-92980000D03*
X145320000Y-92980000D03*
X147860000Y-95520000D03*
X147860000Y-90440000D03*
X147860000Y-87900000D03*
X142780000Y-85360000D03*
X147860000Y-85360000D03*
X145320000Y-85360000D03*
X140240000Y-90440000D03*
X137700000Y-90440000D03*
X140240000Y-87900000D03*
X140240000Y-85360000D03*
X132620000Y-87900000D03*
X137700000Y-87900000D03*
X137700000Y-85360000D03*
X135160000Y-85360000D03*
X135160000Y-87900000D03*
X142780000Y-95520000D03*
X140240000Y-95520000D03*
X140240000Y-92980000D03*
X142780000Y-92980000D03*
X117380000Y-70120000D03*
X117380000Y-72660000D03*
X125000000Y-65040000D03*
X122460000Y-65040000D03*
X117380000Y-65040000D03*
X117380000Y-67580000D03*
X119920000Y-65040000D03*
X132620000Y-65040000D03*
X130080000Y-65040000D03*
X127540000Y-65040000D03*
X135160000Y-67580000D03*
X137700000Y-65040000D03*
X137700000Y-67580000D03*
X135160000Y-70120000D03*
X137700000Y-70120000D03*
X135160000Y-65040000D03*
X145320000Y-65040000D03*
X142780000Y-65040000D03*
X140240000Y-65040000D03*
X140240000Y-67580000D03*
X142780000Y-75200000D03*
X140240000Y-75200000D03*
X142780000Y-72660000D03*
X140240000Y-72660000D03*
X140240000Y-70120000D03*
X147860000Y-65040000D03*
X147860000Y-70120000D03*
X147860000Y-67580000D03*
X142780000Y-70120000D03*
X145320000Y-67580000D03*
X142780000Y-67580000D03*
X145320000Y-70120000D03*
D14*
X107370000Y-136185000D03*
X104870000Y-136185000D03*
X96870000Y-136185000D03*
X94370000Y-136185000D03*
X96870000Y-155185000D03*
X94370000Y-155185000D03*
X107370000Y-155185000D03*
X104870000Y-155185000D03*
D11*
X86900000Y-148860000D03*
X104680000Y-123460000D03*
X107220000Y-123460000D03*
X109760000Y-123460000D03*
X112300000Y-123460000D03*
X114840000Y-123460000D03*
X86900000Y-123460000D03*
X89440000Y-123460000D03*
X91980000Y-123460000D03*
X94520000Y-123460000D03*
X97060000Y-123460000D03*
X114840000Y-120920000D03*
X112300000Y-120920000D03*
X109760000Y-120920000D03*
X107220000Y-120920000D03*
X104680000Y-120920000D03*
X102140000Y-120920000D03*
X99600000Y-120920000D03*
X97060000Y-120920000D03*
X94520000Y-120920000D03*
X91980000Y-120920000D03*
X89440000Y-120920000D03*
X86900000Y-120920000D03*
X114840000Y-118380000D03*
X112300000Y-118380000D03*
X109760000Y-118380000D03*
X107220000Y-118380000D03*
X104680000Y-118380000D03*
X102140000Y-118380000D03*
X99600000Y-118380000D03*
X97060000Y-118380000D03*
X94520000Y-118380000D03*
X91980000Y-118380000D03*
X89440000Y-118380000D03*
X86900000Y-118380000D03*
X114840000Y-115840000D03*
X112300000Y-115840000D03*
X109760000Y-115840000D03*
X107220000Y-115840000D03*
X104680000Y-115840000D03*
X102140000Y-115840000D03*
X99600000Y-115840000D03*
X97060000Y-115840000D03*
X94520000Y-115840000D03*
X91980000Y-115840000D03*
X89440000Y-115840000D03*
X86900000Y-115840000D03*
X114840000Y-113300000D03*
X112300000Y-113300000D03*
X109760000Y-113300000D03*
X107220000Y-113300000D03*
X104680000Y-113300000D03*
X102140000Y-113300000D03*
X99600000Y-113300000D03*
X97060000Y-113300000D03*
X94520000Y-113300000D03*
X91980000Y-113300000D03*
X89440000Y-113300000D03*
X86900000Y-113300000D03*
X147860000Y-156480000D03*
X145320000Y-156480000D03*
X142780000Y-156480000D03*
X140240000Y-156480000D03*
X137700000Y-156480000D03*
X135160000Y-156480000D03*
X132620000Y-156480000D03*
X130080000Y-156480000D03*
X127540000Y-156480000D03*
X125000000Y-156480000D03*
X122460000Y-156480000D03*
X119920000Y-156480000D03*
X117380000Y-156480000D03*
X147860000Y-153940000D03*
X145320000Y-153940000D03*
X142780000Y-153940000D03*
X140240000Y-153940000D03*
X137700000Y-153940000D03*
X135160000Y-153940000D03*
X132620000Y-153940000D03*
X130080000Y-153940000D03*
X127540000Y-153940000D03*
X125000000Y-153940000D03*
X122460000Y-153940000D03*
X119920000Y-153940000D03*
X117380000Y-153940000D03*
X147860000Y-151400000D03*
X145320000Y-151400000D03*
X142780000Y-151400000D03*
X140240000Y-151400000D03*
X137700000Y-151400000D03*
X135160000Y-151400000D03*
X132620000Y-151400000D03*
X130080000Y-151400000D03*
X127540000Y-151400000D03*
X125000000Y-151400000D03*
X122460000Y-151400000D03*
X119920000Y-151400000D03*
X117380000Y-151400000D03*
X147860000Y-148860000D03*
X145320000Y-148860000D03*
X142780000Y-148860000D03*
X140240000Y-148860000D03*
X137700000Y-148860000D03*
X135160000Y-148860000D03*
X132620000Y-148860000D03*
X130080000Y-148860000D03*
X127540000Y-148860000D03*
X125000000Y-148860000D03*
X122460000Y-148860000D03*
X119920000Y-148860000D03*
X117380000Y-148860000D03*
X147860000Y-146320000D03*
X145320000Y-146320000D03*
X142780000Y-146320000D03*
X140240000Y-146320000D03*
X137700000Y-146320000D03*
X135160000Y-146320000D03*
X132620000Y-146320000D03*
X130080000Y-146320000D03*
X127540000Y-146320000D03*
X125000000Y-146320000D03*
X122460000Y-146320000D03*
X119920000Y-146320000D03*
X117380000Y-146320000D03*
X147860000Y-143780000D03*
X145320000Y-143780000D03*
X142780000Y-143780000D03*
X140240000Y-143780000D03*
X137700000Y-143780000D03*
X135160000Y-143780000D03*
X132620000Y-143780000D03*
X130080000Y-143780000D03*
X127540000Y-143780000D03*
X125000000Y-143780000D03*
X122460000Y-143780000D03*
X119920000Y-143780000D03*
X117380000Y-143780000D03*
X147860000Y-141240000D03*
X145320000Y-141240000D03*
X142780000Y-141240000D03*
X140240000Y-141240000D03*
X137700000Y-141240000D03*
X135160000Y-141240000D03*
X132620000Y-141240000D03*
X130080000Y-141240000D03*
X127540000Y-141240000D03*
X125000000Y-141240000D03*
X122460000Y-141240000D03*
X119920000Y-141240000D03*
X117380000Y-141240000D03*
X147860000Y-138700000D03*
X145320000Y-138700000D03*
X142780000Y-138700000D03*
X140240000Y-138700000D03*
X137700000Y-138700000D03*
X135160000Y-138700000D03*
X132620000Y-138700000D03*
X130080000Y-138700000D03*
X127540000Y-138700000D03*
X125000000Y-138700000D03*
X122460000Y-138700000D03*
X119920000Y-138700000D03*
X117380000Y-138700000D03*
X147860000Y-136160000D03*
X145320000Y-136160000D03*
X142780000Y-136160000D03*
X140240000Y-136160000D03*
X137700000Y-136160000D03*
X135160000Y-136160000D03*
X132620000Y-136160000D03*
X130080000Y-136160000D03*
X127540000Y-136160000D03*
X125000000Y-136160000D03*
X122460000Y-136160000D03*
X119920000Y-136160000D03*
X117380000Y-136160000D03*
X147860000Y-133620000D03*
X145320000Y-133620000D03*
X142780000Y-133620000D03*
X140240000Y-133620000D03*
X137700000Y-133620000D03*
X135160000Y-133620000D03*
X132620000Y-133620000D03*
X130080000Y-133620000D03*
X127540000Y-133620000D03*
X125000000Y-133620000D03*
X122460000Y-133620000D03*
X119920000Y-133620000D03*
X117380000Y-133620000D03*
X147860000Y-131080000D03*
X145320000Y-131080000D03*
X142780000Y-131080000D03*
X140240000Y-131080000D03*
X137700000Y-131080000D03*
X135160000Y-131080000D03*
X132620000Y-131080000D03*
X130080000Y-131080000D03*
X127540000Y-131080000D03*
X125000000Y-131080000D03*
X122460000Y-131080000D03*
X119920000Y-131080000D03*
X117380000Y-131080000D03*
X147860000Y-128540000D03*
X145320000Y-128540000D03*
X142780000Y-128540000D03*
X140240000Y-128540000D03*
X137700000Y-128540000D03*
X135160000Y-128540000D03*
X132620000Y-128540000D03*
X130080000Y-128540000D03*
X127540000Y-128540000D03*
X125000000Y-128540000D03*
X122460000Y-128540000D03*
X119920000Y-128540000D03*
X117380000Y-128540000D03*
X147860000Y-126000000D03*
X145320000Y-126000000D03*
X142780000Y-126000000D03*
X140240000Y-126000000D03*
X137700000Y-126000000D03*
X135160000Y-126000000D03*
X132620000Y-126000000D03*
X130080000Y-126000000D03*
X127540000Y-126000000D03*
X125000000Y-126000000D03*
X122460000Y-126000000D03*
X119920000Y-126000000D03*
X117380000Y-126000000D03*
X147860000Y-123460000D03*
X145320000Y-123460000D03*
X142780000Y-123460000D03*
X140240000Y-123460000D03*
X137700000Y-123460000D03*
X135160000Y-123460000D03*
X132620000Y-123460000D03*
X130080000Y-123460000D03*
X127540000Y-123460000D03*
X125000000Y-123460000D03*
X122460000Y-123460000D03*
X119920000Y-123460000D03*
X117380000Y-123460000D03*
X147860000Y-120920000D03*
X145320000Y-120920000D03*
X142780000Y-120920000D03*
X140240000Y-120920000D03*
X137700000Y-120920000D03*
X135160000Y-120920000D03*
X132620000Y-120920000D03*
X130080000Y-120920000D03*
X127540000Y-120920000D03*
X125000000Y-120920000D03*
X122460000Y-120920000D03*
X119920000Y-120920000D03*
X117380000Y-120920000D03*
X147860000Y-118380000D03*
X145320000Y-118380000D03*
X142780000Y-118380000D03*
X140240000Y-118380000D03*
X137700000Y-118380000D03*
X135160000Y-118380000D03*
X132620000Y-118380000D03*
X130080000Y-118380000D03*
X127540000Y-118380000D03*
X125000000Y-118380000D03*
X122460000Y-118380000D03*
X119920000Y-118380000D03*
X117380000Y-118380000D03*
X147860000Y-115840000D03*
X145320000Y-115840000D03*
X142780000Y-115840000D03*
X140240000Y-115840000D03*
X137700000Y-115840000D03*
X135160000Y-115840000D03*
X132620000Y-115840000D03*
X130080000Y-115840000D03*
X127540000Y-115840000D03*
X125000000Y-115840000D03*
X122460000Y-115840000D03*
X119920000Y-115840000D03*
X117380000Y-115840000D03*
X147860000Y-113300000D03*
X145320000Y-113300000D03*
X142780000Y-113300000D03*
X140240000Y-113300000D03*
X137700000Y-113300000D03*
X135160000Y-113300000D03*
X132620000Y-113300000D03*
X130080000Y-113300000D03*
X127540000Y-113300000D03*
X125000000Y-113300000D03*
X122460000Y-113300000D03*
X119920000Y-113300000D03*
X117380000Y-113300000D03*
X84360000Y-153940000D03*
X81820000Y-153940000D03*
X79280000Y-153940000D03*
X76740000Y-153940000D03*
X74200000Y-153940000D03*
X71660000Y-153940000D03*
X69120000Y-153940000D03*
X66580000Y-153940000D03*
X64040000Y-153940000D03*
X61500000Y-153940000D03*
X58960000Y-153940000D03*
X56420000Y-153940000D03*
X53880000Y-153940000D03*
X84360000Y-151400000D03*
X81820000Y-151400000D03*
X79280000Y-151400000D03*
X76740000Y-151400000D03*
X74200000Y-151400000D03*
X71660000Y-151400000D03*
X69120000Y-151400000D03*
X66580000Y-151400000D03*
X64040000Y-151400000D03*
X61500000Y-151400000D03*
X58960000Y-151400000D03*
X56420000Y-151400000D03*
X53880000Y-151400000D03*
X84360000Y-148860000D03*
X81820000Y-148860000D03*
X79280000Y-148860000D03*
X76740000Y-148860000D03*
X74200000Y-148860000D03*
X71660000Y-148860000D03*
X69120000Y-148860000D03*
X66580000Y-148860000D03*
X64040000Y-148860000D03*
X61500000Y-148860000D03*
X58960000Y-148860000D03*
X56420000Y-148860000D03*
X53880000Y-148860000D03*
X84360000Y-146320000D03*
X81820000Y-146320000D03*
X79280000Y-146320000D03*
X76740000Y-146320000D03*
X74200000Y-146320000D03*
X71660000Y-146320000D03*
X69120000Y-146320000D03*
X66580000Y-146320000D03*
X64040000Y-146320000D03*
X61500000Y-146320000D03*
X58960000Y-146320000D03*
X56420000Y-146320000D03*
X53880000Y-146320000D03*
X84360000Y-143780000D03*
X81820000Y-143780000D03*
X79280000Y-143780000D03*
X76740000Y-143780000D03*
X74200000Y-143780000D03*
X71660000Y-143780000D03*
X69120000Y-143780000D03*
X66580000Y-143780000D03*
X64040000Y-143780000D03*
X61500000Y-143780000D03*
X58960000Y-143780000D03*
X56420000Y-143780000D03*
X53880000Y-143780000D03*
X84360000Y-141240000D03*
X81820000Y-141240000D03*
X79280000Y-141240000D03*
X76740000Y-141240000D03*
X74200000Y-141240000D03*
X71660000Y-141240000D03*
X69120000Y-141240000D03*
X66580000Y-141240000D03*
X64040000Y-141240000D03*
X61500000Y-141240000D03*
X58960000Y-141240000D03*
X56420000Y-141240000D03*
X53880000Y-141240000D03*
X84360000Y-138700000D03*
X81820000Y-138700000D03*
X79280000Y-138700000D03*
X76740000Y-138700000D03*
X74200000Y-138700000D03*
X71660000Y-138700000D03*
X69120000Y-138700000D03*
X66580000Y-138700000D03*
X64040000Y-138700000D03*
X61500000Y-138700000D03*
X58960000Y-138700000D03*
X56420000Y-138700000D03*
X53880000Y-138700000D03*
X84360000Y-136160000D03*
X81820000Y-136160000D03*
X79280000Y-136160000D03*
X76740000Y-136160000D03*
X74200000Y-136160000D03*
X71660000Y-136160000D03*
X69120000Y-136160000D03*
X66580000Y-136160000D03*
X64040000Y-136160000D03*
X61500000Y-136160000D03*
X58960000Y-136160000D03*
X56420000Y-136160000D03*
X53880000Y-136160000D03*
X84360000Y-133620000D03*
X81820000Y-133620000D03*
X79280000Y-133620000D03*
X76740000Y-133620000D03*
X74200000Y-133620000D03*
X71660000Y-133620000D03*
X69120000Y-133620000D03*
X66580000Y-133620000D03*
X64040000Y-133620000D03*
X61500000Y-133620000D03*
X58960000Y-133620000D03*
X56420000Y-133620000D03*
X53880000Y-133620000D03*
X84360000Y-131080000D03*
X81820000Y-131080000D03*
X79280000Y-131080000D03*
X76740000Y-131080000D03*
X74200000Y-131080000D03*
X71660000Y-131080000D03*
X69120000Y-131080000D03*
X66580000Y-131080000D03*
X64040000Y-131080000D03*
X61500000Y-131080000D03*
X58960000Y-131080000D03*
X56420000Y-131080000D03*
X53880000Y-131080000D03*
X84360000Y-128540000D03*
X81820000Y-128540000D03*
X79280000Y-128540000D03*
X76740000Y-128540000D03*
X74200000Y-128540000D03*
X71660000Y-128540000D03*
X69120000Y-128540000D03*
X66580000Y-128540000D03*
X64040000Y-128540000D03*
X61500000Y-128540000D03*
X58960000Y-128540000D03*
X56420000Y-128540000D03*
X53880000Y-128540000D03*
X84360000Y-126000000D03*
X81820000Y-126000000D03*
X79280000Y-126000000D03*
X76740000Y-126000000D03*
X74200000Y-126000000D03*
X71660000Y-126000000D03*
X69120000Y-126000000D03*
X66580000Y-126000000D03*
X64040000Y-126000000D03*
X61500000Y-126000000D03*
X58960000Y-126000000D03*
X56420000Y-126000000D03*
X53880000Y-126000000D03*
X84360000Y-123460000D03*
X81820000Y-123460000D03*
X79280000Y-123460000D03*
X76740000Y-123460000D03*
X74200000Y-123460000D03*
X71660000Y-123460000D03*
X69120000Y-123460000D03*
X66580000Y-123460000D03*
X64040000Y-123460000D03*
X61500000Y-123460000D03*
X58960000Y-123460000D03*
X56420000Y-123460000D03*
X53880000Y-123460000D03*
X84360000Y-120920000D03*
X81820000Y-120920000D03*
X79280000Y-120920000D03*
X76740000Y-120920000D03*
X74200000Y-120920000D03*
X71660000Y-120920000D03*
X69120000Y-120920000D03*
X66580000Y-120920000D03*
X64040000Y-120920000D03*
X61500000Y-120920000D03*
X58960000Y-120920000D03*
X56420000Y-120920000D03*
X53880000Y-120920000D03*
X84360000Y-118380000D03*
X81820000Y-118380000D03*
X79280000Y-118380000D03*
X76740000Y-118380000D03*
X74200000Y-118380000D03*
X71660000Y-118380000D03*
X69120000Y-118380000D03*
X66580000Y-118380000D03*
X64040000Y-118380000D03*
X61500000Y-118380000D03*
X58960000Y-118380000D03*
X56420000Y-118380000D03*
X53880000Y-118380000D03*
X84360000Y-115840000D03*
X81820000Y-115840000D03*
X79280000Y-115840000D03*
X76740000Y-115840000D03*
X74200000Y-115840000D03*
X71660000Y-115840000D03*
X69120000Y-115840000D03*
X66580000Y-115840000D03*
X64040000Y-115840000D03*
X61500000Y-115840000D03*
X58960000Y-115840000D03*
X56420000Y-115840000D03*
X53880000Y-115840000D03*
X84360000Y-113300000D03*
X81820000Y-113300000D03*
X79280000Y-113300000D03*
X76740000Y-113300000D03*
X74200000Y-113300000D03*
X71660000Y-113300000D03*
X69120000Y-113300000D03*
X66580000Y-113300000D03*
X64040000Y-113300000D03*
X61500000Y-113300000D03*
X58960000Y-113300000D03*
X56420000Y-113300000D03*
X53880000Y-113300000D03*
X84360000Y-156480000D03*
X81820000Y-156480000D03*
X79280000Y-156480000D03*
X76740000Y-156480000D03*
X74200000Y-156480000D03*
X71660000Y-156480000D03*
X69120000Y-156480000D03*
X66580000Y-156480000D03*
X64040000Y-156480000D03*
X61500000Y-156480000D03*
X58960000Y-156480000D03*
X56420000Y-156480000D03*
X89440000Y-131080000D03*
X89440000Y-133620000D03*
X89440000Y-136160000D03*
X89440000Y-138700000D03*
X89440000Y-141240000D03*
X89440000Y-143780000D03*
X89440000Y-146320000D03*
X89440000Y-148860000D03*
X112300000Y-148860000D03*
X112300000Y-146320000D03*
X112300000Y-143780000D03*
X112300000Y-141240000D03*
X112300000Y-138700000D03*
X112300000Y-136160000D03*
X112300000Y-133620000D03*
X112300000Y-131080000D03*
D15*
X102140000Y-123460000D03*
D16*
X99600000Y-123460000D03*
D12*
X86900000Y-146320000D03*
D13*
X86900000Y-143780000D03*
X86900000Y-141240000D03*
X86900000Y-138700000D03*
X86900000Y-136160000D03*
X86900000Y-133620000D03*
X86900000Y-131080000D03*
D11*
X53880000Y-156480000D03*
D12*
X114840000Y-131080000D03*
D13*
X114840000Y-133620000D03*
X114840000Y-136160000D03*
X114840000Y-138700000D03*
X114840000Y-141240000D03*
X114840000Y-143780000D03*
X114840000Y-146320000D03*
X114840000Y-148860000D03*
D12*
X114840000Y-151400000D03*
D13*
X114840000Y-153940000D03*
X114840000Y-156480000D03*
D12*
X86900000Y-151400000D03*
D13*
X86900000Y-153940000D03*
X86900000Y-156480000D03*
D17*
X105950000Y-78756000D03*
X96552000Y-78756000D03*
X93250000Y-71390000D03*
X95790000Y-71390000D03*
X94520000Y-71390000D03*
X107220000Y-150130000D03*
X105950000Y-150130000D03*
X108490000Y-150130000D03*
X105188000Y-142764000D03*
X95790000Y-142764000D03*
X103664000Y-87900000D03*
X98076000Y-133620000D03*
X98076000Y-87900000D03*
X103664000Y-133620000D03*
D18*
X105950000Y-78756000D02*
X96552000Y-78756000D01*
X95790000Y-142764000D02*
X105188000Y-142764000D01*
X114840000Y-67580000D02*
X113637919Y-67580000D01*
X113637919Y-67580000D02*
X112787920Y-68429999D01*
X112787920Y-68429999D02*
X87749999Y-68429999D01*
X87749999Y-68429999D02*
X86900000Y-67580000D01*
X110522000Y-74438000D02*
X112300000Y-72660000D01*
X110522000Y-86122000D02*
X110522000Y-74438000D01*
X103664000Y-87900000D02*
X108744000Y-87900000D01*
X108744000Y-87900000D02*
X110522000Y-86122000D01*
X86900000Y-153940000D02*
X88102081Y-153940000D01*
X113990001Y-153090001D02*
X114840000Y-153940000D01*
X88102081Y-153940000D02*
X88952080Y-153090001D01*
X88952080Y-153090001D02*
X113990001Y-153090001D01*
X98076000Y-133620000D02*
X92996000Y-133620000D01*
X92996000Y-133620000D02*
X91218000Y-135398000D01*
X91218000Y-135398000D02*
X91218000Y-147082000D01*
X91218000Y-147082000D02*
X89440000Y-148860000D01*
X113490000Y-70120000D02*
X86900000Y-70120000D01*
X114840000Y-70120000D02*
X113490000Y-70120000D01*
X86900000Y-70120000D02*
X86900000Y-72660000D01*
X89440000Y-72660000D02*
X86900000Y-72660000D01*
X91218000Y-74438000D02*
X89440000Y-72660000D01*
X92996000Y-87900000D02*
X91218000Y-86122000D01*
X91218000Y-86122000D02*
X91218000Y-74438000D01*
X98076000Y-87900000D02*
X92996000Y-87900000D01*
X103664000Y-133620000D02*
X108744000Y-133620000D01*
X108744000Y-133620000D02*
X110522000Y-135398000D01*
X110522000Y-135398000D02*
X110522000Y-147082000D01*
X110522000Y-147082000D02*
X112300000Y-148860000D01*
X114840000Y-151400000D02*
X114840000Y-148860000D01*
X112300000Y-148860000D02*
X114840000Y-148860000D01*
X86900000Y-151400000D02*
X88250000Y-151400000D01*
X88250000Y-151400000D02*
X114840000Y-151400000D01*
D19*
G36*
X112427000Y-148733000D02*
X114713000Y-148733000D01*
X114713000Y-148713000D01*
X114967000Y-148713000D01*
X114967000Y-148733000D01*
X114987000Y-148733000D01*
X114987000Y-148987000D01*
X114967000Y-148987000D01*
X114967000Y-151273000D01*
X114987000Y-151273000D01*
X114987000Y-151527000D01*
X111665000Y-151527000D01*
X111665000Y-150333020D01*
X111919565Y-150450133D01*
X112173000Y-150331319D01*
X112173000Y-148987000D01*
X112427000Y-148987000D01*
X112427000Y-150331319D01*
X112680435Y-150450133D01*
X113259994Y-150183505D01*
X113671012Y-149739568D01*
X113839878Y-149924864D01*
X113630302Y-150011673D01*
X113451673Y-150190301D01*
X113355000Y-150423690D01*
X113355000Y-151114250D01*
X113513750Y-151273000D01*
X114713000Y-151273000D01*
X114713000Y-148987000D01*
X112427000Y-148987000D01*
X112173000Y-148987000D01*
X112153000Y-148987000D01*
X112153000Y-148733000D01*
X112173000Y-148733000D01*
X112173000Y-148713000D01*
X112427000Y-148713000D01*
X112427000Y-148733000D01*
X112427000Y-148733000D01*
G37*
X112427000Y-148733000D02*
X114713000Y-148733000D01*
X114713000Y-148713000D01*
X114967000Y-148713000D01*
X114967000Y-148733000D01*
X114987000Y-148733000D01*
X114987000Y-148987000D01*
X114967000Y-148987000D01*
X114967000Y-151273000D01*
X114987000Y-151273000D01*
X114987000Y-151527000D01*
X111665000Y-151527000D01*
X111665000Y-150333020D01*
X111919565Y-150450133D01*
X112173000Y-150331319D01*
X112173000Y-148987000D01*
X112427000Y-148987000D01*
X112427000Y-150331319D01*
X112680435Y-150450133D01*
X113259994Y-150183505D01*
X113671012Y-149739568D01*
X113839878Y-149924864D01*
X113630302Y-150011673D01*
X113451673Y-150190301D01*
X113355000Y-150423690D01*
X113355000Y-151114250D01*
X113513750Y-151273000D01*
X114713000Y-151273000D01*
X114713000Y-148987000D01*
X112427000Y-148987000D01*
X112173000Y-148987000D01*
X112153000Y-148987000D01*
X112153000Y-148733000D01*
X112173000Y-148733000D01*
X112173000Y-148713000D01*
X112427000Y-148713000D01*
X112427000Y-148733000D01*
G36*
X92984722Y-154257637D02*
X92735284Y-154858352D01*
X92734716Y-155508795D01*
X92983106Y-156109943D01*
X93442637Y-156570278D01*
X94043352Y-156819716D01*
X94693795Y-156820284D01*
X95294943Y-156571894D01*
X95620164Y-156247241D01*
X95942637Y-156570278D01*
X96543352Y-156819716D01*
X97193795Y-156820284D01*
X97794943Y-156571894D01*
X98029715Y-156337532D01*
X103897073Y-156337532D01*
X103995736Y-156604387D01*
X104605461Y-156830908D01*
X105255460Y-156806856D01*
X105744264Y-156604387D01*
X105842927Y-156337532D01*
X106397073Y-156337532D01*
X106495736Y-156604387D01*
X107105461Y-156830908D01*
X107755460Y-156806856D01*
X108244264Y-156604387D01*
X108342927Y-156337532D01*
X107370000Y-155364605D01*
X106397073Y-156337532D01*
X105842927Y-156337532D01*
X104870000Y-155364605D01*
X103897073Y-156337532D01*
X98029715Y-156337532D01*
X98255278Y-156112363D01*
X98504716Y-155511648D01*
X98505232Y-154920461D01*
X103224092Y-154920461D01*
X103248144Y-155570460D01*
X103450613Y-156059264D01*
X103717468Y-156157927D01*
X104690395Y-155185000D01*
X105049605Y-155185000D01*
X106022532Y-156157927D01*
X106120000Y-156121891D01*
X106217468Y-156157927D01*
X107190395Y-155185000D01*
X107549605Y-155185000D01*
X108522532Y-156157927D01*
X108789387Y-156059264D01*
X109015908Y-155449539D01*
X108991856Y-154799540D01*
X108789387Y-154310736D01*
X108522532Y-154212073D01*
X107549605Y-155185000D01*
X107190395Y-155185000D01*
X106217468Y-154212073D01*
X106120000Y-154248109D01*
X106022532Y-154212073D01*
X105049605Y-155185000D01*
X104690395Y-155185000D01*
X103717468Y-154212073D01*
X103450613Y-154310736D01*
X103224092Y-154920461D01*
X98505232Y-154920461D01*
X98505284Y-154861205D01*
X98256894Y-154260057D01*
X97972336Y-153975001D01*
X103918320Y-153975001D01*
X103897073Y-154032468D01*
X104870000Y-155005395D01*
X105842927Y-154032468D01*
X105821680Y-153975001D01*
X106418320Y-153975001D01*
X106397073Y-154032468D01*
X107370000Y-155005395D01*
X108342927Y-154032468D01*
X108321680Y-153975001D01*
X112808000Y-153975001D01*
X112808000Y-157623000D01*
X88932000Y-157623000D01*
X88932000Y-154361661D01*
X89318659Y-153975001D01*
X93267853Y-153975001D01*
X92984722Y-154257637D01*
X92984722Y-154257637D01*
G37*
X92984722Y-154257637D02*
X92735284Y-154858352D01*
X92734716Y-155508795D01*
X92983106Y-156109943D01*
X93442637Y-156570278D01*
X94043352Y-156819716D01*
X94693795Y-156820284D01*
X95294943Y-156571894D01*
X95620164Y-156247241D01*
X95942637Y-156570278D01*
X96543352Y-156819716D01*
X97193795Y-156820284D01*
X97794943Y-156571894D01*
X98029715Y-156337532D01*
X103897073Y-156337532D01*
X103995736Y-156604387D01*
X104605461Y-156830908D01*
X105255460Y-156806856D01*
X105744264Y-156604387D01*
X105842927Y-156337532D01*
X106397073Y-156337532D01*
X106495736Y-156604387D01*
X107105461Y-156830908D01*
X107755460Y-156806856D01*
X108244264Y-156604387D01*
X108342927Y-156337532D01*
X107370000Y-155364605D01*
X106397073Y-156337532D01*
X105842927Y-156337532D01*
X104870000Y-155364605D01*
X103897073Y-156337532D01*
X98029715Y-156337532D01*
X98255278Y-156112363D01*
X98504716Y-155511648D01*
X98505232Y-154920461D01*
X103224092Y-154920461D01*
X103248144Y-155570460D01*
X103450613Y-156059264D01*
X103717468Y-156157927D01*
X104690395Y-155185000D01*
X105049605Y-155185000D01*
X106022532Y-156157927D01*
X106120000Y-156121891D01*
X106217468Y-156157927D01*
X107190395Y-155185000D01*
X107549605Y-155185000D01*
X108522532Y-156157927D01*
X108789387Y-156059264D01*
X109015908Y-155449539D01*
X108991856Y-154799540D01*
X108789387Y-154310736D01*
X108522532Y-154212073D01*
X107549605Y-155185000D01*
X107190395Y-155185000D01*
X106217468Y-154212073D01*
X106120000Y-154248109D01*
X106022532Y-154212073D01*
X105049605Y-155185000D01*
X104690395Y-155185000D01*
X103717468Y-154212073D01*
X103450613Y-154310736D01*
X103224092Y-154920461D01*
X98505232Y-154920461D01*
X98505284Y-154861205D01*
X98256894Y-154260057D01*
X97972336Y-153975001D01*
X103918320Y-153975001D01*
X103897073Y-154032468D01*
X104870000Y-155005395D01*
X105842927Y-154032468D01*
X105821680Y-153975001D01*
X106418320Y-153975001D01*
X106397073Y-154032468D01*
X107370000Y-155005395D01*
X108342927Y-154032468D01*
X108321680Y-153975001D01*
X112808000Y-153975001D01*
X112808000Y-157623000D01*
X88932000Y-157623000D01*
X88932000Y-154361661D01*
X89318659Y-153975001D01*
X93267853Y-153975001D01*
X92984722Y-154257637D01*
G36*
X112808000Y-129539676D02*
X112332032Y-129445000D01*
X112267968Y-129445000D01*
X111642281Y-129569457D01*
X111111848Y-129923880D01*
X110757425Y-130454313D01*
X110632968Y-131080000D01*
X110757425Y-131705687D01*
X111111848Y-132236120D01*
X111282282Y-132350000D01*
X111111848Y-132463880D01*
X110757425Y-132994313D01*
X110632968Y-133620000D01*
X110757425Y-134245687D01*
X111031602Y-134656023D01*
X109369790Y-132994210D01*
X109120750Y-132827808D01*
X109082675Y-132802367D01*
X109026484Y-132791190D01*
X108744000Y-132734999D01*
X108743995Y-132735000D01*
X103970822Y-132735000D01*
X103850799Y-132685162D01*
X103478833Y-132684838D01*
X103135057Y-132826883D01*
X102871808Y-133089673D01*
X102729162Y-133433201D01*
X102728838Y-133805167D01*
X102870883Y-134148943D01*
X103133673Y-134412192D01*
X103477201Y-134554838D01*
X103849167Y-134555162D01*
X103970569Y-134505000D01*
X108377420Y-134505000D01*
X109637000Y-135764579D01*
X109637000Y-147081995D01*
X109636999Y-147082000D01*
X109690201Y-147349457D01*
X109704367Y-147420675D01*
X109893597Y-147703880D01*
X109896210Y-147707790D01*
X110268000Y-148079580D01*
X110268000Y-150515000D01*
X88932000Y-150515000D01*
X88932000Y-150400324D01*
X89407968Y-150495000D01*
X89472032Y-150495000D01*
X90097719Y-150370543D01*
X90628152Y-150016120D01*
X90982575Y-149485687D01*
X91107032Y-148860000D01*
X91038104Y-148513476D01*
X91843787Y-147707792D01*
X91843790Y-147707790D01*
X92035633Y-147420675D01*
X92049799Y-147349457D01*
X92103001Y-147082000D01*
X92103000Y-147081995D01*
X92103000Y-136508795D01*
X92734716Y-136508795D01*
X92983106Y-137109943D01*
X93442637Y-137570278D01*
X94043352Y-137819716D01*
X94693795Y-137820284D01*
X95294943Y-137571894D01*
X95620164Y-137247241D01*
X95942637Y-137570278D01*
X96543352Y-137819716D01*
X97193795Y-137820284D01*
X97794943Y-137571894D01*
X98029715Y-137337532D01*
X103897073Y-137337532D01*
X103995736Y-137604387D01*
X104605461Y-137830908D01*
X105255460Y-137806856D01*
X105744264Y-137604387D01*
X105842927Y-137337532D01*
X106397073Y-137337532D01*
X106495736Y-137604387D01*
X107105461Y-137830908D01*
X107755460Y-137806856D01*
X108244264Y-137604387D01*
X108342927Y-137337532D01*
X107370000Y-136364605D01*
X106397073Y-137337532D01*
X105842927Y-137337532D01*
X104870000Y-136364605D01*
X103897073Y-137337532D01*
X98029715Y-137337532D01*
X98255278Y-137112363D01*
X98504716Y-136511648D01*
X98505232Y-135920461D01*
X103224092Y-135920461D01*
X103248144Y-136570460D01*
X103450613Y-137059264D01*
X103717468Y-137157927D01*
X104690395Y-136185000D01*
X105049605Y-136185000D01*
X106022532Y-137157927D01*
X106120000Y-137121891D01*
X106217468Y-137157927D01*
X107190395Y-136185000D01*
X107549605Y-136185000D01*
X108522532Y-137157927D01*
X108789387Y-137059264D01*
X109015908Y-136449539D01*
X108991856Y-135799540D01*
X108789387Y-135310736D01*
X108522532Y-135212073D01*
X107549605Y-136185000D01*
X107190395Y-136185000D01*
X106217468Y-135212073D01*
X106120000Y-135248109D01*
X106022532Y-135212073D01*
X105049605Y-136185000D01*
X104690395Y-136185000D01*
X103717468Y-135212073D01*
X103450613Y-135310736D01*
X103224092Y-135920461D01*
X98505232Y-135920461D01*
X98505284Y-135861205D01*
X98256894Y-135260057D01*
X98029703Y-135032468D01*
X103897073Y-135032468D01*
X104870000Y-136005395D01*
X105842927Y-135032468D01*
X106397073Y-135032468D01*
X107370000Y-136005395D01*
X108342927Y-135032468D01*
X108244264Y-134765613D01*
X107634539Y-134539092D01*
X106984540Y-134563144D01*
X106495736Y-134765613D01*
X106397073Y-135032468D01*
X105842927Y-135032468D01*
X105744264Y-134765613D01*
X105134539Y-134539092D01*
X104484540Y-134563144D01*
X103995736Y-134765613D01*
X103897073Y-135032468D01*
X98029703Y-135032468D01*
X97797363Y-134799722D01*
X97196648Y-134550284D01*
X96546205Y-134549716D01*
X95945057Y-134798106D01*
X95619836Y-135122759D01*
X95297363Y-134799722D01*
X94696648Y-134550284D01*
X94046205Y-134549716D01*
X93445057Y-134798106D01*
X92984722Y-135257637D01*
X92735284Y-135858352D01*
X92734716Y-136508795D01*
X92103000Y-136508795D01*
X92103000Y-135764580D01*
X93362579Y-134505000D01*
X97769178Y-134505000D01*
X97889201Y-134554838D01*
X98261167Y-134555162D01*
X98604943Y-134413117D01*
X98868192Y-134150327D01*
X99010838Y-133806799D01*
X99011162Y-133434833D01*
X98869117Y-133091057D01*
X98606327Y-132827808D01*
X98262799Y-132685162D01*
X97890833Y-132684838D01*
X97769431Y-132735000D01*
X92996005Y-132735000D01*
X92996000Y-132734999D01*
X92713516Y-132791190D01*
X92657325Y-132802367D01*
X92370210Y-132994210D01*
X92370208Y-132994213D01*
X90708400Y-134656020D01*
X90982575Y-134245687D01*
X91107032Y-133620000D01*
X90982575Y-132994313D01*
X90628152Y-132463880D01*
X90457718Y-132350000D01*
X90628152Y-132236120D01*
X90982575Y-131705687D01*
X91107032Y-131080000D01*
X90982575Y-130454313D01*
X90628152Y-129923880D01*
X90097719Y-129569457D01*
X89472032Y-129445000D01*
X89407968Y-129445000D01*
X88932000Y-129539676D01*
X88932000Y-125492000D01*
X112808000Y-125492000D01*
X112808000Y-129539676D01*
X112808000Y-129539676D01*
G37*
X112808000Y-129539676D02*
X112332032Y-129445000D01*
X112267968Y-129445000D01*
X111642281Y-129569457D01*
X111111848Y-129923880D01*
X110757425Y-130454313D01*
X110632968Y-131080000D01*
X110757425Y-131705687D01*
X111111848Y-132236120D01*
X111282282Y-132350000D01*
X111111848Y-132463880D01*
X110757425Y-132994313D01*
X110632968Y-133620000D01*
X110757425Y-134245687D01*
X111031602Y-134656023D01*
X109369790Y-132994210D01*
X109120750Y-132827808D01*
X109082675Y-132802367D01*
X109026484Y-132791190D01*
X108744000Y-132734999D01*
X108743995Y-132735000D01*
X103970822Y-132735000D01*
X103850799Y-132685162D01*
X103478833Y-132684838D01*
X103135057Y-132826883D01*
X102871808Y-133089673D01*
X102729162Y-133433201D01*
X102728838Y-133805167D01*
X102870883Y-134148943D01*
X103133673Y-134412192D01*
X103477201Y-134554838D01*
X103849167Y-134555162D01*
X103970569Y-134505000D01*
X108377420Y-134505000D01*
X109637000Y-135764579D01*
X109637000Y-147081995D01*
X109636999Y-147082000D01*
X109690201Y-147349457D01*
X109704367Y-147420675D01*
X109893597Y-147703880D01*
X109896210Y-147707790D01*
X110268000Y-148079580D01*
X110268000Y-150515000D01*
X88932000Y-150515000D01*
X88932000Y-150400324D01*
X89407968Y-150495000D01*
X89472032Y-150495000D01*
X90097719Y-150370543D01*
X90628152Y-150016120D01*
X90982575Y-149485687D01*
X91107032Y-148860000D01*
X91038104Y-148513476D01*
X91843787Y-147707792D01*
X91843790Y-147707790D01*
X92035633Y-147420675D01*
X92049799Y-147349457D01*
X92103001Y-147082000D01*
X92103000Y-147081995D01*
X92103000Y-136508795D01*
X92734716Y-136508795D01*
X92983106Y-137109943D01*
X93442637Y-137570278D01*
X94043352Y-137819716D01*
X94693795Y-137820284D01*
X95294943Y-137571894D01*
X95620164Y-137247241D01*
X95942637Y-137570278D01*
X96543352Y-137819716D01*
X97193795Y-137820284D01*
X97794943Y-137571894D01*
X98029715Y-137337532D01*
X103897073Y-137337532D01*
X103995736Y-137604387D01*
X104605461Y-137830908D01*
X105255460Y-137806856D01*
X105744264Y-137604387D01*
X105842927Y-137337532D01*
X106397073Y-137337532D01*
X106495736Y-137604387D01*
X107105461Y-137830908D01*
X107755460Y-137806856D01*
X108244264Y-137604387D01*
X108342927Y-137337532D01*
X107370000Y-136364605D01*
X106397073Y-137337532D01*
X105842927Y-137337532D01*
X104870000Y-136364605D01*
X103897073Y-137337532D01*
X98029715Y-137337532D01*
X98255278Y-137112363D01*
X98504716Y-136511648D01*
X98505232Y-135920461D01*
X103224092Y-135920461D01*
X103248144Y-136570460D01*
X103450613Y-137059264D01*
X103717468Y-137157927D01*
X104690395Y-136185000D01*
X105049605Y-136185000D01*
X106022532Y-137157927D01*
X106120000Y-137121891D01*
X106217468Y-137157927D01*
X107190395Y-136185000D01*
X107549605Y-136185000D01*
X108522532Y-137157927D01*
X108789387Y-137059264D01*
X109015908Y-136449539D01*
X108991856Y-135799540D01*
X108789387Y-135310736D01*
X108522532Y-135212073D01*
X107549605Y-136185000D01*
X107190395Y-136185000D01*
X106217468Y-135212073D01*
X106120000Y-135248109D01*
X106022532Y-135212073D01*
X105049605Y-136185000D01*
X104690395Y-136185000D01*
X103717468Y-135212073D01*
X103450613Y-135310736D01*
X103224092Y-135920461D01*
X98505232Y-135920461D01*
X98505284Y-135861205D01*
X98256894Y-135260057D01*
X98029703Y-135032468D01*
X103897073Y-135032468D01*
X104870000Y-136005395D01*
X105842927Y-135032468D01*
X106397073Y-135032468D01*
X107370000Y-136005395D01*
X108342927Y-135032468D01*
X108244264Y-134765613D01*
X107634539Y-134539092D01*
X106984540Y-134563144D01*
X106495736Y-134765613D01*
X106397073Y-135032468D01*
X105842927Y-135032468D01*
X105744264Y-134765613D01*
X105134539Y-134539092D01*
X104484540Y-134563144D01*
X103995736Y-134765613D01*
X103897073Y-135032468D01*
X98029703Y-135032468D01*
X97797363Y-134799722D01*
X97196648Y-134550284D01*
X96546205Y-134549716D01*
X95945057Y-134798106D01*
X95619836Y-135122759D01*
X95297363Y-134799722D01*
X94696648Y-134550284D01*
X94046205Y-134549716D01*
X93445057Y-134798106D01*
X92984722Y-135257637D01*
X92735284Y-135858352D01*
X92734716Y-136508795D01*
X92103000Y-136508795D01*
X92103000Y-135764580D01*
X93362579Y-134505000D01*
X97769178Y-134505000D01*
X97889201Y-134554838D01*
X98261167Y-134555162D01*
X98604943Y-134413117D01*
X98868192Y-134150327D01*
X99010838Y-133806799D01*
X99011162Y-133434833D01*
X98869117Y-133091057D01*
X98606327Y-132827808D01*
X98262799Y-132685162D01*
X97890833Y-132684838D01*
X97769431Y-132735000D01*
X92996005Y-132735000D01*
X92996000Y-132734999D01*
X92713516Y-132791190D01*
X92657325Y-132802367D01*
X92370210Y-132994210D01*
X92370208Y-132994213D01*
X90708400Y-134656020D01*
X90982575Y-134245687D01*
X91107032Y-133620000D01*
X90982575Y-132994313D01*
X90628152Y-132463880D01*
X90457718Y-132350000D01*
X90628152Y-132236120D01*
X90982575Y-131705687D01*
X91107032Y-131080000D01*
X90982575Y-130454313D01*
X90628152Y-129923880D01*
X90097719Y-129569457D01*
X89472032Y-129445000D01*
X89407968Y-129445000D01*
X88932000Y-129539676D01*
X88932000Y-125492000D01*
X112808000Y-125492000D01*
X112808000Y-129539676D01*
G36*
X112427000Y-146193000D02*
X112447000Y-146193000D01*
X112447000Y-146447000D01*
X112427000Y-146447000D01*
X112427000Y-146467000D01*
X112173000Y-146467000D01*
X112173000Y-146447000D01*
X112153000Y-146447000D01*
X112153000Y-146193000D01*
X112173000Y-146193000D01*
X112173000Y-146173000D01*
X112427000Y-146173000D01*
X112427000Y-146193000D01*
X112427000Y-146193000D01*
G37*
X112427000Y-146193000D02*
X112447000Y-146193000D01*
X112447000Y-146447000D01*
X112427000Y-146447000D01*
X112427000Y-146467000D01*
X112173000Y-146467000D01*
X112173000Y-146447000D01*
X112153000Y-146447000D01*
X112153000Y-146193000D01*
X112173000Y-146193000D01*
X112173000Y-146173000D01*
X112427000Y-146173000D01*
X112427000Y-146193000D01*
G36*
X108755278Y-67262363D02*
X109004716Y-66661648D01*
X109005284Y-66011205D01*
X108756894Y-65410057D01*
X108297363Y-64949722D01*
X107696648Y-64700284D01*
X107046205Y-64699716D01*
X106445057Y-64948106D01*
X106119836Y-65272759D01*
X105797363Y-64949722D01*
X105196648Y-64700284D01*
X104546205Y-64699716D01*
X103945057Y-64948106D01*
X103710285Y-65182468D01*
X97842927Y-65182468D01*
X97744264Y-64915613D01*
X97134539Y-64689092D01*
X96484540Y-64713144D01*
X95995736Y-64915613D01*
X95897073Y-65182468D01*
X95342927Y-65182468D01*
X95244264Y-64915613D01*
X94634539Y-64689092D01*
X93984540Y-64713144D01*
X93495736Y-64915613D01*
X93397073Y-65182468D01*
X94370000Y-66155395D01*
X95342927Y-65182468D01*
X95897073Y-65182468D01*
X96870000Y-66155395D01*
X97842927Y-65182468D01*
X103710285Y-65182468D01*
X103484722Y-65407637D01*
X103235284Y-66008352D01*
X103234768Y-66599539D01*
X98515908Y-66599539D01*
X98491856Y-65949540D01*
X98289387Y-65460736D01*
X98022532Y-65362073D01*
X97049605Y-66335000D01*
X96690395Y-66335000D01*
X95717468Y-65362073D01*
X95620000Y-65398109D01*
X95522532Y-65362073D01*
X94549605Y-66335000D01*
X94190395Y-66335000D01*
X93217468Y-65362073D01*
X92950613Y-65460736D01*
X92724092Y-66070461D01*
X92748144Y-66720460D01*
X92950613Y-67209264D01*
X93217468Y-67307927D01*
X94190395Y-66335000D01*
X94549605Y-66335000D01*
X95522532Y-67307927D01*
X95620000Y-67271891D01*
X95717468Y-67307927D01*
X96690395Y-66335000D01*
X97049605Y-66335000D01*
X98022532Y-67307927D01*
X98289387Y-67209264D01*
X98515908Y-66599539D01*
X103234768Y-66599539D01*
X103234716Y-66658795D01*
X103483106Y-67259943D01*
X103767664Y-67544999D01*
X97821680Y-67544999D01*
X97842927Y-67487532D01*
X96870000Y-66514605D01*
X95897073Y-67487532D01*
X95918320Y-67544999D01*
X95321680Y-67544999D01*
X95342927Y-67487532D01*
X94370000Y-66514605D01*
X93397073Y-67487532D01*
X93418320Y-67544999D01*
X88932000Y-67544999D01*
X88932000Y-63897000D01*
X112808000Y-63897000D01*
X112808000Y-67158339D01*
X112421341Y-67544999D01*
X108472147Y-67544999D01*
X108755278Y-67262363D01*
X108755278Y-67262363D01*
G37*
X108755278Y-67262363D02*
X109004716Y-66661648D01*
X109005284Y-66011205D01*
X108756894Y-65410057D01*
X108297363Y-64949722D01*
X107696648Y-64700284D01*
X107046205Y-64699716D01*
X106445057Y-64948106D01*
X106119836Y-65272759D01*
X105797363Y-64949722D01*
X105196648Y-64700284D01*
X104546205Y-64699716D01*
X103945057Y-64948106D01*
X103710285Y-65182468D01*
X97842927Y-65182468D01*
X97744264Y-64915613D01*
X97134539Y-64689092D01*
X96484540Y-64713144D01*
X95995736Y-64915613D01*
X95897073Y-65182468D01*
X95342927Y-65182468D01*
X95244264Y-64915613D01*
X94634539Y-64689092D01*
X93984540Y-64713144D01*
X93495736Y-64915613D01*
X93397073Y-65182468D01*
X94370000Y-66155395D01*
X95342927Y-65182468D01*
X95897073Y-65182468D01*
X96870000Y-66155395D01*
X97842927Y-65182468D01*
X103710285Y-65182468D01*
X103484722Y-65407637D01*
X103235284Y-66008352D01*
X103234768Y-66599539D01*
X98515908Y-66599539D01*
X98491856Y-65949540D01*
X98289387Y-65460736D01*
X98022532Y-65362073D01*
X97049605Y-66335000D01*
X96690395Y-66335000D01*
X95717468Y-65362073D01*
X95620000Y-65398109D01*
X95522532Y-65362073D01*
X94549605Y-66335000D01*
X94190395Y-66335000D01*
X93217468Y-65362073D01*
X92950613Y-65460736D01*
X92724092Y-66070461D01*
X92748144Y-66720460D01*
X92950613Y-67209264D01*
X93217468Y-67307927D01*
X94190395Y-66335000D01*
X94549605Y-66335000D01*
X95522532Y-67307927D01*
X95620000Y-67271891D01*
X95717468Y-67307927D01*
X96690395Y-66335000D01*
X97049605Y-66335000D01*
X98022532Y-67307927D01*
X98289387Y-67209264D01*
X98515908Y-66599539D01*
X103234768Y-66599539D01*
X103234716Y-66658795D01*
X103483106Y-67259943D01*
X103767664Y-67544999D01*
X97821680Y-67544999D01*
X97842927Y-67487532D01*
X96870000Y-66514605D01*
X95897073Y-67487532D01*
X95918320Y-67544999D01*
X95321680Y-67544999D01*
X95342927Y-67487532D01*
X94370000Y-66514605D01*
X93397073Y-67487532D01*
X93418320Y-67544999D01*
X88932000Y-67544999D01*
X88932000Y-63897000D01*
X112808000Y-63897000D01*
X112808000Y-67158339D01*
X112421341Y-67544999D01*
X108472147Y-67544999D01*
X108755278Y-67262363D01*
G36*
X88932000Y-91980324D02*
X89407968Y-92075000D01*
X89472032Y-92075000D01*
X90097719Y-91950543D01*
X90628152Y-91596120D01*
X90982575Y-91065687D01*
X91107032Y-90440000D01*
X90982575Y-89814313D01*
X90628152Y-89283880D01*
X90457718Y-89170000D01*
X90628152Y-89056120D01*
X90982575Y-88525687D01*
X91107032Y-87900000D01*
X90982575Y-87274313D01*
X90708398Y-86863977D01*
X92370210Y-88525790D01*
X92619250Y-88692192D01*
X92657325Y-88717633D01*
X92713516Y-88728810D01*
X92996000Y-88785001D01*
X92996005Y-88785000D01*
X97769178Y-88785000D01*
X97889201Y-88834838D01*
X98261167Y-88835162D01*
X98604943Y-88693117D01*
X98868192Y-88430327D01*
X99010838Y-88086799D01*
X99011162Y-87714833D01*
X98869117Y-87371057D01*
X98606327Y-87107808D01*
X98262799Y-86965162D01*
X97890833Y-86964838D01*
X97769431Y-87015000D01*
X93362580Y-87015000D01*
X92103000Y-85755421D01*
X92103000Y-74438005D01*
X92103001Y-74438000D01*
X92049799Y-74170543D01*
X92035633Y-74099325D01*
X91846403Y-73816120D01*
X91843790Y-73812210D01*
X91472000Y-73440420D01*
X91472000Y-71005000D01*
X112808000Y-71005000D01*
X112808000Y-71119676D01*
X112332032Y-71025000D01*
X112267968Y-71025000D01*
X111642281Y-71149457D01*
X111111848Y-71503880D01*
X110757425Y-72034313D01*
X110632968Y-72660000D01*
X110701896Y-73006524D01*
X109896213Y-73812208D01*
X109896210Y-73812210D01*
X109704367Y-74099325D01*
X109690201Y-74170543D01*
X109636999Y-74438000D01*
X109637000Y-74438005D01*
X109637000Y-85011205D01*
X109005284Y-85011205D01*
X108756894Y-84410057D01*
X108297363Y-83949722D01*
X107696648Y-83700284D01*
X107046205Y-83699716D01*
X106445057Y-83948106D01*
X106119836Y-84272759D01*
X105797363Y-83949722D01*
X105196648Y-83700284D01*
X104546205Y-83699716D01*
X103945057Y-83948106D01*
X103710285Y-84182468D01*
X97842927Y-84182468D01*
X97744264Y-83915613D01*
X97134539Y-83689092D01*
X96484540Y-83713144D01*
X95995736Y-83915613D01*
X95897073Y-84182468D01*
X95342927Y-84182468D01*
X95244264Y-83915613D01*
X94634539Y-83689092D01*
X93984540Y-83713144D01*
X93495736Y-83915613D01*
X93397073Y-84182468D01*
X94370000Y-85155395D01*
X95342927Y-84182468D01*
X95897073Y-84182468D01*
X96870000Y-85155395D01*
X97842927Y-84182468D01*
X103710285Y-84182468D01*
X103484722Y-84407637D01*
X103235284Y-85008352D01*
X103234768Y-85599539D01*
X98515908Y-85599539D01*
X98491856Y-84949540D01*
X98289387Y-84460736D01*
X98022532Y-84362073D01*
X97049605Y-85335000D01*
X96690395Y-85335000D01*
X95717468Y-84362073D01*
X95620000Y-84398109D01*
X95522532Y-84362073D01*
X94549605Y-85335000D01*
X94190395Y-85335000D01*
X93217468Y-84362073D01*
X92950613Y-84460736D01*
X92724092Y-85070461D01*
X92748144Y-85720460D01*
X92950613Y-86209264D01*
X93217468Y-86307927D01*
X94190395Y-85335000D01*
X94549605Y-85335000D01*
X95522532Y-86307927D01*
X95620000Y-86271891D01*
X95717468Y-86307927D01*
X96690395Y-85335000D01*
X97049605Y-85335000D01*
X98022532Y-86307927D01*
X98289387Y-86209264D01*
X98515908Y-85599539D01*
X103234768Y-85599539D01*
X103234716Y-85658795D01*
X103483106Y-86259943D01*
X103710297Y-86487532D01*
X97842927Y-86487532D01*
X96870000Y-85514605D01*
X95897073Y-86487532D01*
X95342927Y-86487532D01*
X94370000Y-85514605D01*
X93397073Y-86487532D01*
X93495736Y-86754387D01*
X94105461Y-86980908D01*
X94755460Y-86956856D01*
X95244264Y-86754387D01*
X95342927Y-86487532D01*
X95897073Y-86487532D01*
X95995736Y-86754387D01*
X96605461Y-86980908D01*
X97255460Y-86956856D01*
X97744264Y-86754387D01*
X97842927Y-86487532D01*
X103710297Y-86487532D01*
X103942637Y-86720278D01*
X104543352Y-86969716D01*
X105193795Y-86970284D01*
X105794943Y-86721894D01*
X106120164Y-86397241D01*
X106442637Y-86720278D01*
X107043352Y-86969716D01*
X107693795Y-86970284D01*
X108294943Y-86721894D01*
X108755278Y-86262363D01*
X109004716Y-85661648D01*
X109005284Y-85011205D01*
X109637000Y-85011205D01*
X109637000Y-85755420D01*
X108377421Y-87015000D01*
X103970822Y-87015000D01*
X103850799Y-86965162D01*
X103478833Y-86964838D01*
X103135057Y-87106883D01*
X102871808Y-87369673D01*
X102729162Y-87713201D01*
X102728838Y-88085167D01*
X102870883Y-88428943D01*
X103133673Y-88692192D01*
X103477201Y-88834838D01*
X103849167Y-88835162D01*
X103970569Y-88785000D01*
X108743995Y-88785000D01*
X108744000Y-88785001D01*
X109026484Y-88728810D01*
X109082675Y-88717633D01*
X109369790Y-88525790D01*
X109369792Y-88525787D01*
X111031600Y-86863980D01*
X110757425Y-87274313D01*
X110632968Y-87900000D01*
X110757425Y-88525687D01*
X111111848Y-89056120D01*
X111282282Y-89170000D01*
X111111848Y-89283880D01*
X110757425Y-89814313D01*
X110632968Y-90440000D01*
X110757425Y-91065687D01*
X111111848Y-91596120D01*
X111642281Y-91950543D01*
X112267968Y-92075000D01*
X112332032Y-92075000D01*
X112808000Y-91980324D01*
X112808000Y-96028000D01*
X88932000Y-96028000D01*
X88932000Y-91980324D01*
X88932000Y-91980324D01*
G37*
X88932000Y-91980324D02*
X89407968Y-92075000D01*
X89472032Y-92075000D01*
X90097719Y-91950543D01*
X90628152Y-91596120D01*
X90982575Y-91065687D01*
X91107032Y-90440000D01*
X90982575Y-89814313D01*
X90628152Y-89283880D01*
X90457718Y-89170000D01*
X90628152Y-89056120D01*
X90982575Y-88525687D01*
X91107032Y-87900000D01*
X90982575Y-87274313D01*
X90708398Y-86863977D01*
X92370210Y-88525790D01*
X92619250Y-88692192D01*
X92657325Y-88717633D01*
X92713516Y-88728810D01*
X92996000Y-88785001D01*
X92996005Y-88785000D01*
X97769178Y-88785000D01*
X97889201Y-88834838D01*
X98261167Y-88835162D01*
X98604943Y-88693117D01*
X98868192Y-88430327D01*
X99010838Y-88086799D01*
X99011162Y-87714833D01*
X98869117Y-87371057D01*
X98606327Y-87107808D01*
X98262799Y-86965162D01*
X97890833Y-86964838D01*
X97769431Y-87015000D01*
X93362580Y-87015000D01*
X92103000Y-85755421D01*
X92103000Y-74438005D01*
X92103001Y-74438000D01*
X92049799Y-74170543D01*
X92035633Y-74099325D01*
X91846403Y-73816120D01*
X91843790Y-73812210D01*
X91472000Y-73440420D01*
X91472000Y-71005000D01*
X112808000Y-71005000D01*
X112808000Y-71119676D01*
X112332032Y-71025000D01*
X112267968Y-71025000D01*
X111642281Y-71149457D01*
X111111848Y-71503880D01*
X110757425Y-72034313D01*
X110632968Y-72660000D01*
X110701896Y-73006524D01*
X109896213Y-73812208D01*
X109896210Y-73812210D01*
X109704367Y-74099325D01*
X109690201Y-74170543D01*
X109636999Y-74438000D01*
X109637000Y-74438005D01*
X109637000Y-85011205D01*
X109005284Y-85011205D01*
X108756894Y-84410057D01*
X108297363Y-83949722D01*
X107696648Y-83700284D01*
X107046205Y-83699716D01*
X106445057Y-83948106D01*
X106119836Y-84272759D01*
X105797363Y-83949722D01*
X105196648Y-83700284D01*
X104546205Y-83699716D01*
X103945057Y-83948106D01*
X103710285Y-84182468D01*
X97842927Y-84182468D01*
X97744264Y-83915613D01*
X97134539Y-83689092D01*
X96484540Y-83713144D01*
X95995736Y-83915613D01*
X95897073Y-84182468D01*
X95342927Y-84182468D01*
X95244264Y-83915613D01*
X94634539Y-83689092D01*
X93984540Y-83713144D01*
X93495736Y-83915613D01*
X93397073Y-84182468D01*
X94370000Y-85155395D01*
X95342927Y-84182468D01*
X95897073Y-84182468D01*
X96870000Y-85155395D01*
X97842927Y-84182468D01*
X103710285Y-84182468D01*
X103484722Y-84407637D01*
X103235284Y-85008352D01*
X103234768Y-85599539D01*
X98515908Y-85599539D01*
X98491856Y-84949540D01*
X98289387Y-84460736D01*
X98022532Y-84362073D01*
X97049605Y-85335000D01*
X96690395Y-85335000D01*
X95717468Y-84362073D01*
X95620000Y-84398109D01*
X95522532Y-84362073D01*
X94549605Y-85335000D01*
X94190395Y-85335000D01*
X93217468Y-84362073D01*
X92950613Y-84460736D01*
X92724092Y-85070461D01*
X92748144Y-85720460D01*
X92950613Y-86209264D01*
X93217468Y-86307927D01*
X94190395Y-85335000D01*
X94549605Y-85335000D01*
X95522532Y-86307927D01*
X95620000Y-86271891D01*
X95717468Y-86307927D01*
X96690395Y-85335000D01*
X97049605Y-85335000D01*
X98022532Y-86307927D01*
X98289387Y-86209264D01*
X98515908Y-85599539D01*
X103234768Y-85599539D01*
X103234716Y-85658795D01*
X103483106Y-86259943D01*
X103710297Y-86487532D01*
X97842927Y-86487532D01*
X96870000Y-85514605D01*
X95897073Y-86487532D01*
X95342927Y-86487532D01*
X94370000Y-85514605D01*
X93397073Y-86487532D01*
X93495736Y-86754387D01*
X94105461Y-86980908D01*
X94755460Y-86956856D01*
X95244264Y-86754387D01*
X95342927Y-86487532D01*
X95897073Y-86487532D01*
X95995736Y-86754387D01*
X96605461Y-86980908D01*
X97255460Y-86956856D01*
X97744264Y-86754387D01*
X97842927Y-86487532D01*
X103710297Y-86487532D01*
X103942637Y-86720278D01*
X104543352Y-86969716D01*
X105193795Y-86970284D01*
X105794943Y-86721894D01*
X106120164Y-86397241D01*
X106442637Y-86720278D01*
X107043352Y-86969716D01*
X107693795Y-86970284D01*
X108294943Y-86721894D01*
X108755278Y-86262363D01*
X109004716Y-85661648D01*
X109005284Y-85011205D01*
X109637000Y-85011205D01*
X109637000Y-85755420D01*
X108377421Y-87015000D01*
X103970822Y-87015000D01*
X103850799Y-86965162D01*
X103478833Y-86964838D01*
X103135057Y-87106883D01*
X102871808Y-87369673D01*
X102729162Y-87713201D01*
X102728838Y-88085167D01*
X102870883Y-88428943D01*
X103133673Y-88692192D01*
X103477201Y-88834838D01*
X103849167Y-88835162D01*
X103970569Y-88785000D01*
X108743995Y-88785000D01*
X108744000Y-88785001D01*
X109026484Y-88728810D01*
X109082675Y-88717633D01*
X109369790Y-88525790D01*
X109369792Y-88525787D01*
X111031600Y-86863980D01*
X110757425Y-87274313D01*
X110632968Y-87900000D01*
X110757425Y-88525687D01*
X111111848Y-89056120D01*
X111282282Y-89170000D01*
X111111848Y-89283880D01*
X110757425Y-89814313D01*
X110632968Y-90440000D01*
X110757425Y-91065687D01*
X111111848Y-91596120D01*
X111642281Y-91950543D01*
X112267968Y-92075000D01*
X112332032Y-92075000D01*
X112808000Y-91980324D01*
X112808000Y-96028000D01*
X88932000Y-96028000D01*
X88932000Y-91980324D01*
G36*
X89313000Y-75327000D02*
X89293000Y-75327000D01*
X89293000Y-75073000D01*
X89313000Y-75073000D01*
X89313000Y-75053000D01*
X89567000Y-75053000D01*
X89567000Y-75073000D01*
X89587000Y-75073000D01*
X89587000Y-75327000D01*
X89567000Y-75327000D01*
X89567000Y-75347000D01*
X89313000Y-75347000D01*
X89313000Y-75327000D01*
X89313000Y-75327000D01*
G37*
X89313000Y-75327000D02*
X89293000Y-75327000D01*
X89293000Y-75073000D01*
X89313000Y-75073000D01*
X89313000Y-75053000D01*
X89567000Y-75053000D01*
X89567000Y-75073000D01*
X89587000Y-75073000D01*
X89587000Y-75327000D01*
X89567000Y-75327000D01*
X89567000Y-75347000D01*
X89313000Y-75347000D01*
X89313000Y-75327000D01*
G36*
X89313000Y-72787000D02*
X87027000Y-72787000D01*
X87027000Y-72807000D01*
X86773000Y-72807000D01*
X86773000Y-72787000D01*
X86753000Y-72787000D01*
X86753000Y-72533000D01*
X86773000Y-72533000D01*
X86773000Y-70247000D01*
X86753000Y-70247000D01*
X86753000Y-69993000D01*
X90075000Y-69993000D01*
X90075000Y-71186980D01*
X89820435Y-71069867D01*
X89567000Y-71188681D01*
X89567000Y-72533000D01*
X89313000Y-72533000D01*
X89313000Y-71188681D01*
X89059565Y-71069867D01*
X88480006Y-71336495D01*
X88068988Y-71780432D01*
X87900122Y-71595136D01*
X88109698Y-71508327D01*
X88288327Y-71329699D01*
X88385000Y-71096310D01*
X88385000Y-70405750D01*
X88226250Y-70247000D01*
X87027000Y-70247000D01*
X87027000Y-72533000D01*
X89313000Y-72533000D01*
X89567000Y-72533000D01*
X89587000Y-72533000D01*
X89587000Y-72787000D01*
X89567000Y-72787000D01*
X89567000Y-72807000D01*
X89313000Y-72807000D01*
X89313000Y-72787000D01*
X89313000Y-72787000D01*
G37*
X89313000Y-72787000D02*
X87027000Y-72787000D01*
X87027000Y-72807000D01*
X86773000Y-72807000D01*
X86773000Y-72787000D01*
X86753000Y-72787000D01*
X86753000Y-72533000D01*
X86773000Y-72533000D01*
X86773000Y-70247000D01*
X86753000Y-70247000D01*
X86753000Y-69993000D01*
X90075000Y-69993000D01*
X90075000Y-71186980D01*
X89820435Y-71069867D01*
X89567000Y-71188681D01*
X89567000Y-72533000D01*
X89313000Y-72533000D01*
X89313000Y-71188681D01*
X89059565Y-71069867D01*
X88480006Y-71336495D01*
X88068988Y-71780432D01*
X87900122Y-71595136D01*
X88109698Y-71508327D01*
X88288327Y-71329699D01*
X88385000Y-71096310D01*
X88385000Y-70405750D01*
X88226250Y-70247000D01*
X87027000Y-70247000D01*
X87027000Y-72533000D01*
X89313000Y-72533000D01*
X89567000Y-72533000D01*
X89587000Y-72533000D01*
X89587000Y-72787000D01*
X89567000Y-72787000D01*
X89567000Y-72807000D01*
X89313000Y-72807000D01*
X89313000Y-72787000D01*
M02*
