G04 #@! TF.FileFunction,Legend,Top*
%FSLAX46Y46*%
G04 Gerber Fmt 4.6, Leading zero omitted, Abs format (unit mm)*
G04 Created by KiCad (PCBNEW 4.0.4+e1-6308~48~ubuntu16.04.1-stable) date Sun Jan 29 14:42:06 2017*
%MOMM*%
%LPD*%
G01*
G04 APERTURE LIST*
%ADD10C,0.100000*%
%ADD11C,0.120000*%
%ADD12C,0.150000*%
G04 APERTURE END LIST*
D10*
D11*
X104280000Y-68845000D02*
X103020000Y-68845000D01*
X97460000Y-68845000D02*
X98720000Y-68845000D01*
X104280000Y-72605000D02*
X104280000Y-68845000D01*
X97460000Y-74855000D02*
X97460000Y-68845000D01*
X116230000Y-68850000D02*
X116230000Y-63650000D01*
X116230000Y-63650000D02*
X113450000Y-63650000D01*
X113450000Y-63650000D02*
X113450000Y-68850000D01*
X113450000Y-68850000D02*
X116230000Y-68850000D01*
X116230000Y-70120000D02*
X116230000Y-71510000D01*
X116230000Y-71510000D02*
X114840000Y-71510000D01*
X88290000Y-68850000D02*
X88290000Y-63650000D01*
X88290000Y-63650000D02*
X85510000Y-63650000D01*
X85510000Y-63650000D02*
X85510000Y-68850000D01*
X85510000Y-68850000D02*
X88290000Y-68850000D01*
X88290000Y-70120000D02*
X88290000Y-71510000D01*
X88290000Y-71510000D02*
X86900000Y-71510000D01*
X88290000Y-89170000D02*
X88290000Y-71270000D01*
X88290000Y-71270000D02*
X85510000Y-71270000D01*
X85510000Y-71270000D02*
X85510000Y-89170000D01*
X85510000Y-89170000D02*
X88290000Y-89170000D01*
X88290000Y-90440000D02*
X88290000Y-91830000D01*
X88290000Y-91830000D02*
X86900000Y-91830000D01*
D12*
X92870000Y-86835000D02*
X108870000Y-86835000D01*
X108870000Y-86835000D02*
X108870000Y-64835000D01*
X108870000Y-64835000D02*
X92870000Y-64835000D01*
X92870000Y-64835000D02*
X92870000Y-86835000D01*
D11*
X113450000Y-76470000D02*
X113450000Y-91830000D01*
X113450000Y-91830000D02*
X116230000Y-91830000D01*
X116230000Y-91830000D02*
X116230000Y-76470000D01*
X116230000Y-76470000D02*
X113450000Y-76470000D01*
X113450000Y-75200000D02*
X113450000Y-73810000D01*
X113450000Y-73810000D02*
X114840000Y-73810000D01*
X105316000Y-76964000D02*
X105316000Y-71164000D01*
X108616000Y-76964000D02*
X108616000Y-71164000D01*
X105316000Y-76964000D02*
X108616000Y-76964000D01*
D12*
X107736000Y-79859000D02*
X108736000Y-79859000D01*
X108736000Y-81209000D02*
X107736000Y-81209000D01*
X107736000Y-81891000D02*
X108736000Y-81891000D01*
X108736000Y-83241000D02*
X107736000Y-83241000D01*
X100870000Y-96790000D02*
X103410000Y-96790000D01*
X98050000Y-96510000D02*
X99600000Y-96510000D01*
X100870000Y-96790000D02*
X100870000Y-99330000D01*
X99600000Y-99610000D02*
X98050000Y-99610000D01*
X98050000Y-99610000D02*
X98050000Y-96510000D01*
X100870000Y-99330000D02*
X103410000Y-99330000D01*
X103410000Y-99330000D02*
X103410000Y-96790000D01*
D11*
X96820000Y-78122000D02*
X102620000Y-78122000D01*
X96820000Y-81422000D02*
X102620000Y-81422000D01*
X96820000Y-78122000D02*
X96820000Y-81422000D01*
D12*
X100275000Y-84860000D02*
X100275000Y-85860000D01*
X98925000Y-85860000D02*
X98925000Y-84860000D01*
X102815000Y-84860000D02*
X102815000Y-85860000D01*
X101465000Y-85860000D02*
X101465000Y-84860000D01*
X100520000Y-75870000D02*
X101220000Y-75870000D01*
X101220000Y-77070000D02*
X100520000Y-77070000D01*
X108870000Y-134685000D02*
X92870000Y-134685000D01*
X92870000Y-134685000D02*
X92870000Y-156685000D01*
X92870000Y-156685000D02*
X108870000Y-156685000D01*
X108870000Y-156685000D02*
X108870000Y-134685000D01*
X101220000Y-145650000D02*
X100520000Y-145650000D01*
X100520000Y-144450000D02*
X101220000Y-144450000D01*
X100870000Y-124730000D02*
X98330000Y-124730000D01*
X103690000Y-125010000D02*
X102140000Y-125010000D01*
X100870000Y-124730000D02*
X100870000Y-122190000D01*
X102140000Y-121910000D02*
X103690000Y-121910000D01*
X103690000Y-121910000D02*
X103690000Y-125010000D01*
X100870000Y-122190000D02*
X98330000Y-122190000D01*
X98330000Y-122190000D02*
X98330000Y-124730000D01*
X94004000Y-141661000D02*
X93004000Y-141661000D01*
X93004000Y-140311000D02*
X94004000Y-140311000D01*
X94004000Y-139629000D02*
X93004000Y-139629000D01*
X93004000Y-138279000D02*
X94004000Y-138279000D01*
X101465000Y-136660000D02*
X101465000Y-135660000D01*
X102815000Y-135660000D02*
X102815000Y-136660000D01*
X98925000Y-136660000D02*
X98925000Y-135660000D01*
X100275000Y-135660000D02*
X100275000Y-136660000D01*
D11*
X104920000Y-143398000D02*
X99120000Y-143398000D01*
X104920000Y-140098000D02*
X99120000Y-140098000D01*
X104920000Y-143398000D02*
X104920000Y-140098000D01*
X96424000Y-144556000D02*
X96424000Y-150356000D01*
X93124000Y-144556000D02*
X93124000Y-150356000D01*
X96424000Y-144556000D02*
X93124000Y-144556000D01*
X88290000Y-145050000D02*
X88290000Y-129690000D01*
X88290000Y-129690000D02*
X85510000Y-129690000D01*
X85510000Y-129690000D02*
X85510000Y-145050000D01*
X85510000Y-145050000D02*
X88290000Y-145050000D01*
X88290000Y-146320000D02*
X88290000Y-147710000D01*
X88290000Y-147710000D02*
X86900000Y-147710000D01*
X113450000Y-132350000D02*
X113450000Y-150250000D01*
X113450000Y-150250000D02*
X116230000Y-150250000D01*
X116230000Y-150250000D02*
X116230000Y-132350000D01*
X116230000Y-132350000D02*
X113450000Y-132350000D01*
X113450000Y-131080000D02*
X113450000Y-129690000D01*
X113450000Y-129690000D02*
X114840000Y-129690000D01*
X113450000Y-152670000D02*
X113450000Y-157870000D01*
X113450000Y-157870000D02*
X116230000Y-157870000D01*
X116230000Y-157870000D02*
X116230000Y-152670000D01*
X116230000Y-152670000D02*
X113450000Y-152670000D01*
X113450000Y-151400000D02*
X113450000Y-150010000D01*
X113450000Y-150010000D02*
X114840000Y-150010000D01*
X85510000Y-152670000D02*
X85510000Y-157870000D01*
X85510000Y-157870000D02*
X88290000Y-157870000D01*
X88290000Y-157870000D02*
X88290000Y-152670000D01*
X88290000Y-152670000D02*
X85510000Y-152670000D01*
X85510000Y-151400000D02*
X85510000Y-150010000D01*
X85510000Y-150010000D02*
X86900000Y-150010000D01*
X97460000Y-152675000D02*
X98720000Y-152675000D01*
X104280000Y-152675000D02*
X103020000Y-152675000D01*
X97460000Y-148915000D02*
X97460000Y-152675000D01*
X104280000Y-146665000D02*
X104280000Y-152675000D01*
D12*
X95822381Y-71516905D02*
X96631905Y-71516905D01*
X96727143Y-71469286D01*
X96774762Y-71421667D01*
X96822381Y-71326429D01*
X96822381Y-71135952D01*
X96774762Y-71040714D01*
X96727143Y-70993095D01*
X96631905Y-70945476D01*
X95822381Y-70945476D01*
X95822381Y-70564524D02*
X95822381Y-69945476D01*
X96203333Y-70278810D01*
X96203333Y-70135952D01*
X96250952Y-70040714D01*
X96298571Y-69993095D01*
X96393810Y-69945476D01*
X96631905Y-69945476D01*
X96727143Y-69993095D01*
X96774762Y-70040714D01*
X96822381Y-70135952D01*
X96822381Y-70421667D01*
X96774762Y-70516905D01*
X96727143Y-70564524D01*
X114101905Y-72962381D02*
X114101905Y-71962381D01*
X114482858Y-71962381D01*
X114578096Y-72010000D01*
X114625715Y-72057619D01*
X114673334Y-72152857D01*
X114673334Y-72295714D01*
X114625715Y-72390952D01*
X114578096Y-72438571D01*
X114482858Y-72486190D01*
X114101905Y-72486190D01*
X115530477Y-72295714D02*
X115530477Y-72962381D01*
X115292381Y-71914762D02*
X115054286Y-72629048D01*
X115673334Y-72629048D01*
X86161905Y-72962381D02*
X86161905Y-71962381D01*
X86542858Y-71962381D01*
X86638096Y-72010000D01*
X86685715Y-72057619D01*
X86733334Y-72152857D01*
X86733334Y-72295714D01*
X86685715Y-72390952D01*
X86638096Y-72438571D01*
X86542858Y-72486190D01*
X86161905Y-72486190D01*
X87638096Y-71962381D02*
X87161905Y-71962381D01*
X87114286Y-72438571D01*
X87161905Y-72390952D01*
X87257143Y-72343333D01*
X87495239Y-72343333D01*
X87590477Y-72390952D01*
X87638096Y-72438571D01*
X87685715Y-72533810D01*
X87685715Y-72771905D01*
X87638096Y-72867143D01*
X87590477Y-72914762D01*
X87495239Y-72962381D01*
X87257143Y-72962381D01*
X87161905Y-72914762D01*
X87114286Y-72867143D01*
X86161905Y-93282381D02*
X86161905Y-92282381D01*
X86542858Y-92282381D01*
X86638096Y-92330000D01*
X86685715Y-92377619D01*
X86733334Y-92472857D01*
X86733334Y-92615714D01*
X86685715Y-92710952D01*
X86638096Y-92758571D01*
X86542858Y-92806190D01*
X86161905Y-92806190D01*
X87066667Y-92282381D02*
X87685715Y-92282381D01*
X87352381Y-92663333D01*
X87495239Y-92663333D01*
X87590477Y-92710952D01*
X87638096Y-92758571D01*
X87685715Y-92853810D01*
X87685715Y-93091905D01*
X87638096Y-93187143D01*
X87590477Y-93234762D01*
X87495239Y-93282381D01*
X87209524Y-93282381D01*
X87114286Y-93234762D01*
X87066667Y-93187143D01*
X91940381Y-81041905D02*
X92749905Y-81041905D01*
X92845143Y-80994286D01*
X92892762Y-80946667D01*
X92940381Y-80851429D01*
X92940381Y-80660952D01*
X92892762Y-80565714D01*
X92845143Y-80518095D01*
X92749905Y-80470476D01*
X91940381Y-80470476D01*
X92940381Y-79470476D02*
X92940381Y-80041905D01*
X92940381Y-79756191D02*
X91940381Y-79756191D01*
X92083238Y-79851429D01*
X92178476Y-79946667D01*
X92226095Y-80041905D01*
D10*
X90944190Y-72755237D02*
X90944190Y-72993332D01*
X91182286Y-73017142D01*
X91158476Y-72993332D01*
X91134667Y-72945713D01*
X91134667Y-72826666D01*
X91158476Y-72779047D01*
X91182286Y-72755237D01*
X91229905Y-72731428D01*
X91348952Y-72731428D01*
X91396571Y-72755237D01*
X91420381Y-72779047D01*
X91444190Y-72826666D01*
X91444190Y-72945713D01*
X91420381Y-72993332D01*
X91396571Y-73017142D01*
X90944190Y-72588571D02*
X91444190Y-72421904D01*
X90944190Y-72255238D01*
X90968000Y-75580953D02*
X90944190Y-75628572D01*
X90944190Y-75700000D01*
X90968000Y-75771429D01*
X91015619Y-75819048D01*
X91063238Y-75842857D01*
X91158476Y-75866667D01*
X91229905Y-75866667D01*
X91325143Y-75842857D01*
X91372762Y-75819048D01*
X91420381Y-75771429D01*
X91444190Y-75700000D01*
X91444190Y-75652381D01*
X91420381Y-75580953D01*
X91396571Y-75557143D01*
X91229905Y-75557143D01*
X91229905Y-75652381D01*
X91444190Y-75342857D02*
X90944190Y-75342857D01*
X91444190Y-75057143D01*
X90944190Y-75057143D01*
X91444190Y-74819047D02*
X90944190Y-74819047D01*
X90944190Y-74700000D01*
X90968000Y-74628571D01*
X91015619Y-74580952D01*
X91063238Y-74557143D01*
X91158476Y-74533333D01*
X91229905Y-74533333D01*
X91325143Y-74557143D01*
X91372762Y-74580952D01*
X91420381Y-74628571D01*
X91444190Y-74700000D01*
X91444190Y-74819047D01*
X91444190Y-78109047D02*
X90944190Y-78109047D01*
X90944190Y-77990000D01*
X90968000Y-77918571D01*
X91015619Y-77870952D01*
X91063238Y-77847143D01*
X91158476Y-77823333D01*
X91229905Y-77823333D01*
X91325143Y-77847143D01*
X91372762Y-77870952D01*
X91420381Y-77918571D01*
X91444190Y-77990000D01*
X91444190Y-78109047D01*
X91110857Y-77394762D02*
X91444190Y-77394762D01*
X90920381Y-77513809D02*
X91277524Y-77632857D01*
X91277524Y-77323333D01*
X91444190Y-80649047D02*
X90944190Y-80649047D01*
X90944190Y-80530000D01*
X90968000Y-80458571D01*
X91015619Y-80410952D01*
X91063238Y-80387143D01*
X91158476Y-80363333D01*
X91229905Y-80363333D01*
X91325143Y-80387143D01*
X91372762Y-80410952D01*
X91420381Y-80458571D01*
X91444190Y-80530000D01*
X91444190Y-80649047D01*
X90944190Y-80196666D02*
X90944190Y-79887143D01*
X91134667Y-80053809D01*
X91134667Y-79982381D01*
X91158476Y-79934762D01*
X91182286Y-79910952D01*
X91229905Y-79887143D01*
X91348952Y-79887143D01*
X91396571Y-79910952D01*
X91420381Y-79934762D01*
X91444190Y-79982381D01*
X91444190Y-80125238D01*
X91420381Y-80172857D01*
X91396571Y-80196666D01*
X91444190Y-83189047D02*
X90944190Y-83189047D01*
X90944190Y-83070000D01*
X90968000Y-82998571D01*
X91015619Y-82950952D01*
X91063238Y-82927143D01*
X91158476Y-82903333D01*
X91229905Y-82903333D01*
X91325143Y-82927143D01*
X91372762Y-82950952D01*
X91420381Y-82998571D01*
X91444190Y-83070000D01*
X91444190Y-83189047D01*
X90991810Y-82712857D02*
X90968000Y-82689047D01*
X90944190Y-82641428D01*
X90944190Y-82522381D01*
X90968000Y-82474762D01*
X90991810Y-82450952D01*
X91039429Y-82427143D01*
X91087048Y-82427143D01*
X91158476Y-82450952D01*
X91444190Y-82736666D01*
X91444190Y-82427143D01*
X91444190Y-85729047D02*
X90944190Y-85729047D01*
X90944190Y-85610000D01*
X90968000Y-85538571D01*
X91015619Y-85490952D01*
X91063238Y-85467143D01*
X91158476Y-85443333D01*
X91229905Y-85443333D01*
X91325143Y-85467143D01*
X91372762Y-85490952D01*
X91420381Y-85538571D01*
X91444190Y-85610000D01*
X91444190Y-85729047D01*
X91444190Y-84967143D02*
X91444190Y-85252857D01*
X91444190Y-85110000D02*
X90944190Y-85110000D01*
X91015619Y-85157619D01*
X91063238Y-85205238D01*
X91087048Y-85252857D01*
X91444190Y-87983333D02*
X91206095Y-88150000D01*
X91444190Y-88269047D02*
X90944190Y-88269047D01*
X90944190Y-88078571D01*
X90968000Y-88030952D01*
X90991810Y-88007143D01*
X91039429Y-87983333D01*
X91110857Y-87983333D01*
X91158476Y-88007143D01*
X91182286Y-88030952D01*
X91206095Y-88078571D01*
X91206095Y-88269047D01*
X90944190Y-87816666D02*
X91444190Y-87483333D01*
X90944190Y-87483333D02*
X91444190Y-87816666D01*
X90944190Y-90820952D02*
X90944190Y-90535238D01*
X91444190Y-90678095D02*
X90944190Y-90678095D01*
X90944190Y-90416190D02*
X91444190Y-90082857D01*
X90944190Y-90082857D02*
X91444190Y-90416190D01*
X110248190Y-73279046D02*
X110248190Y-72969523D01*
X110438667Y-73136189D01*
X110438667Y-73064761D01*
X110462476Y-73017142D01*
X110486286Y-72993332D01*
X110533905Y-72969523D01*
X110652952Y-72969523D01*
X110700571Y-72993332D01*
X110724381Y-73017142D01*
X110748190Y-73064761D01*
X110748190Y-73207618D01*
X110724381Y-73255237D01*
X110700571Y-73279046D01*
X110248190Y-72826666D02*
X110748190Y-72659999D01*
X110248190Y-72493333D01*
X110248190Y-72374285D02*
X110248190Y-72064762D01*
X110438667Y-72231428D01*
X110438667Y-72160000D01*
X110462476Y-72112381D01*
X110486286Y-72088571D01*
X110533905Y-72064762D01*
X110652952Y-72064762D01*
X110700571Y-72088571D01*
X110724381Y-72112381D01*
X110748190Y-72160000D01*
X110748190Y-72302857D01*
X110724381Y-72350476D01*
X110700571Y-72374285D01*
X110748190Y-75330952D02*
X110248190Y-75330952D01*
X110724381Y-75330952D02*
X110748190Y-75378571D01*
X110748190Y-75473809D01*
X110724381Y-75521428D01*
X110700571Y-75545237D01*
X110652952Y-75569047D01*
X110510095Y-75569047D01*
X110462476Y-75545237D01*
X110438667Y-75521428D01*
X110414857Y-75473809D01*
X110414857Y-75378571D01*
X110438667Y-75330952D01*
X110462476Y-75021428D02*
X110438667Y-75069047D01*
X110414857Y-75092856D01*
X110367238Y-75116666D01*
X110343429Y-75116666D01*
X110295810Y-75092856D01*
X110272000Y-75069047D01*
X110248190Y-75021428D01*
X110248190Y-74926190D01*
X110272000Y-74878571D01*
X110295810Y-74854761D01*
X110343429Y-74830952D01*
X110367238Y-74830952D01*
X110414857Y-74854761D01*
X110438667Y-74878571D01*
X110462476Y-74926190D01*
X110462476Y-75021428D01*
X110486286Y-75069047D01*
X110510095Y-75092856D01*
X110557714Y-75116666D01*
X110652952Y-75116666D01*
X110700571Y-75092856D01*
X110724381Y-75069047D01*
X110748190Y-75021428D01*
X110748190Y-74926190D01*
X110724381Y-74878571D01*
X110700571Y-74854761D01*
X110652952Y-74830952D01*
X110557714Y-74830952D01*
X110510095Y-74854761D01*
X110486286Y-74878571D01*
X110462476Y-74926190D01*
X110748190Y-78109047D02*
X110248190Y-78109047D01*
X110248190Y-77990000D01*
X110272000Y-77918571D01*
X110319619Y-77870952D01*
X110367238Y-77847143D01*
X110462476Y-77823333D01*
X110533905Y-77823333D01*
X110629143Y-77847143D01*
X110676762Y-77870952D01*
X110724381Y-77918571D01*
X110748190Y-77990000D01*
X110748190Y-78109047D01*
X110248190Y-77656666D02*
X110248190Y-77323333D01*
X110748190Y-77537619D01*
X110748190Y-80649047D02*
X110248190Y-80649047D01*
X110248190Y-80530000D01*
X110272000Y-80458571D01*
X110319619Y-80410952D01*
X110367238Y-80387143D01*
X110462476Y-80363333D01*
X110533905Y-80363333D01*
X110629143Y-80387143D01*
X110676762Y-80410952D01*
X110724381Y-80458571D01*
X110748190Y-80530000D01*
X110748190Y-80649047D01*
X110248190Y-79934762D02*
X110248190Y-80030000D01*
X110272000Y-80077619D01*
X110295810Y-80101428D01*
X110367238Y-80149047D01*
X110462476Y-80172857D01*
X110652952Y-80172857D01*
X110700571Y-80149047D01*
X110724381Y-80125238D01*
X110748190Y-80077619D01*
X110748190Y-79982381D01*
X110724381Y-79934762D01*
X110700571Y-79910952D01*
X110652952Y-79887143D01*
X110533905Y-79887143D01*
X110486286Y-79910952D01*
X110462476Y-79934762D01*
X110438667Y-79982381D01*
X110438667Y-80077619D01*
X110462476Y-80125238D01*
X110486286Y-80149047D01*
X110533905Y-80172857D01*
X110748190Y-83189047D02*
X110248190Y-83189047D01*
X110248190Y-83070000D01*
X110272000Y-82998571D01*
X110319619Y-82950952D01*
X110367238Y-82927143D01*
X110462476Y-82903333D01*
X110533905Y-82903333D01*
X110629143Y-82927143D01*
X110676762Y-82950952D01*
X110724381Y-82998571D01*
X110748190Y-83070000D01*
X110748190Y-83189047D01*
X110248190Y-82450952D02*
X110248190Y-82689047D01*
X110486286Y-82712857D01*
X110462476Y-82689047D01*
X110438667Y-82641428D01*
X110438667Y-82522381D01*
X110462476Y-82474762D01*
X110486286Y-82450952D01*
X110533905Y-82427143D01*
X110652952Y-82427143D01*
X110700571Y-82450952D01*
X110724381Y-82474762D01*
X110748190Y-82522381D01*
X110748190Y-82641428D01*
X110724381Y-82689047D01*
X110700571Y-82712857D01*
X110748190Y-85729047D02*
X110248190Y-85729047D01*
X110248190Y-85610000D01*
X110272000Y-85538571D01*
X110319619Y-85490952D01*
X110367238Y-85467143D01*
X110462476Y-85443333D01*
X110533905Y-85443333D01*
X110629143Y-85467143D01*
X110676762Y-85490952D01*
X110724381Y-85538571D01*
X110748190Y-85610000D01*
X110748190Y-85729047D01*
X110248190Y-85133809D02*
X110248190Y-85086190D01*
X110272000Y-85038571D01*
X110295810Y-85014762D01*
X110343429Y-84990952D01*
X110438667Y-84967143D01*
X110557714Y-84967143D01*
X110652952Y-84990952D01*
X110700571Y-85014762D01*
X110724381Y-85038571D01*
X110748190Y-85086190D01*
X110748190Y-85133809D01*
X110724381Y-85181428D01*
X110700571Y-85205238D01*
X110652952Y-85229047D01*
X110557714Y-85252857D01*
X110438667Y-85252857D01*
X110343429Y-85229047D01*
X110295810Y-85205238D01*
X110272000Y-85181428D01*
X110248190Y-85133809D01*
X110605333Y-88257142D02*
X110605333Y-88019047D01*
X110748190Y-88304761D02*
X110248190Y-88138094D01*
X110748190Y-87971428D01*
X110248190Y-87709523D02*
X110248190Y-87661904D01*
X110272000Y-87614285D01*
X110295810Y-87590476D01*
X110343429Y-87566666D01*
X110438667Y-87542857D01*
X110557714Y-87542857D01*
X110652952Y-87566666D01*
X110700571Y-87590476D01*
X110724381Y-87614285D01*
X110748190Y-87661904D01*
X110748190Y-87709523D01*
X110724381Y-87757142D01*
X110700571Y-87780952D01*
X110652952Y-87804761D01*
X110557714Y-87828571D01*
X110438667Y-87828571D01*
X110343429Y-87804761D01*
X110295810Y-87780952D01*
X110272000Y-87757142D01*
X110248190Y-87709523D01*
X110748190Y-90713809D02*
X110510095Y-90880476D01*
X110748190Y-90999523D02*
X110248190Y-90999523D01*
X110248190Y-90809047D01*
X110272000Y-90761428D01*
X110295810Y-90737619D01*
X110343429Y-90713809D01*
X110414857Y-90713809D01*
X110462476Y-90737619D01*
X110486286Y-90761428D01*
X110510095Y-90809047D01*
X110510095Y-90999523D01*
X110724381Y-90523333D02*
X110748190Y-90451904D01*
X110748190Y-90332857D01*
X110724381Y-90285238D01*
X110700571Y-90261428D01*
X110652952Y-90237619D01*
X110605333Y-90237619D01*
X110557714Y-90261428D01*
X110533905Y-90285238D01*
X110510095Y-90332857D01*
X110486286Y-90428095D01*
X110462476Y-90475714D01*
X110438667Y-90499523D01*
X110391048Y-90523333D01*
X110343429Y-90523333D01*
X110295810Y-90499523D01*
X110272000Y-90475714D01*
X110248190Y-90428095D01*
X110248190Y-90309047D01*
X110272000Y-90237619D01*
X110248190Y-90094762D02*
X110248190Y-89809048D01*
X110748190Y-89951905D02*
X110248190Y-89951905D01*
D12*
X102862381Y-76596905D02*
X103671905Y-76596905D01*
X103767143Y-76549286D01*
X103814762Y-76501667D01*
X103862381Y-76406429D01*
X103862381Y-76215952D01*
X103814762Y-76120714D01*
X103767143Y-76073095D01*
X103671905Y-76025476D01*
X102862381Y-76025476D01*
X102957619Y-75596905D02*
X102910000Y-75549286D01*
X102862381Y-75454048D01*
X102862381Y-75215952D01*
X102910000Y-75120714D01*
X102957619Y-75073095D01*
X103052857Y-75025476D01*
X103148095Y-75025476D01*
X103290952Y-75073095D01*
X103862381Y-75644524D01*
X103862381Y-75025476D01*
X114101905Y-73262381D02*
X114101905Y-72262381D01*
X114482858Y-72262381D01*
X114578096Y-72310000D01*
X114625715Y-72357619D01*
X114673334Y-72452857D01*
X114673334Y-72595714D01*
X114625715Y-72690952D01*
X114578096Y-72738571D01*
X114482858Y-72786190D01*
X114101905Y-72786190D01*
X115054286Y-72357619D02*
X115101905Y-72310000D01*
X115197143Y-72262381D01*
X115435239Y-72262381D01*
X115530477Y-72310000D01*
X115578096Y-72357619D01*
X115625715Y-72452857D01*
X115625715Y-72548095D01*
X115578096Y-72690952D01*
X115006667Y-73262381D01*
X115625715Y-73262381D01*
X104173143Y-73080666D02*
X104220762Y-73128285D01*
X104268381Y-73271142D01*
X104268381Y-73366380D01*
X104220762Y-73509238D01*
X104125524Y-73604476D01*
X104030286Y-73652095D01*
X103839810Y-73699714D01*
X103696952Y-73699714D01*
X103506476Y-73652095D01*
X103411238Y-73604476D01*
X103316000Y-73509238D01*
X103268381Y-73366380D01*
X103268381Y-73271142D01*
X103316000Y-73128285D01*
X103363619Y-73080666D01*
X103268381Y-72747333D02*
X103268381Y-72128285D01*
X103649333Y-72461619D01*
X103649333Y-72318761D01*
X103696952Y-72223523D01*
X103744571Y-72175904D01*
X103839810Y-72128285D01*
X104077905Y-72128285D01*
X104173143Y-72175904D01*
X104220762Y-72223523D01*
X104268381Y-72318761D01*
X104268381Y-72604476D01*
X104220762Y-72699714D01*
X104173143Y-72747333D01*
X110863334Y-81113381D02*
X110530000Y-80637190D01*
X110291905Y-81113381D02*
X110291905Y-80113381D01*
X110672858Y-80113381D01*
X110768096Y-80161000D01*
X110815715Y-80208619D01*
X110863334Y-80303857D01*
X110863334Y-80446714D01*
X110815715Y-80541952D01*
X110768096Y-80589571D01*
X110672858Y-80637190D01*
X110291905Y-80637190D01*
X111815715Y-81113381D02*
X111244286Y-81113381D01*
X111530000Y-81113381D02*
X111530000Y-80113381D01*
X111434762Y-80256238D01*
X111339524Y-80351476D01*
X111244286Y-80399095D01*
X104894334Y-83018381D02*
X104561000Y-82542190D01*
X104322905Y-83018381D02*
X104322905Y-82018381D01*
X104703858Y-82018381D01*
X104799096Y-82066000D01*
X104846715Y-82113619D01*
X104894334Y-82208857D01*
X104894334Y-82351714D01*
X104846715Y-82446952D01*
X104799096Y-82494571D01*
X104703858Y-82542190D01*
X104322905Y-82542190D01*
X105275286Y-82113619D02*
X105322905Y-82066000D01*
X105418143Y-82018381D01*
X105656239Y-82018381D01*
X105751477Y-82066000D01*
X105799096Y-82113619D01*
X105846715Y-82208857D01*
X105846715Y-82304095D01*
X105799096Y-82446952D01*
X105227667Y-83018381D01*
X105846715Y-83018381D01*
X95988381Y-98798095D02*
X94988381Y-98798095D01*
X94988381Y-98417142D01*
X95036000Y-98321904D01*
X95083619Y-98274285D01*
X95178857Y-98226666D01*
X95321714Y-98226666D01*
X95416952Y-98274285D01*
X95464571Y-98321904D01*
X95512190Y-98417142D01*
X95512190Y-98798095D01*
X95988381Y-97274285D02*
X95988381Y-97845714D01*
X95988381Y-97560000D02*
X94988381Y-97560000D01*
X95131238Y-97655238D01*
X95226476Y-97750476D01*
X95274095Y-97845714D01*
X100703334Y-76979143D02*
X100655715Y-77026762D01*
X100512858Y-77074381D01*
X100417620Y-77074381D01*
X100274762Y-77026762D01*
X100179524Y-76931524D01*
X100131905Y-76836286D01*
X100084286Y-76645810D01*
X100084286Y-76502952D01*
X100131905Y-76312476D01*
X100179524Y-76217238D01*
X100274762Y-76122000D01*
X100417620Y-76074381D01*
X100512858Y-76074381D01*
X100655715Y-76122000D01*
X100703334Y-76169619D01*
X101084286Y-76169619D02*
X101131905Y-76122000D01*
X101227143Y-76074381D01*
X101465239Y-76074381D01*
X101560477Y-76122000D01*
X101608096Y-76169619D01*
X101655715Y-76264857D01*
X101655715Y-76360095D01*
X101608096Y-76502952D01*
X101036667Y-77074381D01*
X101655715Y-77074381D01*
X98152381Y-85526666D02*
X97676190Y-85860000D01*
X98152381Y-86098095D02*
X97152381Y-86098095D01*
X97152381Y-85717142D01*
X97200000Y-85621904D01*
X97247619Y-85574285D01*
X97342857Y-85526666D01*
X97485714Y-85526666D01*
X97580952Y-85574285D01*
X97628571Y-85621904D01*
X97676190Y-85717142D01*
X97676190Y-86098095D01*
X97152381Y-85193333D02*
X97152381Y-84574285D01*
X97533333Y-84907619D01*
X97533333Y-84764761D01*
X97580952Y-84669523D01*
X97628571Y-84621904D01*
X97723810Y-84574285D01*
X97961905Y-84574285D01*
X98057143Y-84621904D01*
X98104762Y-84669523D01*
X98152381Y-84764761D01*
X98152381Y-85050476D01*
X98104762Y-85145714D01*
X98057143Y-85193333D01*
X100692381Y-85526666D02*
X100216190Y-85860000D01*
X100692381Y-86098095D02*
X99692381Y-86098095D01*
X99692381Y-85717142D01*
X99740000Y-85621904D01*
X99787619Y-85574285D01*
X99882857Y-85526666D01*
X100025714Y-85526666D01*
X100120952Y-85574285D01*
X100168571Y-85621904D01*
X100216190Y-85717142D01*
X100216190Y-86098095D01*
X100025714Y-84669523D02*
X100692381Y-84669523D01*
X99644762Y-84907619D02*
X100359048Y-85145714D01*
X100359048Y-84526666D01*
X103878334Y-76827143D02*
X103830715Y-76874762D01*
X103687858Y-76922381D01*
X103592620Y-76922381D01*
X103449762Y-76874762D01*
X103354524Y-76779524D01*
X103306905Y-76684286D01*
X103259286Y-76493810D01*
X103259286Y-76350952D01*
X103306905Y-76160476D01*
X103354524Y-76065238D01*
X103449762Y-75970000D01*
X103592620Y-75922381D01*
X103687858Y-75922381D01*
X103830715Y-75970000D01*
X103878334Y-76017619D01*
X104830715Y-76922381D02*
X104259286Y-76922381D01*
X104545000Y-76922381D02*
X104545000Y-75922381D01*
X104449762Y-76065238D01*
X104354524Y-76160476D01*
X104259286Y-76208095D01*
X97782381Y-146446905D02*
X98591905Y-146446905D01*
X98687143Y-146399286D01*
X98734762Y-146351667D01*
X98782381Y-146256429D01*
X98782381Y-146065952D01*
X98734762Y-145970714D01*
X98687143Y-145923095D01*
X98591905Y-145875476D01*
X97782381Y-145875476D01*
X97877619Y-145446905D02*
X97830000Y-145399286D01*
X97782381Y-145304048D01*
X97782381Y-145065952D01*
X97830000Y-144970714D01*
X97877619Y-144923095D01*
X97972857Y-144875476D01*
X98068095Y-144875476D01*
X98210952Y-144923095D01*
X98782381Y-145494524D01*
X98782381Y-144875476D01*
X108704381Y-142001905D02*
X109513905Y-142001905D01*
X109609143Y-141954286D01*
X109656762Y-141906667D01*
X109704381Y-141811429D01*
X109704381Y-141620952D01*
X109656762Y-141525714D01*
X109609143Y-141478095D01*
X109513905Y-141430476D01*
X108704381Y-141430476D01*
X109704381Y-140430476D02*
X109704381Y-141001905D01*
X109704381Y-140716191D02*
X108704381Y-140716191D01*
X108847238Y-140811429D01*
X108942476Y-140906667D01*
X108990095Y-141001905D01*
D10*
X110248190Y-148955237D02*
X110248190Y-149193332D01*
X110486286Y-149217142D01*
X110462476Y-149193332D01*
X110438667Y-149145713D01*
X110438667Y-149026666D01*
X110462476Y-148979047D01*
X110486286Y-148955237D01*
X110533905Y-148931428D01*
X110652952Y-148931428D01*
X110700571Y-148955237D01*
X110724381Y-148979047D01*
X110748190Y-149026666D01*
X110748190Y-149145713D01*
X110724381Y-149193332D01*
X110700571Y-149217142D01*
X110248190Y-148788571D02*
X110748190Y-148621904D01*
X110248190Y-148455238D01*
X110272000Y-146700953D02*
X110248190Y-146748572D01*
X110248190Y-146820000D01*
X110272000Y-146891429D01*
X110319619Y-146939048D01*
X110367238Y-146962857D01*
X110462476Y-146986667D01*
X110533905Y-146986667D01*
X110629143Y-146962857D01*
X110676762Y-146939048D01*
X110724381Y-146891429D01*
X110748190Y-146820000D01*
X110748190Y-146772381D01*
X110724381Y-146700953D01*
X110700571Y-146677143D01*
X110533905Y-146677143D01*
X110533905Y-146772381D01*
X110748190Y-146462857D02*
X110248190Y-146462857D01*
X110748190Y-146177143D01*
X110248190Y-146177143D01*
X110748190Y-145939047D02*
X110248190Y-145939047D01*
X110248190Y-145820000D01*
X110272000Y-145748571D01*
X110319619Y-145700952D01*
X110367238Y-145677143D01*
X110462476Y-145653333D01*
X110533905Y-145653333D01*
X110629143Y-145677143D01*
X110676762Y-145700952D01*
X110724381Y-145748571D01*
X110748190Y-145820000D01*
X110748190Y-145939047D01*
X110748190Y-144149047D02*
X110248190Y-144149047D01*
X110248190Y-144030000D01*
X110272000Y-143958571D01*
X110319619Y-143910952D01*
X110367238Y-143887143D01*
X110462476Y-143863333D01*
X110533905Y-143863333D01*
X110629143Y-143887143D01*
X110676762Y-143910952D01*
X110724381Y-143958571D01*
X110748190Y-144030000D01*
X110748190Y-144149047D01*
X110414857Y-143434762D02*
X110748190Y-143434762D01*
X110224381Y-143553809D02*
X110581524Y-143672857D01*
X110581524Y-143363333D01*
X110748190Y-141609047D02*
X110248190Y-141609047D01*
X110248190Y-141490000D01*
X110272000Y-141418571D01*
X110319619Y-141370952D01*
X110367238Y-141347143D01*
X110462476Y-141323333D01*
X110533905Y-141323333D01*
X110629143Y-141347143D01*
X110676762Y-141370952D01*
X110724381Y-141418571D01*
X110748190Y-141490000D01*
X110748190Y-141609047D01*
X110248190Y-141156666D02*
X110248190Y-140847143D01*
X110438667Y-141013809D01*
X110438667Y-140942381D01*
X110462476Y-140894762D01*
X110486286Y-140870952D01*
X110533905Y-140847143D01*
X110652952Y-140847143D01*
X110700571Y-140870952D01*
X110724381Y-140894762D01*
X110748190Y-140942381D01*
X110748190Y-141085238D01*
X110724381Y-141132857D01*
X110700571Y-141156666D01*
X110748190Y-139069047D02*
X110248190Y-139069047D01*
X110248190Y-138950000D01*
X110272000Y-138878571D01*
X110319619Y-138830952D01*
X110367238Y-138807143D01*
X110462476Y-138783333D01*
X110533905Y-138783333D01*
X110629143Y-138807143D01*
X110676762Y-138830952D01*
X110724381Y-138878571D01*
X110748190Y-138950000D01*
X110748190Y-139069047D01*
X110295810Y-138592857D02*
X110272000Y-138569047D01*
X110248190Y-138521428D01*
X110248190Y-138402381D01*
X110272000Y-138354762D01*
X110295810Y-138330952D01*
X110343429Y-138307143D01*
X110391048Y-138307143D01*
X110462476Y-138330952D01*
X110748190Y-138616666D01*
X110748190Y-138307143D01*
X110748190Y-136529047D02*
X110248190Y-136529047D01*
X110248190Y-136410000D01*
X110272000Y-136338571D01*
X110319619Y-136290952D01*
X110367238Y-136267143D01*
X110462476Y-136243333D01*
X110533905Y-136243333D01*
X110629143Y-136267143D01*
X110676762Y-136290952D01*
X110724381Y-136338571D01*
X110748190Y-136410000D01*
X110748190Y-136529047D01*
X110748190Y-135767143D02*
X110748190Y-136052857D01*
X110748190Y-135910000D02*
X110248190Y-135910000D01*
X110319619Y-135957619D01*
X110367238Y-136005238D01*
X110391048Y-136052857D01*
X110748190Y-133703333D02*
X110510095Y-133870000D01*
X110748190Y-133989047D02*
X110248190Y-133989047D01*
X110248190Y-133798571D01*
X110272000Y-133750952D01*
X110295810Y-133727143D01*
X110343429Y-133703333D01*
X110414857Y-133703333D01*
X110462476Y-133727143D01*
X110486286Y-133750952D01*
X110510095Y-133798571D01*
X110510095Y-133989047D01*
X110248190Y-133536666D02*
X110748190Y-133203333D01*
X110248190Y-133203333D02*
X110748190Y-133536666D01*
X110248190Y-131460952D02*
X110248190Y-131175238D01*
X110748190Y-131318095D02*
X110248190Y-131318095D01*
X110248190Y-131056190D02*
X110748190Y-130722857D01*
X110248190Y-130722857D02*
X110748190Y-131056190D01*
X90944190Y-149479046D02*
X90944190Y-149169523D01*
X91134667Y-149336189D01*
X91134667Y-149264761D01*
X91158476Y-149217142D01*
X91182286Y-149193332D01*
X91229905Y-149169523D01*
X91348952Y-149169523D01*
X91396571Y-149193332D01*
X91420381Y-149217142D01*
X91444190Y-149264761D01*
X91444190Y-149407618D01*
X91420381Y-149455237D01*
X91396571Y-149479046D01*
X90944190Y-149026666D02*
X91444190Y-148859999D01*
X90944190Y-148693333D01*
X90944190Y-148574285D02*
X90944190Y-148264762D01*
X91134667Y-148431428D01*
X91134667Y-148360000D01*
X91158476Y-148312381D01*
X91182286Y-148288571D01*
X91229905Y-148264762D01*
X91348952Y-148264762D01*
X91396571Y-148288571D01*
X91420381Y-148312381D01*
X91444190Y-148360000D01*
X91444190Y-148502857D01*
X91420381Y-148550476D01*
X91396571Y-148574285D01*
X91444190Y-146450952D02*
X90944190Y-146450952D01*
X91420381Y-146450952D02*
X91444190Y-146498571D01*
X91444190Y-146593809D01*
X91420381Y-146641428D01*
X91396571Y-146665237D01*
X91348952Y-146689047D01*
X91206095Y-146689047D01*
X91158476Y-146665237D01*
X91134667Y-146641428D01*
X91110857Y-146593809D01*
X91110857Y-146498571D01*
X91134667Y-146450952D01*
X91158476Y-146141428D02*
X91134667Y-146189047D01*
X91110857Y-146212856D01*
X91063238Y-146236666D01*
X91039429Y-146236666D01*
X90991810Y-146212856D01*
X90968000Y-146189047D01*
X90944190Y-146141428D01*
X90944190Y-146046190D01*
X90968000Y-145998571D01*
X90991810Y-145974761D01*
X91039429Y-145950952D01*
X91063238Y-145950952D01*
X91110857Y-145974761D01*
X91134667Y-145998571D01*
X91158476Y-146046190D01*
X91158476Y-146141428D01*
X91182286Y-146189047D01*
X91206095Y-146212856D01*
X91253714Y-146236666D01*
X91348952Y-146236666D01*
X91396571Y-146212856D01*
X91420381Y-146189047D01*
X91444190Y-146141428D01*
X91444190Y-146046190D01*
X91420381Y-145998571D01*
X91396571Y-145974761D01*
X91348952Y-145950952D01*
X91253714Y-145950952D01*
X91206095Y-145974761D01*
X91182286Y-145998571D01*
X91158476Y-146046190D01*
X91444190Y-144149047D02*
X90944190Y-144149047D01*
X90944190Y-144030000D01*
X90968000Y-143958571D01*
X91015619Y-143910952D01*
X91063238Y-143887143D01*
X91158476Y-143863333D01*
X91229905Y-143863333D01*
X91325143Y-143887143D01*
X91372762Y-143910952D01*
X91420381Y-143958571D01*
X91444190Y-144030000D01*
X91444190Y-144149047D01*
X90944190Y-143696666D02*
X90944190Y-143363333D01*
X91444190Y-143577619D01*
X91444190Y-141609047D02*
X90944190Y-141609047D01*
X90944190Y-141490000D01*
X90968000Y-141418571D01*
X91015619Y-141370952D01*
X91063238Y-141347143D01*
X91158476Y-141323333D01*
X91229905Y-141323333D01*
X91325143Y-141347143D01*
X91372762Y-141370952D01*
X91420381Y-141418571D01*
X91444190Y-141490000D01*
X91444190Y-141609047D01*
X90944190Y-140894762D02*
X90944190Y-140990000D01*
X90968000Y-141037619D01*
X90991810Y-141061428D01*
X91063238Y-141109047D01*
X91158476Y-141132857D01*
X91348952Y-141132857D01*
X91396571Y-141109047D01*
X91420381Y-141085238D01*
X91444190Y-141037619D01*
X91444190Y-140942381D01*
X91420381Y-140894762D01*
X91396571Y-140870952D01*
X91348952Y-140847143D01*
X91229905Y-140847143D01*
X91182286Y-140870952D01*
X91158476Y-140894762D01*
X91134667Y-140942381D01*
X91134667Y-141037619D01*
X91158476Y-141085238D01*
X91182286Y-141109047D01*
X91229905Y-141132857D01*
X91444190Y-139069047D02*
X90944190Y-139069047D01*
X90944190Y-138950000D01*
X90968000Y-138878571D01*
X91015619Y-138830952D01*
X91063238Y-138807143D01*
X91158476Y-138783333D01*
X91229905Y-138783333D01*
X91325143Y-138807143D01*
X91372762Y-138830952D01*
X91420381Y-138878571D01*
X91444190Y-138950000D01*
X91444190Y-139069047D01*
X90944190Y-138330952D02*
X90944190Y-138569047D01*
X91182286Y-138592857D01*
X91158476Y-138569047D01*
X91134667Y-138521428D01*
X91134667Y-138402381D01*
X91158476Y-138354762D01*
X91182286Y-138330952D01*
X91229905Y-138307143D01*
X91348952Y-138307143D01*
X91396571Y-138330952D01*
X91420381Y-138354762D01*
X91444190Y-138402381D01*
X91444190Y-138521428D01*
X91420381Y-138569047D01*
X91396571Y-138592857D01*
X91444190Y-136529047D02*
X90944190Y-136529047D01*
X90944190Y-136410000D01*
X90968000Y-136338571D01*
X91015619Y-136290952D01*
X91063238Y-136267143D01*
X91158476Y-136243333D01*
X91229905Y-136243333D01*
X91325143Y-136267143D01*
X91372762Y-136290952D01*
X91420381Y-136338571D01*
X91444190Y-136410000D01*
X91444190Y-136529047D01*
X90944190Y-135933809D02*
X90944190Y-135886190D01*
X90968000Y-135838571D01*
X90991810Y-135814762D01*
X91039429Y-135790952D01*
X91134667Y-135767143D01*
X91253714Y-135767143D01*
X91348952Y-135790952D01*
X91396571Y-135814762D01*
X91420381Y-135838571D01*
X91444190Y-135886190D01*
X91444190Y-135933809D01*
X91420381Y-135981428D01*
X91396571Y-136005238D01*
X91348952Y-136029047D01*
X91253714Y-136052857D01*
X91134667Y-136052857D01*
X91039429Y-136029047D01*
X90991810Y-136005238D01*
X90968000Y-135981428D01*
X90944190Y-135933809D01*
X91301333Y-133977142D02*
X91301333Y-133739047D01*
X91444190Y-134024761D02*
X90944190Y-133858094D01*
X91444190Y-133691428D01*
X90944190Y-133429523D02*
X90944190Y-133381904D01*
X90968000Y-133334285D01*
X90991810Y-133310476D01*
X91039429Y-133286666D01*
X91134667Y-133262857D01*
X91253714Y-133262857D01*
X91348952Y-133286666D01*
X91396571Y-133310476D01*
X91420381Y-133334285D01*
X91444190Y-133381904D01*
X91444190Y-133429523D01*
X91420381Y-133477142D01*
X91396571Y-133500952D01*
X91348952Y-133524761D01*
X91253714Y-133548571D01*
X91134667Y-133548571D01*
X91039429Y-133524761D01*
X90991810Y-133500952D01*
X90968000Y-133477142D01*
X90944190Y-133429523D01*
X91444190Y-131353809D02*
X91206095Y-131520476D01*
X91444190Y-131639523D02*
X90944190Y-131639523D01*
X90944190Y-131449047D01*
X90968000Y-131401428D01*
X90991810Y-131377619D01*
X91039429Y-131353809D01*
X91110857Y-131353809D01*
X91158476Y-131377619D01*
X91182286Y-131401428D01*
X91206095Y-131449047D01*
X91206095Y-131639523D01*
X91420381Y-131163333D02*
X91444190Y-131091904D01*
X91444190Y-130972857D01*
X91420381Y-130925238D01*
X91396571Y-130901428D01*
X91348952Y-130877619D01*
X91301333Y-130877619D01*
X91253714Y-130901428D01*
X91229905Y-130925238D01*
X91206095Y-130972857D01*
X91182286Y-131068095D01*
X91158476Y-131115714D01*
X91134667Y-131139523D01*
X91087048Y-131163333D01*
X91039429Y-131163333D01*
X90991810Y-131139523D01*
X90968000Y-131115714D01*
X90944190Y-131068095D01*
X90944190Y-130949047D01*
X90968000Y-130877619D01*
X90944190Y-130734762D02*
X90944190Y-130449048D01*
X91444190Y-130591905D02*
X90944190Y-130591905D01*
D12*
X97528334Y-145407143D02*
X97480715Y-145454762D01*
X97337858Y-145502381D01*
X97242620Y-145502381D01*
X97099762Y-145454762D01*
X97004524Y-145359524D01*
X96956905Y-145264286D01*
X96909286Y-145073810D01*
X96909286Y-144930952D01*
X96956905Y-144740476D01*
X97004524Y-144645238D01*
X97099762Y-144550000D01*
X97242620Y-144502381D01*
X97337858Y-144502381D01*
X97480715Y-144550000D01*
X97528334Y-144597619D01*
X98480715Y-145502381D02*
X97909286Y-145502381D01*
X98195000Y-145502381D02*
X98195000Y-144502381D01*
X98099762Y-144645238D01*
X98004524Y-144740476D01*
X97909286Y-144788095D01*
X106656381Y-124198095D02*
X105656381Y-124198095D01*
X105656381Y-123817142D01*
X105704000Y-123721904D01*
X105751619Y-123674285D01*
X105846857Y-123626666D01*
X105989714Y-123626666D01*
X106084952Y-123674285D01*
X106132571Y-123721904D01*
X106180190Y-123817142D01*
X106180190Y-124198095D01*
X106656381Y-122674285D02*
X106656381Y-123245714D01*
X106656381Y-122960000D02*
X105656381Y-122960000D01*
X105799238Y-123055238D01*
X105894476Y-123150476D01*
X105942095Y-123245714D01*
X90543334Y-141311381D02*
X90210000Y-140835190D01*
X89971905Y-141311381D02*
X89971905Y-140311381D01*
X90352858Y-140311381D01*
X90448096Y-140359000D01*
X90495715Y-140406619D01*
X90543334Y-140501857D01*
X90543334Y-140644714D01*
X90495715Y-140739952D01*
X90448096Y-140787571D01*
X90352858Y-140835190D01*
X89971905Y-140835190D01*
X91495715Y-141311381D02*
X90924286Y-141311381D01*
X91210000Y-141311381D02*
X91210000Y-140311381D01*
X91114762Y-140454238D01*
X91019524Y-140549476D01*
X90924286Y-140597095D01*
X96512334Y-139406381D02*
X96179000Y-138930190D01*
X95940905Y-139406381D02*
X95940905Y-138406381D01*
X96321858Y-138406381D01*
X96417096Y-138454000D01*
X96464715Y-138501619D01*
X96512334Y-138596857D01*
X96512334Y-138739714D01*
X96464715Y-138834952D01*
X96417096Y-138882571D01*
X96321858Y-138930190D01*
X95940905Y-138930190D01*
X96893286Y-138501619D02*
X96940905Y-138454000D01*
X97036143Y-138406381D01*
X97274239Y-138406381D01*
X97369477Y-138454000D01*
X97417096Y-138501619D01*
X97464715Y-138596857D01*
X97464715Y-138692095D01*
X97417096Y-138834952D01*
X96845667Y-139406381D01*
X97464715Y-139406381D01*
X104492381Y-136326666D02*
X104016190Y-136660000D01*
X104492381Y-136898095D02*
X103492381Y-136898095D01*
X103492381Y-136517142D01*
X103540000Y-136421904D01*
X103587619Y-136374285D01*
X103682857Y-136326666D01*
X103825714Y-136326666D01*
X103920952Y-136374285D01*
X103968571Y-136421904D01*
X104016190Y-136517142D01*
X104016190Y-136898095D01*
X103492381Y-135993333D02*
X103492381Y-135374285D01*
X103873333Y-135707619D01*
X103873333Y-135564761D01*
X103920952Y-135469523D01*
X103968571Y-135421904D01*
X104063810Y-135374285D01*
X104301905Y-135374285D01*
X104397143Y-135421904D01*
X104444762Y-135469523D01*
X104492381Y-135564761D01*
X104492381Y-135850476D01*
X104444762Y-135945714D01*
X104397143Y-135993333D01*
X101952381Y-136326666D02*
X101476190Y-136660000D01*
X101952381Y-136898095D02*
X100952381Y-136898095D01*
X100952381Y-136517142D01*
X101000000Y-136421904D01*
X101047619Y-136374285D01*
X101142857Y-136326666D01*
X101285714Y-136326666D01*
X101380952Y-136374285D01*
X101428571Y-136421904D01*
X101476190Y-136517142D01*
X101476190Y-136898095D01*
X101285714Y-135469523D02*
X101952381Y-135469523D01*
X100904762Y-135707619D02*
X101619048Y-135945714D01*
X101619048Y-135326666D01*
X100703334Y-145255143D02*
X100655715Y-145302762D01*
X100512858Y-145350381D01*
X100417620Y-145350381D01*
X100274762Y-145302762D01*
X100179524Y-145207524D01*
X100131905Y-145112286D01*
X100084286Y-144921810D01*
X100084286Y-144778952D01*
X100131905Y-144588476D01*
X100179524Y-144493238D01*
X100274762Y-144398000D01*
X100417620Y-144350381D01*
X100512858Y-144350381D01*
X100655715Y-144398000D01*
X100703334Y-144445619D01*
X101084286Y-144445619D02*
X101131905Y-144398000D01*
X101227143Y-144350381D01*
X101465239Y-144350381D01*
X101560477Y-144398000D01*
X101608096Y-144445619D01*
X101655715Y-144540857D01*
X101655715Y-144636095D01*
X101608096Y-144778952D01*
X101036667Y-145350381D01*
X101655715Y-145350381D01*
X98281143Y-148772666D02*
X98328762Y-148820285D01*
X98376381Y-148963142D01*
X98376381Y-149058380D01*
X98328762Y-149201238D01*
X98233524Y-149296476D01*
X98138286Y-149344095D01*
X97947810Y-149391714D01*
X97804952Y-149391714D01*
X97614476Y-149344095D01*
X97519238Y-149296476D01*
X97424000Y-149201238D01*
X97376381Y-149058380D01*
X97376381Y-148963142D01*
X97424000Y-148820285D01*
X97471619Y-148772666D01*
X97376381Y-148439333D02*
X97376381Y-147820285D01*
X97757333Y-148153619D01*
X97757333Y-148010761D01*
X97804952Y-147915523D01*
X97852571Y-147867904D01*
X97947810Y-147820285D01*
X98185905Y-147820285D01*
X98281143Y-147867904D01*
X98328762Y-147915523D01*
X98376381Y-148010761D01*
X98376381Y-148296476D01*
X98328762Y-148391714D01*
X98281143Y-148439333D01*
X86161905Y-149162381D02*
X86161905Y-148162381D01*
X86542858Y-148162381D01*
X86638096Y-148210000D01*
X86685715Y-148257619D01*
X86733334Y-148352857D01*
X86733334Y-148495714D01*
X86685715Y-148590952D01*
X86638096Y-148638571D01*
X86542858Y-148686190D01*
X86161905Y-148686190D01*
X87114286Y-148257619D02*
X87161905Y-148210000D01*
X87257143Y-148162381D01*
X87495239Y-148162381D01*
X87590477Y-148210000D01*
X87638096Y-148257619D01*
X87685715Y-148352857D01*
X87685715Y-148448095D01*
X87638096Y-148590952D01*
X87066667Y-149162381D01*
X87685715Y-149162381D01*
X114101905Y-129142381D02*
X114101905Y-128142381D01*
X114482858Y-128142381D01*
X114578096Y-128190000D01*
X114625715Y-128237619D01*
X114673334Y-128332857D01*
X114673334Y-128475714D01*
X114625715Y-128570952D01*
X114578096Y-128618571D01*
X114482858Y-128666190D01*
X114101905Y-128666190D01*
X115006667Y-128142381D02*
X115625715Y-128142381D01*
X115292381Y-128523333D01*
X115435239Y-128523333D01*
X115530477Y-128570952D01*
X115578096Y-128618571D01*
X115625715Y-128713810D01*
X115625715Y-128951905D01*
X115578096Y-129047143D01*
X115530477Y-129094762D01*
X115435239Y-129142381D01*
X115149524Y-129142381D01*
X115054286Y-129094762D01*
X115006667Y-129047143D01*
X114101905Y-149462381D02*
X114101905Y-148462381D01*
X114482858Y-148462381D01*
X114578096Y-148510000D01*
X114625715Y-148557619D01*
X114673334Y-148652857D01*
X114673334Y-148795714D01*
X114625715Y-148890952D01*
X114578096Y-148938571D01*
X114482858Y-148986190D01*
X114101905Y-148986190D01*
X115578096Y-148462381D02*
X115101905Y-148462381D01*
X115054286Y-148938571D01*
X115101905Y-148890952D01*
X115197143Y-148843333D01*
X115435239Y-148843333D01*
X115530477Y-148890952D01*
X115578096Y-148938571D01*
X115625715Y-149033810D01*
X115625715Y-149271905D01*
X115578096Y-149367143D01*
X115530477Y-149414762D01*
X115435239Y-149462381D01*
X115197143Y-149462381D01*
X115101905Y-149414762D01*
X115054286Y-149367143D01*
X86161905Y-149462381D02*
X86161905Y-148462381D01*
X86542858Y-148462381D01*
X86638096Y-148510000D01*
X86685715Y-148557619D01*
X86733334Y-148652857D01*
X86733334Y-148795714D01*
X86685715Y-148890952D01*
X86638096Y-148938571D01*
X86542858Y-148986190D01*
X86161905Y-148986190D01*
X87590477Y-148795714D02*
X87590477Y-149462381D01*
X87352381Y-148414762D02*
X87114286Y-149129048D01*
X87733334Y-149129048D01*
X104822381Y-151526905D02*
X105631905Y-151526905D01*
X105727143Y-151479286D01*
X105774762Y-151431667D01*
X105822381Y-151336429D01*
X105822381Y-151145952D01*
X105774762Y-151050714D01*
X105727143Y-151003095D01*
X105631905Y-150955476D01*
X104822381Y-150955476D01*
X104822381Y-150574524D02*
X104822381Y-149955476D01*
X105203333Y-150288810D01*
X105203333Y-150145952D01*
X105250952Y-150050714D01*
X105298571Y-150003095D01*
X105393810Y-149955476D01*
X105631905Y-149955476D01*
X105727143Y-150003095D01*
X105774762Y-150050714D01*
X105822381Y-150145952D01*
X105822381Y-150431667D01*
X105774762Y-150526905D01*
X105727143Y-150574524D01*
M02*
