M48
;DRILL file {KiCad 4.0.4+e1-6308~48~ubuntu16.04.1-stable} date Sun Jan 29 14:42:10 2017
;FORMAT={-:-/ absolute / inch / decimal}
FMAT,2
INCH,TZ
T1C0.016
T2C0.039
T3C0.040
%
G90
G05
M72
T1
X3.6713Y-2.8106
X3.7213Y-2.8106
X3.7713Y-2.8106
X3.7713Y-5.6206
X3.8013Y-3.1006
X3.8613Y-3.4606
X3.8613Y-5.2606
X4.0813Y-3.4606
X4.0813Y-5.2606
X4.1413Y-5.6206
X4.1713Y-3.1006
X4.1713Y-5.9106
X4.2213Y-5.9106
X4.2713Y-5.9106
T2
X2.1213Y-2.5606
X2.1213Y-2.6606
X2.1213Y-2.7606
X2.1213Y-2.8606
X2.1213Y-2.9606
X2.1213Y-3.0606
X2.1213Y-3.1606
X2.1213Y-3.2606
X2.1213Y-3.3606
X2.1213Y-3.4606
X2.1213Y-3.5606
X2.1213Y-3.6606
X2.1213Y-3.7606
X2.1213Y-3.8606
X2.1213Y-3.9606
X2.1213Y-4.0606
X2.1213Y-4.1606
X2.1213Y-4.2606
X2.1213Y-4.4606
X2.1213Y-4.5606
X2.1213Y-4.6606
X2.1213Y-4.7606
X2.1213Y-4.8606
X2.1213Y-4.9606
X2.1213Y-5.0606
X2.1213Y-5.1606
X2.1213Y-5.2606
X2.1213Y-5.3606
X2.1213Y-5.4606
X2.1213Y-5.5606
X2.1213Y-5.6606
X2.1213Y-5.7606
X2.1213Y-5.8606
X2.1213Y-5.9606
X2.1213Y-6.0606
X2.1213Y-6.1606
X2.2213Y-2.5606
X2.2213Y-2.6606
X2.2213Y-2.7606
X2.2213Y-2.8606
X2.2213Y-2.9606
X2.2213Y-3.0606
X2.2213Y-3.1606
X2.2213Y-3.2606
X2.2213Y-3.3606
X2.2213Y-3.4606
X2.2213Y-3.5606
X2.2213Y-3.6606
X2.2213Y-3.7606
X2.2213Y-3.8606
X2.2213Y-3.9606
X2.2213Y-4.0606
X2.2213Y-4.1606
X2.2213Y-4.2606
X2.2213Y-4.4606
X2.2213Y-4.5606
X2.2213Y-4.6606
X2.2213Y-4.7606
X2.2213Y-4.8606
X2.2213Y-4.9606
X2.2213Y-5.0606
X2.2213Y-5.1606
X2.2213Y-5.2606
X2.2213Y-5.3606
X2.2213Y-5.4606
X2.2213Y-5.5606
X2.2213Y-5.6606
X2.2213Y-5.7606
X2.2213Y-5.8606
X2.2213Y-5.9606
X2.2213Y-6.0606
X2.2213Y-6.1606
X2.3213Y-2.5606
X2.3213Y-2.6606
X2.3213Y-2.7606
X2.3213Y-2.8606
X2.3213Y-2.9606
X2.3213Y-3.0606
X2.3213Y-3.1606
X2.3213Y-3.2606
X2.3213Y-3.3606
X2.3213Y-3.4606
X2.3213Y-3.5606
X2.3213Y-3.6606
X2.3213Y-3.7606
X2.3213Y-3.8606
X2.3213Y-3.9606
X2.3213Y-4.0606
X2.3213Y-4.1606
X2.3213Y-4.2606
X2.3213Y-4.4606
X2.3213Y-4.5606
X2.3213Y-4.6606
X2.3213Y-4.7606
X2.3213Y-4.8606
X2.3213Y-4.9606
X2.3213Y-5.0606
X2.3213Y-5.1606
X2.3213Y-5.2606
X2.3213Y-5.3606
X2.3213Y-5.4606
X2.3213Y-5.5606
X2.3213Y-5.6606
X2.3213Y-5.7606
X2.3213Y-5.8606
X2.3213Y-5.9606
X2.3213Y-6.0606
X2.3213Y-6.1606
X2.4213Y-2.5606
X2.4213Y-2.6606
X2.4213Y-2.7606
X2.4213Y-2.8606
X2.4213Y-2.9606
X2.4213Y-3.0606
X2.4213Y-3.1606
X2.4213Y-3.2606
X2.4213Y-3.3606
X2.4213Y-3.4606
X2.4213Y-3.5606
X2.4213Y-3.6606
X2.4213Y-3.7606
X2.4213Y-3.8606
X2.4213Y-3.9606
X2.4213Y-4.0606
X2.4213Y-4.1606
X2.4213Y-4.2606
X2.4213Y-4.4606
X2.4213Y-4.5606
X2.4213Y-4.6606
X2.4213Y-4.7606
X2.4213Y-4.8606
X2.4213Y-4.9606
X2.4213Y-5.0606
X2.4213Y-5.1606
X2.4213Y-5.2606
X2.4213Y-5.3606
X2.4213Y-5.4606
X2.4213Y-5.5606
X2.4213Y-5.6606
X2.4213Y-5.7606
X2.4213Y-5.8606
X2.4213Y-5.9606
X2.4213Y-6.0606
X2.4213Y-6.1606
X2.5213Y-2.5606
X2.5213Y-2.6606
X2.5213Y-2.7606
X2.5213Y-2.8606
X2.5213Y-2.9606
X2.5213Y-3.0606
X2.5213Y-3.1606
X2.5213Y-3.2606
X2.5213Y-3.3606
X2.5213Y-3.4606
X2.5213Y-3.5606
X2.5213Y-3.6606
X2.5213Y-3.7606
X2.5213Y-3.8606
X2.5213Y-3.9606
X2.5213Y-4.0606
X2.5213Y-4.1606
X2.5213Y-4.2606
X2.5213Y-4.4606
X2.5213Y-4.5606
X2.5213Y-4.6606
X2.5213Y-4.7606
X2.5213Y-4.8606
X2.5213Y-4.9606
X2.5213Y-5.0606
X2.5213Y-5.1606
X2.5213Y-5.2606
X2.5213Y-5.3606
X2.5213Y-5.4606
X2.5213Y-5.5606
X2.5213Y-5.6606
X2.5213Y-5.7606
X2.5213Y-5.8606
X2.5213Y-5.9606
X2.5213Y-6.0606
X2.5213Y-6.1606
X2.6213Y-2.5606
X2.6213Y-2.6606
X2.6213Y-2.7606
X2.6213Y-2.8606
X2.6213Y-2.9606
X2.6213Y-3.0606
X2.6213Y-3.1606
X2.6213Y-3.2606
X2.6213Y-3.3606
X2.6213Y-3.4606
X2.6213Y-3.5606
X2.6213Y-3.6606
X2.6213Y-3.7606
X2.6213Y-3.8606
X2.6213Y-3.9606
X2.6213Y-4.0606
X2.6213Y-4.1606
X2.6213Y-4.2606
X2.6213Y-4.4606
X2.6213Y-4.5606
X2.6213Y-4.6606
X2.6213Y-4.7606
X2.6213Y-4.8606
X2.6213Y-4.9606
X2.6213Y-5.0606
X2.6213Y-5.1606
X2.6213Y-5.2606
X2.6213Y-5.3606
X2.6213Y-5.4606
X2.6213Y-5.5606
X2.6213Y-5.6606
X2.6213Y-5.7606
X2.6213Y-5.8606
X2.6213Y-5.9606
X2.6213Y-6.0606
X2.6213Y-6.1606
X2.7213Y-2.5606
X2.7213Y-2.6606
X2.7213Y-2.7606
X2.7213Y-2.8606
X2.7213Y-2.9606
X2.7213Y-3.0606
X2.7213Y-3.1606
X2.7213Y-3.2606
X2.7213Y-3.3606
X2.7213Y-3.4606
X2.7213Y-3.5606
X2.7213Y-3.6606
X2.7213Y-3.7606
X2.7213Y-3.8606
X2.7213Y-3.9606
X2.7213Y-4.0606
X2.7213Y-4.1606
X2.7213Y-4.2606
X2.7213Y-4.4606
X2.7213Y-4.5606
X2.7213Y-4.6606
X2.7213Y-4.7606
X2.7213Y-4.8606
X2.7213Y-4.9606
X2.7213Y-5.0606
X2.7213Y-5.1606
X2.7213Y-5.2606
X2.7213Y-5.3606
X2.7213Y-5.4606
X2.7213Y-5.5606
X2.7213Y-5.6606
X2.7213Y-5.7606
X2.7213Y-5.8606
X2.7213Y-5.9606
X2.7213Y-6.0606
X2.7213Y-6.1606
X2.8213Y-2.5606
X2.8213Y-2.6606
X2.8213Y-2.7606
X2.8213Y-2.8606
X2.8213Y-2.9606
X2.8213Y-3.0606
X2.8213Y-3.1606
X2.8213Y-3.2606
X2.8213Y-3.3606
X2.8213Y-3.4606
X2.8213Y-3.5606
X2.8213Y-3.6606
X2.8213Y-3.7606
X2.8213Y-3.8606
X2.8213Y-3.9606
X2.8213Y-4.0606
X2.8213Y-4.1606
X2.8213Y-4.2606
X2.8213Y-4.4606
X2.8213Y-4.5606
X2.8213Y-4.6606
X2.8213Y-4.7606
X2.8213Y-4.8606
X2.8213Y-4.9606
X2.8213Y-5.0606
X2.8213Y-5.1606
X2.8213Y-5.2606
X2.8213Y-5.3606
X2.8213Y-5.4606
X2.8213Y-5.5606
X2.8213Y-5.6606
X2.8213Y-5.7606
X2.8213Y-5.8606
X2.8213Y-5.9606
X2.8213Y-6.0606
X2.8213Y-6.1606
X2.9213Y-2.5606
X2.9213Y-2.6606
X2.9213Y-2.7606
X2.9213Y-2.8606
X2.9213Y-2.9606
X2.9213Y-3.0606
X2.9213Y-3.1606
X2.9213Y-3.2606
X2.9213Y-3.3606
X2.9213Y-3.4606
X2.9213Y-3.5606
X2.9213Y-3.6606
X2.9213Y-3.7606
X2.9213Y-3.8606
X2.9213Y-3.9606
X2.9213Y-4.0606
X2.9213Y-4.1606
X2.9213Y-4.2606
X2.9213Y-4.4606
X2.9213Y-4.5606
X2.9213Y-4.6606
X2.9213Y-4.7606
X2.9213Y-4.8606
X2.9213Y-4.9606
X2.9213Y-5.0606
X2.9213Y-5.1606
X2.9213Y-5.2606
X2.9213Y-5.3606
X2.9213Y-5.4606
X2.9213Y-5.5606
X2.9213Y-5.6606
X2.9213Y-5.7606
X2.9213Y-5.8606
X2.9213Y-5.9606
X2.9213Y-6.0606
X2.9213Y-6.1606
X3.0213Y-2.5606
X3.0213Y-2.6606
X3.0213Y-2.7606
X3.0213Y-2.8606
X3.0213Y-2.9606
X3.0213Y-3.0606
X3.0213Y-3.1606
X3.0213Y-3.2606
X3.0213Y-3.3606
X3.0213Y-3.4606
X3.0213Y-3.5606
X3.0213Y-3.6606
X3.0213Y-3.7606
X3.0213Y-3.8606
X3.0213Y-3.9606
X3.0213Y-4.0606
X3.0213Y-4.1606
X3.0213Y-4.2606
X3.0213Y-4.4606
X3.0213Y-4.5606
X3.0213Y-4.6606
X3.0213Y-4.7606
X3.0213Y-4.8606
X3.0213Y-4.9606
X3.0213Y-5.0606
X3.0213Y-5.1606
X3.0213Y-5.2606
X3.0213Y-5.3606
X3.0213Y-5.4606
X3.0213Y-5.5606
X3.0213Y-5.6606
X3.0213Y-5.7606
X3.0213Y-5.8606
X3.0213Y-5.9606
X3.0213Y-6.0606
X3.0213Y-6.1606
X3.1213Y-2.5606
X3.1213Y-2.6606
X3.1213Y-2.7606
X3.1213Y-2.8606
X3.1213Y-2.9606
X3.1213Y-3.0606
X3.1213Y-3.1606
X3.1213Y-3.2606
X3.1213Y-3.3606
X3.1213Y-3.4606
X3.1213Y-3.5606
X3.1213Y-3.6606
X3.1213Y-3.7606
X3.1213Y-3.8606
X3.1213Y-3.9606
X3.1213Y-4.0606
X3.1213Y-4.1606
X3.1213Y-4.2606
X3.1213Y-4.4606
X3.1213Y-4.5606
X3.1213Y-4.6606
X3.1213Y-4.7606
X3.1213Y-4.8606
X3.1213Y-4.9606
X3.1213Y-5.0606
X3.1213Y-5.1606
X3.1213Y-5.2606
X3.1213Y-5.3606
X3.1213Y-5.4606
X3.1213Y-5.5606
X3.1213Y-5.6606
X3.1213Y-5.7606
X3.1213Y-5.8606
X3.1213Y-5.9606
X3.1213Y-6.0606
X3.1213Y-6.1606
X3.2213Y-2.5606
X3.2213Y-2.6606
X3.2213Y-2.7606
X3.2213Y-2.8606
X3.2213Y-2.9606
X3.2213Y-3.0606
X3.2213Y-3.1606
X3.2213Y-3.2606
X3.2213Y-3.3606
X3.2213Y-3.4606
X3.2213Y-3.5606
X3.2213Y-3.6606
X3.2213Y-3.7606
X3.2213Y-3.8606
X3.2213Y-3.9606
X3.2213Y-4.0606
X3.2213Y-4.1606
X3.2213Y-4.2606
X3.2213Y-4.4606
X3.2213Y-4.5606
X3.2213Y-4.6606
X3.2213Y-4.7606
X3.2213Y-4.8606
X3.2213Y-4.9606
X3.2213Y-5.0606
X3.2213Y-5.1606
X3.2213Y-5.2606
X3.2213Y-5.3606
X3.2213Y-5.4606
X3.2213Y-5.5606
X3.2213Y-5.6606
X3.2213Y-5.7606
X3.2213Y-5.8606
X3.2213Y-5.9606
X3.2213Y-6.0606
X3.2213Y-6.1606
X3.3213Y-2.5606
X3.3213Y-2.6606
X3.3213Y-2.7606
X3.3213Y-2.8606
X3.3213Y-2.9606
X3.3213Y-3.0606
X3.3213Y-3.1606
X3.3213Y-3.2606
X3.3213Y-3.3606
X3.3213Y-3.4606
X3.3213Y-3.5606
X3.3213Y-3.6606
X3.3213Y-3.7606
X3.3213Y-3.8606
X3.3213Y-3.9606
X3.3213Y-4.0606
X3.3213Y-4.1606
X3.3213Y-4.2606
X3.3213Y-4.4606
X3.3213Y-4.5606
X3.3213Y-4.6606
X3.3213Y-4.7606
X3.3213Y-4.8606
X3.3213Y-4.9606
X3.3213Y-5.0606
X3.3213Y-5.1606
X3.3213Y-5.2606
X3.3213Y-5.3606
X3.3213Y-5.4606
X3.3213Y-5.5606
X3.3213Y-5.6606
X3.3213Y-5.7606
X3.3213Y-5.8606
X3.3213Y-5.9606
X3.3213Y-6.0606
X3.3213Y-6.1606
X3.4213Y-2.5606
X3.4213Y-2.6606
X3.4213Y-2.7606
X3.4213Y-2.8606
X3.4213Y-2.9606
X3.4213Y-3.0606
X3.4213Y-3.1606
X3.4213Y-3.2606
X3.4213Y-3.3606
X3.4213Y-3.4606
X3.4213Y-3.5606
X3.4213Y-3.8606
X3.4213Y-3.9606
X3.4213Y-4.0606
X3.4213Y-4.1606
X3.4213Y-4.2606
X3.4213Y-4.4606
X3.4213Y-4.5606
X3.4213Y-4.6606
X3.4213Y-4.7606
X3.4213Y-4.8606
X3.4213Y-5.1606
X3.4213Y-5.2606
X3.4213Y-5.3606
X3.4213Y-5.4606
X3.4213Y-5.5606
X3.4213Y-5.6606
X3.4213Y-5.7606
X3.4213Y-5.8606
X3.4213Y-5.9606
X3.4213Y-6.0606
X3.4213Y-6.1606
X3.5213Y-2.8606
X3.5213Y-2.9606
X3.5213Y-3.0606
X3.5213Y-3.1606
X3.5213Y-3.2606
X3.5213Y-3.3606
X3.5213Y-3.4606
X3.5213Y-3.5606
X3.5213Y-3.8606
X3.5213Y-3.9606
X3.5213Y-4.0606
X3.5213Y-4.1606
X3.5213Y-4.2606
X3.5213Y-4.4606
X3.5213Y-4.5606
X3.5213Y-4.6606
X3.5213Y-4.7606
X3.5213Y-4.8606
X3.5213Y-5.1606
X3.5213Y-5.2606
X3.5213Y-5.3606
X3.5213Y-5.4606
X3.5213Y-5.5606
X3.5213Y-5.6606
X3.5213Y-5.7606
X3.5213Y-5.8606
X3.6213Y-3.8606
X3.6213Y-3.9606
X3.6213Y-4.0606
X3.6213Y-4.1606
X3.6213Y-4.2606
X3.6213Y-4.4606
X3.6213Y-4.5606
X3.6213Y-4.6606
X3.6213Y-4.7606
X3.6213Y-4.8606
X3.7154Y-2.6116
X3.7154Y-3.3596
X3.7154Y-5.3616
X3.7154Y-6.1096
X3.7213Y-3.8606
X3.7213Y-3.9606
X3.7213Y-4.0606
X3.7213Y-4.1606
X3.7213Y-4.2606
X3.7213Y-4.4606
X3.7213Y-4.5606
X3.7213Y-4.6606
X3.7213Y-4.7606
X3.7213Y-4.8606
X3.8138Y-2.6116
X3.8138Y-3.3596
X3.8138Y-5.3616
X3.8138Y-6.1096
X3.8213Y-3.8606
X3.8213Y-3.9606
X3.8213Y-4.0606
X3.8213Y-4.1606
X3.8213Y-4.2606
X3.8213Y-4.4606
X3.8213Y-4.5606
X3.8213Y-4.6606
X3.8213Y-4.7606
X3.8213Y-4.8606
X3.9213Y-3.9606
X3.9213Y-4.0606
X3.9213Y-4.1606
X3.9213Y-4.2606
X3.9213Y-4.4606
X3.9213Y-4.5606
X3.9213Y-4.6606
X3.9213Y-4.7606
X4.0213Y-3.9606
X4.0213Y-4.0606
X4.0213Y-4.1606
X4.0213Y-4.2606
X4.0213Y-4.4606
X4.0213Y-4.5606
X4.0213Y-4.6606
X4.0213Y-4.7606
X4.1213Y-3.8606
X4.1213Y-3.9606
X4.1213Y-4.0606
X4.1213Y-4.1606
X4.1213Y-4.2606
X4.1213Y-4.4606
X4.1213Y-4.5606
X4.1213Y-4.6606
X4.1213Y-4.7606
X4.1213Y-4.8606
X4.1287Y-2.6116
X4.1287Y-3.3596
X4.1287Y-5.3616
X4.1287Y-6.1096
X4.2213Y-3.8606
X4.2213Y-3.9606
X4.2213Y-4.0606
X4.2213Y-4.1606
X4.2213Y-4.2606
X4.2213Y-4.4606
X4.2213Y-4.5606
X4.2213Y-4.6606
X4.2213Y-4.7606
X4.2213Y-4.8606
X4.2272Y-2.6116
X4.2272Y-3.3596
X4.2272Y-5.3616
X4.2272Y-6.1096
X4.3213Y-3.8606
X4.3213Y-3.9606
X4.3213Y-4.0606
X4.3213Y-4.1606
X4.3213Y-4.2606
X4.3213Y-4.4606
X4.3213Y-4.5606
X4.3213Y-4.6606
X4.3213Y-4.7606
X4.3213Y-4.8606
X4.4213Y-2.8606
X4.4213Y-2.9606
X4.4213Y-3.0606
X4.4213Y-3.1606
X4.4213Y-3.2606
X4.4213Y-3.3606
X4.4213Y-3.4606
X4.4213Y-3.5606
X4.4213Y-3.8606
X4.4213Y-3.9606
X4.4213Y-4.0606
X4.4213Y-4.1606
X4.4213Y-4.2606
X4.4213Y-4.4606
X4.4213Y-4.5606
X4.4213Y-4.6606
X4.4213Y-4.7606
X4.4213Y-4.8606
X4.4213Y-5.1606
X4.4213Y-5.2606
X4.4213Y-5.3606
X4.4213Y-5.4606
X4.4213Y-5.5606
X4.4213Y-5.6606
X4.4213Y-5.7606
X4.4213Y-5.8606
X4.5213Y-2.5606
X4.5213Y-2.6606
X4.5213Y-2.7606
X4.5213Y-2.8606
X4.5213Y-2.9606
X4.5213Y-3.0606
X4.5213Y-3.1606
X4.5213Y-3.2606
X4.5213Y-3.3606
X4.5213Y-3.4606
X4.5213Y-3.5606
X4.5213Y-3.8606
X4.5213Y-3.9606
X4.5213Y-4.0606
X4.5213Y-4.1606
X4.5213Y-4.2606
X4.5213Y-4.4606
X4.5213Y-4.5606
X4.5213Y-4.6606
X4.5213Y-4.7606
X4.5213Y-4.8606
X4.5213Y-5.1606
X4.5213Y-5.2606
X4.5213Y-5.3606
X4.5213Y-5.4606
X4.5213Y-5.5606
X4.5213Y-5.6606
X4.5213Y-5.7606
X4.5213Y-5.8606
X4.5213Y-5.9606
X4.5213Y-6.0606
X4.5213Y-6.1606
X4.6213Y-2.5606
X4.6213Y-2.6606
X4.6213Y-2.7606
X4.6213Y-2.8606
X4.6213Y-2.9606
X4.6213Y-3.0606
X4.6213Y-3.1606
X4.6213Y-3.2606
X4.6213Y-3.3606
X4.6213Y-3.4606
X4.6213Y-3.5606
X4.6213Y-3.6606
X4.6213Y-3.7606
X4.6213Y-3.8606
X4.6213Y-3.9606
X4.6213Y-4.0606
X4.6213Y-4.1606
X4.6213Y-4.2606
X4.6213Y-4.4606
X4.6213Y-4.5606
X4.6213Y-4.6606
X4.6213Y-4.7606
X4.6213Y-4.8606
X4.6213Y-4.9606
X4.6213Y-5.0606
X4.6213Y-5.1606
X4.6213Y-5.2606
X4.6213Y-5.3606
X4.6213Y-5.4606
X4.6213Y-5.5606
X4.6213Y-5.6606
X4.6213Y-5.7606
X4.6213Y-5.8606
X4.6213Y-5.9606
X4.6213Y-6.0606
X4.6213Y-6.1606
X4.7213Y-2.5606
X4.7213Y-2.6606
X4.7213Y-2.7606
X4.7213Y-2.8606
X4.7213Y-2.9606
X4.7213Y-3.0606
X4.7213Y-3.1606
X4.7213Y-3.2606
X4.7213Y-3.3606
X4.7213Y-3.4606
X4.7213Y-3.5606
X4.7213Y-3.6606
X4.7213Y-3.7606
X4.7213Y-3.8606
X4.7213Y-3.9606
X4.7213Y-4.0606
X4.7213Y-4.1606
X4.7213Y-4.2606
X4.7213Y-4.4606
X4.7213Y-4.5606
X4.7213Y-4.6606
X4.7213Y-4.7606
X4.7213Y-4.8606
X4.7213Y-4.9606
X4.7213Y-5.0606
X4.7213Y-5.1606
X4.7213Y-5.2606
X4.7213Y-5.3606
X4.7213Y-5.4606
X4.7213Y-5.5606
X4.7213Y-5.6606
X4.7213Y-5.7606
X4.7213Y-5.8606
X4.7213Y-5.9606
X4.7213Y-6.0606
X4.7213Y-6.1606
X4.8213Y-2.5606
X4.8213Y-2.6606
X4.8213Y-2.7606
X4.8213Y-2.8606
X4.8213Y-2.9606
X4.8213Y-3.0606
X4.8213Y-3.1606
X4.8213Y-3.2606
X4.8213Y-3.3606
X4.8213Y-3.4606
X4.8213Y-3.5606
X4.8213Y-3.6606
X4.8213Y-3.7606
X4.8213Y-3.8606
X4.8213Y-3.9606
X4.8213Y-4.0606
X4.8213Y-4.1606
X4.8213Y-4.2606
X4.8213Y-4.4606
X4.8213Y-4.5606
X4.8213Y-4.6606
X4.8213Y-4.7606
X4.8213Y-4.8606
X4.8213Y-4.9606
X4.8213Y-5.0606
X4.8213Y-5.1606
X4.8213Y-5.2606
X4.8213Y-5.3606
X4.8213Y-5.4606
X4.8213Y-5.5606
X4.8213Y-5.6606
X4.8213Y-5.7606
X4.8213Y-5.8606
X4.8213Y-5.9606
X4.8213Y-6.0606
X4.8213Y-6.1606
X4.9213Y-2.5606
X4.9213Y-2.6606
X4.9213Y-2.7606
X4.9213Y-2.8606
X4.9213Y-2.9606
X4.9213Y-3.0606
X4.9213Y-3.1606
X4.9213Y-3.2606
X4.9213Y-3.3606
X4.9213Y-3.4606
X4.9213Y-3.5606
X4.9213Y-3.6606
X4.9213Y-3.7606
X4.9213Y-3.8606
X4.9213Y-3.9606
X4.9213Y-4.0606
X4.9213Y-4.1606
X4.9213Y-4.2606
X4.9213Y-4.4606
X4.9213Y-4.5606
X4.9213Y-4.6606
X4.9213Y-4.7606
X4.9213Y-4.8606
X4.9213Y-4.9606
X4.9213Y-5.0606
X4.9213Y-5.1606
X4.9213Y-5.2606
X4.9213Y-5.3606
X4.9213Y-5.4606
X4.9213Y-5.5606
X4.9213Y-5.6606
X4.9213Y-5.7606
X4.9213Y-5.8606
X4.9213Y-5.9606
X4.9213Y-6.0606
X4.9213Y-6.1606
X5.0213Y-2.5606
X5.0213Y-2.6606
X5.0213Y-2.7606
X5.0213Y-2.8606
X5.0213Y-2.9606
X5.0213Y-3.0606
X5.0213Y-3.1606
X5.0213Y-3.2606
X5.0213Y-3.3606
X5.0213Y-3.4606
X5.0213Y-3.5606
X5.0213Y-3.6606
X5.0213Y-3.7606
X5.0213Y-3.8606
X5.0213Y-3.9606
X5.0213Y-4.0606
X5.0213Y-4.1606
X5.0213Y-4.2606
X5.0213Y-4.4606
X5.0213Y-4.5606
X5.0213Y-4.6606
X5.0213Y-4.7606
X5.0213Y-4.8606
X5.0213Y-4.9606
X5.0213Y-5.0606
X5.0213Y-5.1606
X5.0213Y-5.2606
X5.0213Y-5.3606
X5.0213Y-5.4606
X5.0213Y-5.5606
X5.0213Y-5.6606
X5.0213Y-5.7606
X5.0213Y-5.8606
X5.0213Y-5.9606
X5.0213Y-6.0606
X5.0213Y-6.1606
X5.1213Y-2.5606
X5.1213Y-2.6606
X5.1213Y-2.7606
X5.1213Y-2.8606
X5.1213Y-2.9606
X5.1213Y-3.0606
X5.1213Y-3.1606
X5.1213Y-3.2606
X5.1213Y-3.3606
X5.1213Y-3.4606
X5.1213Y-3.5606
X5.1213Y-3.6606
X5.1213Y-3.7606
X5.1213Y-3.8606
X5.1213Y-3.9606
X5.1213Y-4.0606
X5.1213Y-4.1606
X5.1213Y-4.2606
X5.1213Y-4.4606
X5.1213Y-4.5606
X5.1213Y-4.6606
X5.1213Y-4.7606
X5.1213Y-4.8606
X5.1213Y-4.9606
X5.1213Y-5.0606
X5.1213Y-5.1606
X5.1213Y-5.2606
X5.1213Y-5.3606
X5.1213Y-5.4606
X5.1213Y-5.5606
X5.1213Y-5.6606
X5.1213Y-5.7606
X5.1213Y-5.8606
X5.1213Y-5.9606
X5.1213Y-6.0606
X5.1213Y-6.1606
X5.2213Y-2.5606
X5.2213Y-2.6606
X5.2213Y-2.7606
X5.2213Y-2.8606
X5.2213Y-2.9606
X5.2213Y-3.0606
X5.2213Y-3.1606
X5.2213Y-3.2606
X5.2213Y-3.3606
X5.2213Y-3.4606
X5.2213Y-3.5606
X5.2213Y-3.6606
X5.2213Y-3.7606
X5.2213Y-3.8606
X5.2213Y-3.9606
X5.2213Y-4.0606
X5.2213Y-4.1606
X5.2213Y-4.2606
X5.2213Y-4.4606
X5.2213Y-4.5606
X5.2213Y-4.6606
X5.2213Y-4.7606
X5.2213Y-4.8606
X5.2213Y-4.9606
X5.2213Y-5.0606
X5.2213Y-5.1606
X5.2213Y-5.2606
X5.2213Y-5.3606
X5.2213Y-5.4606
X5.2213Y-5.5606
X5.2213Y-5.6606
X5.2213Y-5.7606
X5.2213Y-5.8606
X5.2213Y-5.9606
X5.2213Y-6.0606
X5.2213Y-6.1606
X5.3213Y-2.5606
X5.3213Y-2.6606
X5.3213Y-2.7606
X5.3213Y-2.8606
X5.3213Y-2.9606
X5.3213Y-3.0606
X5.3213Y-3.1606
X5.3213Y-3.2606
X5.3213Y-3.3606
X5.3213Y-3.4606
X5.3213Y-3.5606
X5.3213Y-3.6606
X5.3213Y-3.7606
X5.3213Y-3.8606
X5.3213Y-3.9606
X5.3213Y-4.0606
X5.3213Y-4.1606
X5.3213Y-4.2606
X5.3213Y-4.4606
X5.3213Y-4.5606
X5.3213Y-4.6606
X5.3213Y-4.7606
X5.3213Y-4.8606
X5.3213Y-4.9606
X5.3213Y-5.0606
X5.3213Y-5.1606
X5.3213Y-5.2606
X5.3213Y-5.3606
X5.3213Y-5.4606
X5.3213Y-5.5606
X5.3213Y-5.6606
X5.3213Y-5.7606
X5.3213Y-5.8606
X5.3213Y-5.9606
X5.3213Y-6.0606
X5.3213Y-6.1606
X5.4213Y-2.5606
X5.4213Y-2.6606
X5.4213Y-2.7606
X5.4213Y-2.8606
X5.4213Y-2.9606
X5.4213Y-3.0606
X5.4213Y-3.1606
X5.4213Y-3.2606
X5.4213Y-3.3606
X5.4213Y-3.4606
X5.4213Y-3.5606
X5.4213Y-3.6606
X5.4213Y-3.7606
X5.4213Y-3.8606
X5.4213Y-3.9606
X5.4213Y-4.0606
X5.4213Y-4.1606
X5.4213Y-4.2606
X5.4213Y-4.4606
X5.4213Y-4.5606
X5.4213Y-4.6606
X5.4213Y-4.7606
X5.4213Y-4.8606
X5.4213Y-4.9606
X5.4213Y-5.0606
X5.4213Y-5.1606
X5.4213Y-5.2606
X5.4213Y-5.3606
X5.4213Y-5.4606
X5.4213Y-5.5606
X5.4213Y-5.6606
X5.4213Y-5.7606
X5.4213Y-5.8606
X5.4213Y-5.9606
X5.4213Y-6.0606
X5.4213Y-6.1606
X5.5213Y-2.5606
X5.5213Y-2.6606
X5.5213Y-2.7606
X5.5213Y-2.8606
X5.5213Y-2.9606
X5.5213Y-3.0606
X5.5213Y-3.1606
X5.5213Y-3.2606
X5.5213Y-3.3606
X5.5213Y-3.4606
X5.5213Y-3.5606
X5.5213Y-3.6606
X5.5213Y-3.7606
X5.5213Y-3.8606
X5.5213Y-3.9606
X5.5213Y-4.0606
X5.5213Y-4.1606
X5.5213Y-4.2606
X5.5213Y-4.4606
X5.5213Y-4.5606
X5.5213Y-4.6606
X5.5213Y-4.7606
X5.5213Y-4.8606
X5.5213Y-4.9606
X5.5213Y-5.0606
X5.5213Y-5.1606
X5.5213Y-5.2606
X5.5213Y-5.3606
X5.5213Y-5.4606
X5.5213Y-5.5606
X5.5213Y-5.6606
X5.5213Y-5.7606
X5.5213Y-5.8606
X5.5213Y-5.9606
X5.5213Y-6.0606
X5.5213Y-6.1606
X5.6213Y-2.5606
X5.6213Y-2.6606
X5.6213Y-2.7606
X5.6213Y-2.8606
X5.6213Y-2.9606
X5.6213Y-3.0606
X5.6213Y-3.1606
X5.6213Y-3.2606
X5.6213Y-3.3606
X5.6213Y-3.4606
X5.6213Y-3.5606
X5.6213Y-3.6606
X5.6213Y-3.7606
X5.6213Y-3.8606
X5.6213Y-3.9606
X5.6213Y-4.0606
X5.6213Y-4.1606
X5.6213Y-4.2606
X5.6213Y-4.4606
X5.6213Y-4.5606
X5.6213Y-4.6606
X5.6213Y-4.7606
X5.6213Y-4.8606
X5.6213Y-4.9606
X5.6213Y-5.0606
X5.6213Y-5.1606
X5.6213Y-5.2606
X5.6213Y-5.3606
X5.6213Y-5.4606
X5.6213Y-5.5606
X5.6213Y-5.6606
X5.6213Y-5.7606
X5.6213Y-5.8606
X5.6213Y-5.9606
X5.6213Y-6.0606
X5.6213Y-6.1606
X5.7213Y-2.5606
X5.7213Y-2.6606
X5.7213Y-2.7606
X5.7213Y-2.8606
X5.7213Y-2.9606
X5.7213Y-3.0606
X5.7213Y-3.1606
X5.7213Y-3.2606
X5.7213Y-3.3606
X5.7213Y-3.4606
X5.7213Y-3.5606
X5.7213Y-3.6606
X5.7213Y-3.7606
X5.7213Y-3.8606
X5.7213Y-3.9606
X5.7213Y-4.0606
X5.7213Y-4.1606
X5.7213Y-4.2606
X5.7213Y-4.4606
X5.7213Y-4.5606
X5.7213Y-4.6606
X5.7213Y-4.7606
X5.7213Y-4.8606
X5.7213Y-4.9606
X5.7213Y-5.0606
X5.7213Y-5.1606
X5.7213Y-5.2606
X5.7213Y-5.3606
X5.7213Y-5.4606
X5.7213Y-5.5606
X5.7213Y-5.6606
X5.7213Y-5.7606
X5.7213Y-5.8606
X5.7213Y-5.9606
X5.7213Y-6.0606
X5.7213Y-6.1606
X5.8213Y-2.5606
X5.8213Y-2.6606
X5.8213Y-2.7606
X5.8213Y-2.8606
X5.8213Y-2.9606
X5.8213Y-3.0606
X5.8213Y-3.1606
X5.8213Y-3.2606
X5.8213Y-3.3606
X5.8213Y-3.4606
X5.8213Y-3.5606
X5.8213Y-3.6606
X5.8213Y-3.7606
X5.8213Y-3.8606
X5.8213Y-3.9606
X5.8213Y-4.0606
X5.8213Y-4.1606
X5.8213Y-4.2606
X5.8213Y-4.4606
X5.8213Y-4.5606
X5.8213Y-4.6606
X5.8213Y-4.7606
X5.8213Y-4.8606
X5.8213Y-4.9606
X5.8213Y-5.0606
X5.8213Y-5.1606
X5.8213Y-5.2606
X5.8213Y-5.3606
X5.8213Y-5.4606
X5.8213Y-5.5606
X5.8213Y-5.6606
X5.8213Y-5.7606
X5.8213Y-5.8606
X5.8213Y-5.9606
X5.8213Y-6.0606
X5.8213Y-6.1606
T3
X3.9213Y-3.8606
X3.9213Y-4.8606
X4.0213Y-3.8606
X4.0213Y-4.8606
T0
M30
